<?xml version="1.0" encoding="UTF-8"?>
<svg width="348px" height="70px" viewBox="0 0 348 70" version="1.1" xmlns="http://www.w3.org/2000/svg" xmlns:xlink="http://www.w3.org/1999/xlink">
    <title>bnetplay_topHD</title>
    <g id="Page-1" stroke="none" stroke-width="1" fill="none" fill-rule="evenodd">
        <g id="bnetplay_topHD">
            <rect id="Rectangle-Copy-2" x="0" y="0" width="347.666667" height="70"></rect>
            <g id="Group-62" transform="translate(6.134115, 7.630046)" fill-rule="nonzero">
                <g id="BnetPlay-Copy" transform="translate(0.666683, 0.000000)" fill="#FF670B">
                    <path d="M2.9492919,28.6139909 L12.4807783,28.6139909 C18.4965525,28.6139909 22.2271138,25.5084451 22.2271138,20.5473846 C22.2271138,16.8168233 19.414544,14.0237853 15.5863241,13.7308093 L15.5863241,13.5745554 C18.5746794,13.1253255 20.8794241,10.5471366 20.8794241,7.46112255 C20.8794241,3.14460924 17.5590292,0.429698157 12.2659292,0.429698157 L2.9492919,0.429698157 C1.09377713,0.429698157 0,1.56253875 0,3.49618046 L0,25.5279769 C0,27.4811503 1.09377713,28.6139909 2.9492919,28.6139909 Z M5.89858379,12.1487388 L5.89858379,4.8243384 L10.7424539,4.8243384 C13.4964285,4.8243384 15.078499,6.11343287 15.078499,8.37911407 C15.078499,10.7619857 13.2815794,12.1487388 10.1369702,12.1487388 L5.89858379,12.1487388 Z M5.89858379,24.2193507 L5.89858379,16.035554 L10.8401126,16.035554 C14.3167613,16.035554 16.2113396,17.4418388 16.2113396,20.078623 C16.2113396,22.7740023 14.3753565,24.2193507 10.9768347,24.2193507 L5.89858379,24.2193507 Z" id="Shape"></path>
                    <path d="M27.0665988,29.0241573 C28.746328,29.0241573 29.9182321,28.0085072 29.9182321,26.0553337 L29.9182321,16.6019743 C29.9182321,13.8870632 31.539366,12.0120167 34.0980232,12.0120167 C36.6566804,12.0120167 37.9457749,13.5745554 37.9457749,16.3089982 L37.9457749,26.0553337 C37.9457749,28.0085072 39.117679,29.0241573 40.7974081,29.0241573 C42.4576056,29.0241573 43.6490414,28.0085072 43.6490414,26.0553337 L43.6490414,15.1175624 C43.6490414,10.2150971 41.031789,7.28533694 36.3832362,7.28533694 C33.1605,7.28533694 31.0510727,8.71115355 29.9377638,11.3088742 L29.8205734,11.3088742 L29.8205734,10.1369702 C29.8205734,8.3400506 28.6877328,7.24627347 26.9689402,7.24627347 C25.2501475,7.24627347 24.2149656,8.3400506 24.2149656,10.1174384 L24.2149656,26.0553337 C24.2149656,28.0085072 25.4064014,29.0241573 27.0665988,29.0241573 Z" id="Path"></path>
                    <path d="M56.0082442,29.0632208 C60.0513132,29.0632208 63.2935811,27.5397455 64.6803343,24.9615566 C64.9342468,24.492795 65.070969,24.0240333 65.070969,23.5748034 C65.070969,22.2661772 64.0748505,21.4849079 62.8443512,21.4849079 C62.1021453,21.4849079 61.5943202,21.6997569 60.9888365,22.3247724 C59.4458295,24.1412237 58.078608,24.8443662 55.9887125,24.8443662 C53.0980158,24.8443662 51.2229693,22.8130658 51.2229693,19.70752 L51.2229693,19.4536075 L63.1763907,19.4536075 C64.7584612,19.4536075 65.656921,18.5551477 65.656921,16.9730772 C65.656921,11.2893425 61.6724472,7.22674173 55.7347999,7.22674173 C49.5432401,7.22674173 45.6173615,11.5041916 45.6173615,18.2426399 C45.6173615,25.0201518 49.4651132,29.0632208 56.0082442,29.0632208 Z M51.2815645,15.957427 C51.4768818,13.2815794 53.2933331,11.4455964 55.7933951,11.4455964 C58.2934571,11.4455964 60.0513132,13.2229842 60.1685036,15.957427 L51.2815645,15.957427 Z" id="Shape"></path>
                    <path d="M69.2268433,23.2622957 C69.2268433,26.9537935 71.160485,28.8483717 74.9691733,28.8483717 L75.1644906,28.8483717 C77.5668939,28.8483717 79.2075596,27.9889754 79.2075596,26.3092463 C79.2075596,24.9810883 78.445822,24.3951363 77.0395371,24.2388824 L76.6684341,24.1998189 C75.4379349,24.1021603 74.9301098,23.4771448 74.9301098,21.992733 L74.9301098,11.9729532 L76.9418784,11.9729532 C78.2895681,11.9729532 79.1294327,11.1330886 79.1294327,9.82446241 C79.1294327,8.51583621 78.2895681,7.67597163 76.9418784,7.67597163 L74.9301098,7.67597163 L74.9301098,5.35169523 C74.9301098,3.5157122 73.8558644,2.3828716 72.0784766,2.3828716 C70.3010887,2.3828716 69.2268433,3.5157122 69.2268433,5.35169523 L69.2268433,7.67597163 L68.1330662,7.67597163 C66.7853765,7.67597163 65.9259802,8.49630447 65.9259802,9.82446241 C65.9259802,11.1526204 66.7853765,11.9729532 68.1330662,11.9729532 L69.2268433,11.9729532 L69.2268433,23.2622957 Z" id="Path"></path>
                    <path d="M84.4767429,28.9850939 C86.3322576,28.9850939 87.4260348,27.8522533 87.4260348,25.9186116 L87.4260348,19.7270518 L92.699603,19.7270518 C98.6372503,19.7270518 102.758446,15.8597683 102.758446,10.078375 C102.758446,4.27744984 98.7739725,0.429698157 92.9925791,0.429698157 L84.4767429,0.429698157 C82.6212281,0.429698157 81.527451,1.56253875 81.527451,3.49618046 L81.527451,25.9186116 C81.527451,27.8522533 82.6212281,28.9850939 84.4767429,28.9850939 Z M87.4260348,15.1175624 L87.4260348,5.09778268 L91.4300403,5.09778268 C94.8090304,5.09778268 96.7622038,6.89470225 96.7622038,10.0979067 C96.7622038,13.3206429 94.7894986,15.1175624 91.4105086,15.1175624 L87.4260348,15.1175624 Z" id="Shape"></path>
                    <path d="M107.851844,29.0241573 C109.531573,29.0241573 110.703477,28.0085072 110.703477,26.0553337 L110.703477,2.98835537 C110.703477,1.03518192 109.531573,0 107.851844,0 C106.191646,0 105.000211,1.03518192 105.000211,2.98835537 L105.000211,26.0553337 C105.000211,28.0085072 106.191646,29.0241573 107.851844,29.0241573 Z" id="Path"></path>
                    <path d="M119.859476,28.9460304 C122.476728,28.9460304 125.09398,27.6374042 126.265884,25.4107865 L126.383075,25.4107865 L126.383075,26.4850319 C126.500265,28.164761 127.574511,29.0241573 129.117518,29.0241573 C130.738652,29.0241573 131.891024,28.0475706 131.891024,26.1529924 L131.891024,14.2191027 C131.891024,10.000248 128.394843,7.22674173 123.023616,7.22674173 C118.687571,7.22674173 115.328113,8.76974875 114.351526,11.2698108 C114.156209,11.6995089 114.05855,12.1096753 114.05855,12.5589052 C114.05855,13.8479997 115.054669,14.7464595 116.441422,14.7464595 C117.359413,14.7464595 118.082088,14.3948883 118.707103,13.6917458 C119.976666,12.0510801 121.03138,11.4846598 122.769704,11.4846598 C124.918195,11.4846598 126.285416,12.6175004 126.285416,14.5706739 L126.285416,15.957427 L121.011848,16.2699348 C115.777343,16.5824425 112.847583,18.7895285 112.847583,22.5982167 C112.847583,26.3678415 115.875002,28.9460304 119.859476,28.9460304 Z M121.734522,24.8248344 C119.820412,24.8248344 118.531318,23.8482477 118.531318,22.285709 C118.531318,20.8012972 119.742285,19.8442422 121.871244,19.6879883 L126.285416,19.414544 L126.285416,20.9380193 C126.285416,23.2037005 124.234584,24.8248344 121.734522,24.8248344 Z" id="Shape"></path>
                    <path d="M138.136794,36.3680895 C142.726751,36.3680895 145.148687,34.3758526 147.10186,28.9655621 L153.527801,11.5041916 C153.723118,10.957303 153.840308,10.293224 153.840308,9.82446241 C153.840308,8.32051886 152.707468,7.24627347 151.066802,7.24627347 C149.601922,7.24627347 148.781589,7.92988417 148.312827,9.51195466 L143.761933,24.0435651 L143.664275,24.0435651 L139.113381,9.55101813 C138.644619,7.8908207 137.86335,7.24627347 136.359406,7.24627347 C134.679677,7.24627347 133.410114,8.35958233 133.410114,9.90258935 C133.410114,10.371351 133.527305,10.9963665 133.742154,11.5823185 L140.422007,29.199943 L140.129031,29.9421489 C139.44542,31.4070289 138.371175,31.8367271 137.375056,31.8367271 C136.984422,31.8367271 136.769572,31.8171954 136.378938,31.8171954 C135.089843,31.8171954 134.289042,32.5398695 134.289042,33.6922419 C134.289042,35.4110345 135.636732,36.3680895 138.136794,36.3680895 Z" id="Path"></path>
                </g>
                <g id="Top-HD" transform="translate(0.000000, 33.416193)" fill="#474747">
                    <path d="M5.93764726,15.3649644 C6.65641509,15.3649644 7.10434287,14.9066197 7.10434287,14.1566011 L7.10434287,2.18755425 L10.7815174,2.18755425 C11.4273668,2.18755425 11.8648776,1.7917111 11.8648776,1.17711253 C11.8648776,0.562513951 11.4273668,0.1666708 10.7815174,0.1666708 L1.0833602,0.1666708 C0.437510851,0.1666708 0,0.562513951 0,1.17711253 C0,1.7917111 0.437510851,2.18755425 1.0833602,2.18755425 L4.77095166,2.18755425 L4.77095166,14.1566011 C4.77095166,14.9066197 5.20846251,15.3649644 5.93764726,15.3649644 Z" id="Path"></path>
                    <path d="M15.0167844,15.4066321 C18.1522789,15.4066321 20.21483,13.2503286 20.21483,9.71899105 C20.21483,6.19807039 18.1418619,4.04176691 15.0167844,4.04176691 C11.8917069,4.04176691 9.81873885,6.19807039 9.81873885,9.71899105 C9.81873885,13.2503286 11.88129,15.4066321 15.0167844,15.4066321 Z M15.0167844,13.5524195 C13.2563241,13.5524195 12.1104624,12.1565515 12.1104624,9.71899105 C12.1104624,7.29184752 13.2563241,5.89597956 15.0167844,5.89597956 C16.7772448,5.89597956 17.9231065,7.29184752 17.9231065,9.71899105 C17.9231065,12.1565515 16.7876617,13.5524195 15.0167844,13.5524195 Z" id="Shape"></path>
                    <path d="M22.7417214,19.0838066 C23.3979876,19.0838066 23.8667493,18.6254619 23.8667493,17.8858603 L23.8667493,13.3961656 L23.9188339,13.3961656 C24.5438494,14.6149458 25.7938804,15.3857983 27.3668361,15.3857983 C30.1169043,15.3857983 31.9398662,13.1878271 31.9398662,9.71899105 C31.9398662,6.25015501 30.1064874,4.06260076 27.3251684,4.06260076 C25.7417958,4.06260076 24.4813478,4.86470399 23.8354985,6.12515191 L23.7938308,6.12515191 L23.7938308,5.19804559 C23.7938308,4.47927776 23.3354861,4.04176691 22.7000537,4.04176691 C22.0646212,4.04176691 21.6166935,4.47927776 21.6166935,5.19804559 L21.6166935,17.8858603 C21.6166935,18.6254619 22.0750382,19.0838066 22.7417214,19.0838066 Z M26.7314036,13.479501 C25.0021941,13.479501 23.8563323,12.0002976 23.8563323,9.71899105 C23.8563323,7.45851832 25.012611,5.95848111 26.7314036,5.95848111 C28.5126978,5.95848111 29.6273088,7.42726754 29.6273088,9.71899105 C29.6273088,12.0211315 28.5126978,13.479501 26.7314036,13.479501 Z" id="Shape"></path>
                    <path d="M38.7541092,15.3649644 C39.472877,15.3649644 39.9208048,14.9066197 39.9208048,14.1566011 L39.9208048,8.54187852 L47.6397462,8.54187852 L47.6397462,14.1566011 C47.6397462,14.9066197 48.0772571,15.3649644 48.8064418,15.3649644 C49.5252096,15.3649644 49.9731374,14.9066197 49.9731374,14.1566011 L49.9731374,1.2083633 C49.9731374,0.458344701 49.5252096,0 48.8064418,0 C48.0772571,0 47.6397462,0.458344701 47.6397462,1.2083633 L47.6397462,6.52099506 L39.9208048,6.52099506 L39.9208048,1.2083633 C39.9208048,0.458344701 39.472877,0 38.7541092,0 C38.0249244,0 37.5874136,0.458344701 37.5874136,1.2083633 L37.5874136,14.1566011 C37.5874136,14.9066197 38.0249244,15.3649644 38.7541092,15.3649644 Z" id="Path"></path>
                    <path d="M53.5625551,15.1982936 L57.6980743,15.1982936 C62.1773521,15.1982936 64.8128341,12.4065577 64.8128341,7.65643989 C64.8128341,2.91673901 62.1669352,0.1666708 57.6980743,0.1666708 L53.5625551,0.1666708 C52.8333704,0.1666708 52.3958595,0.625015501 52.3958595,1.3750341 L52.3958595,13.9899303 C52.3958595,14.7399489 52.8333704,15.1982936 53.5625551,15.1982936 Z M54.7292507,13.1774102 L54.7292507,2.17713733 L57.4793189,2.17713733 C60.656481,2.17713733 62.4273583,4.13551923 62.4273583,7.67727374 C62.4273583,11.2294452 60.666898,13.1774102 57.4793189,13.1774102 L54.7292507,13.1774102 Z" id="Shape"></path>
                </g>
            </g>
            <g id="canais-copy" transform="translate(185.196289, 10.891602)" fill-rule="nonzero">
                <path d="M91.9052739,24.3020833 C94.1810715,24.3020833 95.8370773,22.8203939 96.1082362,20.9029134 L96.1179204,20.8351237 L94.4619145,20.8351237 L94.4425461,20.9125976 C94.161703,22.03597 93.2804367,22.8107096 91.9052739,22.8107096 C90.1621099,22.8107096 88.9612635,21.4258626 88.9612635,19.0822754 L88.9612635,19.0725912 C88.9612635,16.7871094 90.1330571,15.3344727 91.8859054,15.3344727 C93.3675949,15.3344727 94.1810715,16.2254232 94.4328618,17.2325847 L94.4522303,17.3100586 L96.0985519,17.3100586 L96.0888677,17.2325847 C95.8758143,15.5087891 94.3941248,13.843099 91.8859054,13.843099 C89.0871587,13.843099 87.2374679,15.8767904 87.2374679,19.0532227 L87.2374679,19.0629069 C87.2374679,22.2683919 89.0484217,24.3020833 91.9052739,24.3020833 Z" id="Path" fill="#474747"></path>
                <g id="125" fill="#FF670B">
                    <path d="M14.2578125,36.6699219 C16.9189453,36.6699219 18.7011719,34.9365234 18.7011719,32.2509766 L18.7011719,5.32226563 C18.7011719,2.24609375 16.8212891,0.317382812 13.5986328,0.317382812 C11.8408203,0.317382812 10.3271484,0.512695312 8.44726562,1.78222656 L1.78222656,6.32324219 C0.512695312,7.20214844 0,8.203125 0,9.49707031 C0,11.3037109 1.29394531,12.5976562 3.02734375,12.5976562 C3.88183594,12.5976562 4.41894531,12.4023438 5.22460938,11.8408203 L9.61914062,8.7890625 L9.79003906,8.7890625 L9.79003906,32.2509766 C9.79003906,34.9365234 11.5966797,36.6699219 14.2578125,36.6699219 Z" id="Path"></path>
                    <path d="M28.4254744,36.1083984 L47.9567244,36.1083984 C50.2272322,36.1083984 51.5455916,34.7167969 51.5455916,32.6660156 C51.5455916,30.5664062 50.2272322,29.2236328 47.9567244,29.2236328 L35.7741072,29.2236328 L35.7741072,29.0527344 L42.7809431,22.65625 C48.3717635,17.6025391 50.6666853,15.0146484 50.6666853,10.4980469 C50.6666853,4.27246094 45.3932478,0 37.3610213,0 C30.9401228,0 26.2526228,3.10058594 24.7145369,7.15332031 C24.4459822,7.78808594 24.348326,8.42285156 24.348326,9.10644531 C24.348326,11.3037109 25.7399275,12.6464844 28.0592635,12.6464844 C29.8659041,12.6464844 30.9157088,11.9384766 32.0387556,10.2050781 C33.332701,7.86132812 34.919615,6.73828125 37.238951,6.73828125 C40.0465681,6.73828125 41.9996931,8.54492188 41.9996931,11.0839844 C41.9996931,13.3789062 40.8766463,14.9902344 36.7506697,18.75 L26.692076,27.8808594 C24.9342635,29.3945312 24.2262556,30.5908203 24.2262556,32.2753906 C24.2262556,34.4970703 25.544615,36.1083984 28.4254744,36.1083984 Z" id="Path"></path>
                    <path d="M67.8372769,36.9873047 C76.2113004,36.9873047 82.0218472,31.8847656 82.0218472,24.1455078 C82.0218472,17.4560547 77.236691,12.7685547 70.5716519,12.7685547 C66.8851285,12.7685547 64.0286832,14.3066406 62.6614957,16.6259766 L62.4905972,16.6259766 L63.174191,7.76367188 L76.6507535,7.76367188 C78.799191,7.76367188 80.1663785,6.42089844 80.1663785,4.32128906 C80.1663785,2.22167969 78.7747769,0.87890625 76.6507535,0.87890625 L60.8060269,0.87890625 C57.8030972,0.87890625 56.0452847,2.22167969 55.8011441,5.44433594 L54.8734097,17.8222656 C54.8734097,17.8710938 54.8734097,17.8955078 54.8734097,17.9443359 C54.7269254,20.3125 56.0696988,22.3632812 59.0238004,22.3632812 C60.9769254,22.3632812 61.8802457,21.9238281 63.2474332,20.7275391 C64.37048,19.7265625 65.908566,18.8476562 67.8372769,18.8476562 C71.2064175,18.8476562 73.5745816,21.1181641 73.5745816,24.3408203 C73.5745816,27.6367188 71.1087613,30.078125 67.7640347,30.078125 C64.9320035,30.078125 63.2230191,28.7353516 61.8558316,26.6845703 C60.7816129,25.3417969 59.7073941,24.7802734 58.0228238,24.7802734 C55.752316,24.7802734 54.4095425,26.0986328 54.4095425,28.2958984 C54.4095425,29.1503906 54.6292691,29.9804688 55.0198941,30.7617188 C56.8265347,34.3505859 62.002316,36.9873047 67.8372769,36.9873047 Z" id="Path"></path>
                </g>
                <path d="M100.173445,24.3020833 C101.519555,24.3020833 102.730085,23.575765 103.320824,22.4717611 L103.359561,22.4717611 L103.359561,24.1083984 L105.04462,24.1083984 L105.04462,17.1454265 C105.04462,15.1311035 103.553246,13.843099 101.170922,13.843099 C98.798282,13.843099 97.3553295,15.1795248 97.2100659,16.8355306 L97.2003816,16.9420573 L98.8273347,16.9420573 L98.8467032,16.8548991 C99.0403881,15.9542644 99.8538647,15.3344727 101.151554,15.3344727 C102.555769,15.3344727 103.359561,16.0801595 103.359561,17.3100586 L103.359561,18.1525879 L100.473656,18.3172201 C98.1591218,18.4527995 96.8226961,19.5277507 96.8226961,21.241862 L96.8226961,21.2612305 C96.8226961,23.0915527 98.1688061,24.3020833 100.173445,24.3020833 Z M98.5464916,21.2612305 L98.5464916,21.241862 C98.5464916,20.3024902 99.3212312,19.7020671 100.667341,19.6245931 L103.359561,19.459961 L103.359561,20.2831217 C103.359561,21.7454427 102.139346,22.8397624 100.55113,22.8397624 C99.3405997,22.8397624 98.5464916,22.2296549 98.5464916,21.2612305 Z" id="Shape" fill="#474747"></path>
                <path d="M106.746873,24.1083984 L108.431931,24.1083984 L108.431931,18.1816407 C108.431931,16.4675293 109.468146,15.3344727 111.056362,15.3344727 C112.605841,15.3344727 113.370896,16.2351075 113.370896,17.8717448 L113.370896,24.1083984 L115.055955,24.1083984 L115.055955,17.5715332 C115.055955,15.2763672 113.777635,13.843099 111.569627,13.843099 C110.039516,13.843099 109.012986,14.5306804 108.470668,15.4700521 L108.431931,15.4700521 L108.431931,14.0367839 L106.746873,14.0367839 L106.746873,24.1083984 Z" id="Path" fill="#474747"></path>
                <path d="M119.702218,24.3020833 C121.048328,24.3020833 122.258859,23.575765 122.849598,22.4717611 L122.888335,22.4717611 L122.888335,24.1083984 L124.573393,24.1083984 L124.573393,17.1454265 C124.573393,15.1311035 123.08202,13.843099 120.699695,13.843099 C118.327055,13.843099 116.884103,15.1795248 116.738839,16.8355306 L116.729155,16.9420573 L118.356108,16.9420573 L118.375477,16.8548991 C118.569161,15.9542644 119.382638,15.3344727 120.680327,15.3344727 C122.084542,15.3344727 122.888335,16.0801595 122.888335,17.3100586 L122.888335,18.1525879 L120.00243,18.3172201 C117.687895,18.4527995 116.351469,19.5277507 116.351469,21.241862 L116.351469,21.2612305 C116.351469,23.0915527 117.697579,24.3020833 119.702218,24.3020833 Z M118.075265,21.2612305 L118.075265,21.241862 C118.075265,20.3024902 118.850005,19.7020671 120.196115,19.6245931 L122.888335,19.459961 L122.888335,20.2831217 C122.888335,21.7454427 121.66812,22.8397624 120.079904,22.8397624 C118.869373,22.8397624 118.075265,22.2296549 118.075265,21.2612305 Z" id="Shape" fill="#474747"></path>
                <path d="M127.224702,12.3323568 C127.815441,12.3323568 128.280285,11.8578288 128.280285,11.2767741 C128.280285,10.6860352 127.815441,10.2211914 127.224702,10.2211914 C126.643647,10.2211914 126.169119,10.6860352 126.169119,11.2767741 C126.169119,11.8578288 126.643647,12.3323568 127.224702,12.3323568 Z M126.382173,24.1083984 L128.067231,24.1083984 L128.067231,14.0367839 L126.382173,14.0367839 L126.382173,24.1083984 Z" id="Shape" fill="#474747"></path>
                <path d="M133.497919,24.3020833 C135.744663,24.3020833 137.410353,23.0625 137.410353,21.2999674 L137.410353,21.2902832 C137.410353,19.857015 136.674351,19.0532227 134.640659,18.5593262 L133.042759,18.1719564 C131.929071,17.9007976 131.473911,17.4262696 131.473911,16.7386882 L131.473911,16.7290039 C131.473911,15.8380534 132.229282,15.2473145 133.449497,15.2473145 C134.698765,15.2473145 135.444452,15.8961589 135.580031,16.8742676 L135.589715,16.9420573 L137.1973,16.9420573 L137.187616,16.8161621 C137.061721,15.1311035 135.657505,13.843099 133.449497,13.843099 C131.270542,13.843099 129.750116,15.0729981 129.750116,16.8064779 L129.750116,16.8161621 C129.750116,18.2687989 130.670119,19.1500651 132.568231,19.6052246 L134.166131,19.9925944 C135.308872,20.2734375 135.686558,20.6801758 135.686558,21.4064941 L135.686558,21.4161784 C135.686558,22.3264974 134.873081,22.8978678 133.507603,22.8978678 C132.13244,22.8978678 131.386753,22.3071289 131.183384,21.2999674 L131.164016,21.203125 L129.478957,21.203125 L129.488641,21.2902832 C129.69201,23.0915527 131.125279,24.3020833 133.497919,24.3020833 Z" id="Path" fill="#474747"></path>
            </g>
            <path d="M329,25.6666667 L329,33.9619752 L341.96142,33.9619752 L341.96142,25.6666667 L329,25.6666667 Z M329.518457,26.1851234 L341.442963,26.1851234 L341.442963,33.4435184 L329.518457,33.4435184 L329.518457,26.1851234 Z M334.346586,28.153639 C334.318232,28.153639 334.290892,28.1637653 334.265577,28.1779417 C334.213933,28.2073073 334.184568,28.2650264 334.184568,28.3237577 L334.184568,31.6208188 C334.184568,31.6795503 334.214946,31.7372691 334.265577,31.7666347 C334.290892,31.781824 334.318232,31.7828365 334.346586,31.7828365 C334.374939,31.7828365 334.41038,31.781824 334.435695,31.7666347 L337.287208,30.1140537 C337.337838,30.0846881 337.368216,30.0269693 337.368216,29.9682378 C337.368216,29.9095065 337.337838,29.8598883 337.287208,29.8305227 L334.435695,28.1779417 C334.41038,28.1637653 334.374939,28.153639 334.346586,28.153639 Z M331.802907,34.4804319 C331.660129,34.4935958 331.554817,34.6211849 331.567981,34.763963 C331.581145,34.9067411 331.708734,35.0120526 331.851512,34.9988887 L339.109907,34.9988887 C339.203067,34.9999013 339.290152,34.9512959 339.337745,34.8702871 C339.384325,34.7892782 339.384325,34.6900425 339.337745,34.6090336 C339.290152,34.5280247 339.203067,34.4794194 339.109907,34.4804319 L331.851512,34.4804319 C331.843411,34.4804319 331.835311,34.4804319 331.82721,34.4804319 C331.819109,34.4804319 331.811008,34.4804319 331.802907,34.4804319 Z" id="Shape" fill="#474747" fill-rule="nonzero"></path>
        </g>
    </g>
</svg>