<?xml version="1.0" encoding="UTF-8"?>
<svg width="53px" height="53px" viewBox="0 0 53 53" version="1.1" xmlns="http://www.w3.org/2000/svg" xmlns:xlink="http://www.w3.org/1999/xlink">
    <title>Group 40</title>
    <g id="Page-1" stroke="none" stroke-width="1" fill="none" fill-rule="evenodd">
        <g id="Group-40">
            <circle id="Oval-Copy-9" fill="#FFFFFF" cx="26.5" cy="26.5" r="26.5"></circle>
            <path d="M25.6083553,17.9112946 C25.6083553,18.4044575 26.0081429,18.804245 26.5013058,18.804245 C26.9944686,18.804245 27.3942562,18.4044575 27.3942562,17.9112946 C27.3942562,17.4181317 26.9944686,17.0183442 26.5013058,17.0183442 C26.0081429,17.0183442 25.6083553,17.4181317 25.6083553,17.9112946 Z M26.947781,17.9112946 C26.947781,18.157876 26.7478872,18.3577698 26.5013058,18.3577698 C26.2547243,18.3577698 26.0548305,18.157876 26.0548305,17.9112946 C26.0548305,17.6647132 26.2547243,17.4648194 26.5013058,17.4648194 C26.7478872,17.4648194 26.947781,17.6647132 26.947781,17.9112946 Z" id="Shape" fill="#FF670B" fill-rule="nonzero"></path>
            <path d="M23.3440563,14.7542684 C24.1813755,13.9168469 25.3170853,13.4463798 26.5013058,13.4463798 C27.6855262,13.4463798 28.8212361,13.9168469 29.6585552,14.7542684 C29.7461489,14.8388693 29.8853835,14.8376594 29.9714938,14.7515491 C30.0576041,14.6654388 30.058814,14.5262042 29.9742131,14.4386105 C29.0531676,13.5174878 27.8039154,13 26.5013058,13 C25.1986961,13 23.949444,13.5174878 23.0283984,14.4386105 C22.9703663,14.4946597 22.9470924,14.5776602 22.9675221,14.6557107 C22.9879518,14.7337611 23.0489057,14.794715 23.1269561,14.8151447 C23.2050066,14.8355744 23.2880071,14.8123005 23.3440563,14.7542684 L23.3440563,14.7542684 Z" id="Path" fill="#FF670B" fill-rule="nonzero"></path>
            <path d="M27.9219899,16.7138481 C28.0122662,16.7138288 28.0936449,16.659439 28.1281895,16.5760334 C28.1627342,16.4926278 28.1436442,16.3966262 28.0798188,16.3327815 C27.2080252,15.4610046 25.7945863,15.4610046 24.9227927,16.3327815 C24.8381918,16.4203752 24.8394017,16.5596098 24.925512,16.6457201 C25.0116223,16.7318304 25.1508569,16.7330403 25.2384506,16.6484395 C25.5733747,16.3134982 26.0276395,16.1253287 26.5013058,16.1253287 C26.974972,16.1253287 27.4292369,16.3134982 27.7641609,16.6484395 C27.8060163,16.6903076 27.8627884,16.7138355 27.9219899,16.7138481 Z" id="Path" fill="#FF670B" fill-rule="nonzero"></path>
            <path d="M28.8689638,15.766651 C28.9592401,15.7666317 29.0406188,15.7122418 29.0751634,15.6288362 C29.1097081,15.5454307 29.0906182,15.449429 29.0267928,15.3855844 C27.6319536,13.9909199 25.3706579,13.9909199 23.9758188,15.3855844 C23.9164075,15.4412965 23.8920527,15.524943 23.9122705,15.6038403 C23.9324883,15.6827376 23.9940697,15.7443625 24.0729526,15.7646361 C24.1518356,15.7849098 24.2354993,15.7606141 24.2912535,15.7012423 C24.8773751,15.115061 25.6723624,14.7857427 26.5013058,14.7857427 C27.3302491,14.7857427 28.1252365,15.115061 28.711358,15.7012423 C28.7531587,15.7430558 28.8098397,15.7665792 28.8689638,15.766651 Z" id="Path" fill="#FF670B" fill-rule="nonzero"></path>
            <path d="M37.2167107,32.6554686 L37.2167107,21.9268926 C37.2167107,21.4337297 36.8169232,21.0339422 36.3237603,21.0339422 C35.8305974,21.0339422 35.4308099,21.4337297 35.4308099,21.9268926 L35.4308099,23.4895558 C35.4308099,23.6128465 35.5307567,23.7127934 35.6540475,23.7127934 C35.7773382,23.7127934 35.8772851,23.6128465 35.8772851,23.4895558 L35.8772851,21.9268926 C35.8772851,21.6803112 36.0771788,21.4804174 36.3237603,21.4804174 C36.5703417,21.4804174 36.7702355,21.6803112 36.7702355,21.9268926 L36.7702355,32.6422975 L35.8772851,32.6422975 L35.8772851,24.8289814 C35.8772851,24.7056907 35.7773382,24.6057438 35.6540475,24.6057438 C35.5307567,24.6057438 35.4308099,24.7056907 35.4308099,24.8289814 L35.4308099,32.6422975 L27.3942562,32.6422975 L27.3942562,20.587467 C27.3942562,20.0943041 26.9944686,19.6945166 26.5013058,19.6945166 C26.0081429,19.6945166 25.6083553,20.0943041 25.6083553,20.587467 L25.6083553,32.6422975 L20.9203657,32.6422975 C20.797075,32.6422975 20.6971281,32.7422444 20.6971281,32.8655351 C20.6971281,32.9888259 20.797075,33.0887727 20.9203657,33.0887727 L36.9934731,33.0887727 C37.8561002,33.0897569 38.5551521,33.7888089 38.5561363,34.651436 L38.5561363,35.9908616 C38.5551521,36.8534887 37.8561002,37.5525406 36.9934731,37.5535248 L16.0091384,37.5535248 C15.1465113,37.5525406 14.4474594,36.8534887 14.4464752,35.9908616 L14.4464752,34.651436 C14.4474594,33.7888089 15.1465113,33.0897569 16.0091384,33.0887727 L19.5809401,33.0887727 C19.7042308,33.0887727 19.8041777,32.9888259 19.8041777,32.8655351 C19.8041777,32.7422444 19.7042308,32.6422975 19.5809401,32.6422975 L17.5718016,32.6422975 L17.5718016,21.9268926 C17.5718016,21.4337297 17.1720141,21.0339422 16.6788512,21.0339422 C16.1856883,21.0339422 15.7859008,21.4337297 15.7859008,21.9268926 L15.7859008,32.6554686 C14.7697817,32.7700947 14.001386,33.6288728 14,34.651436 L14,35.9908616 C14.0012303,37.0999681 14.9000319,37.9987697 16.0091384,38 L36.9934731,38 C38.1025796,37.9987697 39.0013812,37.0999681 39.0026115,35.9908616 L39.0026115,34.651436 C39.0012255,33.6288728 38.2328299,32.7700947 37.2167107,32.6554686 L37.2167107,32.6554686 Z M26.0548305,32.6422975 L26.0548305,20.587467 C26.0548305,20.3408855 26.2547243,20.1409918 26.5013058,20.1409918 C26.7478872,20.1409918 26.947781,20.3408855 26.947781,20.587467 L26.947781,32.6422975 L26.0548305,32.6422975 Z M16.232376,21.9268926 C16.232376,21.6803112 16.4322698,21.4804174 16.6788512,21.4804174 C16.9254327,21.4804174 17.1253264,21.6803112 17.1253264,21.9268926 L17.1253264,32.6422975 L16.232376,32.6422975 L16.232376,21.9268926 Z" id="Shape" stroke="#FF670B" stroke-width="0.2" fill="#FF670B" fill-rule="nonzero"></path>
            <path d="M16.6788512,34.4281984 C16.1856883,34.4281984 15.7859008,34.8279859 15.7859008,35.3211488 C15.7859008,35.8143117 16.1856883,36.2140992 16.6788512,36.2140992 C17.1720141,36.2140992 17.5718016,35.8143117 17.5718016,35.3211488 C17.5718016,34.8279859 17.1720141,34.4281984 16.6788512,34.4281984 Z M16.6788512,35.767624 C16.4322698,35.767624 16.232376,35.5677302 16.232376,35.3211488 C16.232376,35.0745673 16.4322698,34.8746736 16.6788512,34.8746736 C16.9254327,34.8746736 17.1253264,35.0745673 17.1253264,35.3211488 C17.1253264,35.5677302 16.9254327,35.767624 16.6788512,35.767624 Z" id="Shape" fill="#FF670B" fill-rule="nonzero"></path>
            <path d="M18.9112273,34.4281984 C18.4180644,34.4281984 18.0182768,34.8279859 18.0182768,35.3211488 C18.0182768,35.8143117 18.4180644,36.2140992 18.9112273,36.2140992 C19.4043902,36.2140992 19.8041777,35.8143117 19.8041777,35.3211488 C19.8041777,34.8279859 19.4043902,34.4281984 18.9112273,34.4281984 Z M18.9112273,35.767624 C18.6646458,35.767624 18.4647521,35.5677302 18.4647521,35.3211488 C18.4647521,35.0745673 18.6646458,34.8746736 18.9112273,34.8746736 C19.1578087,34.8746736 19.3577025,35.0745673 19.3577025,35.3211488 C19.3577025,35.5677302 19.1578087,35.767624 18.9112273,35.767624 Z" id="Shape" fill="#FF670B" fill-rule="nonzero"></path>
            <path d="M37.2167107,35.3211488 C37.2167107,34.8279859 36.8169232,34.4281984 36.3237603,34.4281984 C35.8305974,34.4281984 35.4308099,34.8279859 35.4308099,35.3211488 C35.4308099,35.8143117 35.8305974,36.2140992 36.3237603,36.2140992 C36.8169232,36.2140992 37.2167107,35.8143117 37.2167107,35.3211488 Z M35.8772851,35.3211488 C35.8772851,35.0745673 36.0771788,34.8746736 36.3237603,34.8746736 C36.5703417,34.8746736 36.7702355,35.0745673 36.7702355,35.3211488 C36.7702355,35.5677302 36.5703417,35.767624 36.3237603,35.767624 C36.0771788,35.767624 35.8772851,35.5677302 35.8772851,35.3211488 Z" id="Shape" fill="#FF670B" fill-rule="nonzero"></path>
        </g>
    </g>
</svg>