<?xml version="1.0" encoding="UTF-8"?>
<svg width="53px" height="53px" viewBox="0 0 53 53" version="1.1" xmlns="http://www.w3.org/2000/svg" xmlns:xlink="http://www.w3.org/1999/xlink">
    <title>Group 41</title>
    <g id="Page-1" stroke="none" stroke-width="1" fill="none" fill-rule="evenodd">
        <g id="Group-41">
            <circle id="Oval-Copy-10" fill="#FFFFFF" cx="26.5" cy="26.5" r="26.5"></circle>
            <g id="delivery-time" transform="translate(14.000000, 14.000000)" fill="#FF670B" fill-rule="nonzero">
                <path d="M12.496131,0 C5.60127335,0 0,5.60127335 0,12.496131 C0,19.3909886 5.60127335,24.9922619 12.496131,24.9922619 C16.4556637,24.9922619 19.9857609,23.1438744 22.2757117,20.2658889 L22.2757117,24.4489519 C22.2729407,24.644889 22.3758847,24.8271399 22.5451244,24.9259171 C22.7143642,25.0246943 22.9236793,25.0246943 23.0929191,24.9259171 C23.2621588,24.8271399 23.3651028,24.644889 23.3623318,24.4489519 L23.3623318,18.4725414 L22.5420608,18.4725414 L22.4879422,18.4725414 L17.3859213,18.4725414 C17.1899842,18.4697704 17.0077333,18.5727144 16.9089561,18.7419541 C16.8101789,18.9111939 16.8101789,19.120509 16.9089561,19.2897488 C17.0077333,19.4589885 17.1899842,19.5619325 17.3859213,19.5591615 L21.4501353,19.5591615 C19.3609582,22.2046951 16.1323345,23.9056418 12.496131,23.9056418 C6.18855456,23.9056418 1.08662008,18.8037074 1.08662008,12.496131 C1.08662008,6.18855456 6.18855456,1.08662008 12.496131,1.08662008 C18.8037074,1.08662008 23.9056418,6.18855456 23.9056418,12.496131 C23.9028708,12.6920681 24.0058148,12.874319 24.1750545,12.9730962 C24.3442943,13.0718734 24.5536095,13.0718734 24.7228492,12.9730962 C24.892089,12.874319 24.995033,12.6920681 24.9923165,12.496131 C24.9923165,5.60127335 19.3909886,0 12.496131,0 Z M12.4876417,3.79567585 C12.1879975,3.80042613 11.9487175,4.04682756 11.9528209,4.34648033 L11.9528209,10.9617044 C11.2078347,11.228589 10.7621839,11.9920259 10.8960963,12.7719613 C11.0300088,13.5518968 11.7047889,14.1229592 12.496131,14.1260611 C13.1864179,14.1255421 13.8015231,13.69025 14.0316186,13.039441 L18.4725414,13.039441 C18.6684785,13.042212 18.8507294,12.939268 18.9495066,12.7700283 C19.0482838,12.6007886 19.0482838,12.3914734 18.9495066,12.2222336 C18.8507294,12.0529939 18.6684785,11.9500499 18.4725414,11.9528209 L14.0326797,11.9528209 C13.8685638,11.4887477 13.5035142,11.1236981 13.039441,10.9595822 L13.039441,4.34648033 C13.041452,4.19962346 12.9839274,4.0582073 12.8799742,3.95445407 C12.7760211,3.85070085 12.6344945,3.7934485 12.4876417,3.79567585 Z" id="Shape"></path>
            </g>
        </g>
    </g>
</svg>