<?xml version="1.0" encoding="UTF-8"?>
<svg width="53px" height="53px" viewBox="0 0 53 53" version="1.1" xmlns="http://www.w3.org/2000/svg" xmlns:xlink="http://www.w3.org/1999/xlink">
    <title>Group 42</title>
    <g id="Page-1" stroke="none" stroke-width="1" fill="none" fill-rule="evenodd">
        <g id="Group-42">
            <circle id="Oval-Copy-11" fill="#FFFFFF" cx="26.5" cy="26.5" r="26.5"></circle>
            <path d="M26.4268201,13 C21.3908306,13 17.317072,17.0971246 17.317072,22.133114 L17.317072,25.5264398 C16.493902,26.0599088 16,26.9672271 16,27.995092 L16,30.7023352 C16,32.340224 17.3056394,33.6890062 18.943583,33.6890062 L20.0657953,33.6890062 C20.1529212,33.68824 20.2357496,33.651043 20.2942035,33.5864315 C21.3902952,35.9885271 23.7872685,37.53012 26.4276245,37.5310888 C29.0679804,37.5320575 31.4660843,35.9922238 32.5639383,33.5909331 C32.622059,33.6528154 32.7029517,33.6882471 32.7878449,33.6890062 L33.5609601,33.6890062 L33.5609601,36.3391208 C33.5645132,36.93079 33.3318022,37.4994133 32.9144589,37.9188292 C32.4971156,38.3382451 31.9296521,38.5737702 31.3379725,38.5731482 L28.8414521,38.5731482 L28.8414521,38.1520238 C28.8340052,37.9630468 28.6822118,37.8117206 28.4932128,37.8048562 L26.7206106,37.8048562 C26.1144962,37.8051061 25.6233256,38.2966231 25.6235031,38.9027375 C25.6236805,39.5088519 26.1151388,39.9999882 26.7212532,39.9999882 L28.4929982,39.9999882 C28.6786874,40.0015072 28.8324755,39.8561866 28.8414521,39.6707082 L28.8414521,39.2316842 L31.3379725,39.2316842 C32.1042465,39.2321122 32.8390973,38.9271443 33.379898,38.3842717 C33.9206986,37.8413992 34.2228543,37.1053875 34.2194961,36.3391208 L34.2194961,33.6541713 C35.7204641,33.4833932 36.8540879,32.2130943 36.8536403,30.7024422 L36.8536403,27.995199 C36.8536403,26.9673341 36.3597382,26.0600158 35.5365682,25.5265468 L35.5365682,22.133114 C35.5365682,17.0971246 31.4628095,13 26.4268201,13 Z M26.4268201,13.658536 C30.7727736,13.658536 34.3443436,16.9471302 34.8231541,21.1664254 C34.6439431,21.0434423 34.4334841,20.9738963 34.2162808,20.9658848 L34.0138107,20.9540948 C34.1255381,20.3443864 33.9873972,19.715361 33.6304747,19.2085733 C33.2735523,18.7017856 32.7278333,18.3598109 32.1161256,18.2596063 L32.021911,18.2441719 L31.1882368,17.3441511 C30.2638675,16.3499988 28.7872169,16.100213 27.5872966,16.7350267 L27.4656436,16.6707166 C26.5362298,16.1780637 25.4152603,16.2152703 24.5205598,16.768468 L24.4100536,16.7536767 C22.3468707,16.4806031 20.313074,17.4314206 19.1995372,19.1896381 C18.8706572,19.2847415 18.5711838,19.4615052 18.3289922,19.7034762 C19.3703571,16.2110404 22.5980369,13.658536 26.4268201,13.658536 Z M26.0851189,16.9844323 C26.4591617,16.9855569 26.827316,17.077669 27.1578121,17.2528307 L27.439598,17.4018159 C27.5427636,17.4562667 27.6670389,17.4520671 27.7662933,17.390776 C28.7161991,16.8073312 29.9457999,16.9749796 30.704839,17.7914282 L31.6154708,18.7745162 C31.6652716,18.8282709 31.7315808,18.8638773 31.8038994,18.8756975 L32.0096919,18.9094601 C32.5012524,18.9898781 32.9301345,19.2881519 33.1765907,19.7210007 C33.4230469,20.1538496 33.4606718,20.674898 33.2789602,21.1386648 C33.2405063,21.2368598 33.2514125,21.3475325 33.3082939,21.4363327 C33.3651752,21.5251329 33.4611487,21.5813153 33.5664265,21.5874423 L34.1776945,21.6231344 C34.3938589,21.6357564 34.5113192,21.7148081 34.6112521,21.9146738 C34.7004836,22.0998426 34.7353463,22.3065287 34.7117902,22.5107219 L34.6200413,23.4111711 C34.5668433,23.9558254 34.3963766,24.4825099 34.1203514,24.955044 C34.1065221,24.9785866 34.0929151,25.0010241 34.0790858,25.0239631 C34.0230554,25.0205058 33.9668483,25.0180675 33.9103788,25.0180675 L33.1695258,25.0180675 C33.0852252,24.2825577 33.0447454,23.5426849 33.0483008,22.8023683 C33.0483008,22.0977347 32.5805614,21.07674 31.7135438,20.5725209 C31.1476968,20.2432529 30.1995624,20.0067408 28.8967587,20.7480877 L28.8757509,20.7599852 C27.4156668,21.590893 25.7606577,22.5326226 22.7339164,20.690423 C22.578877,20.5998374 22.3798467,20.6501741 22.2865139,20.8035754 C22.1931811,20.9569768 22.2399646,21.156872 22.3916791,21.2529225 C22.618289,21.3908128 22.8414164,21.5162683 23.0611479,21.629244 C21.4020213,23.4443887 19.3145582,22.1689949 19.217973,22.1083547 C19.0645893,22.0123288 18.8625153,22.0573468 18.7643992,22.2094019 C18.6662831,22.361457 18.7085314,22.5641281 18.8592294,22.6643161 C19.1159042,22.8210046 19.3904287,22.946374 19.676933,23.0377438 L19.676933,25.0182821 L19.0150747,25.0182821 C18.2695022,22.8973023 18.11399,21.3324484 18.5664037,20.4843089 C18.7584767,20.1246385 19.0602975,19.8982909 19.490541,19.7927605 C19.575809,19.7717751 19.6491621,19.7175995 19.694297,19.6422746 C20.6534973,18.0404341 22.4729346,17.1618657 24.3238781,17.4067463 L24.5544299,17.4370793 C24.6343901,17.4475682 24.7154218,17.4283876 24.782195,17.3831659 C25.166407,17.1220125 25.6205568,16.9830328 26.0851189,16.9844323 Z M30.5195182,20.9159206 C30.8291717,20.912438 31.1173575,20.9875511 31.3823463,21.1416661 C32.0772116,21.5457877 32.3897648,22.3559933 32.3897648,22.8022612 C32.3859026,23.5900706 32.4306834,24.3773669 32.5238515,25.1596572 C32.484422,25.2168238 32.4633362,25.2846425 32.4634001,25.3540883 L32.4634001,31.5992475 L32.4615782,31.5992475 C32.0616273,34.605629 29.4689941,36.873002 26.4308931,36.873002 C23.36066,36.8720435 20.7717773,34.5846671 20.3925981,31.5379384 L20.39024,31.5378314 L20.39024,25.3540883 C20.3903408,25.2878933 20.3712813,25.2230838 20.335362,25.1674817 L20.335362,23.2029135 C20.39024,23.2145476 20.4813084,23.2248581 20.5538023,23.2329251 C20.692172,23.2484294 20.8312965,23.2562301 20.9705321,23.2562911 C21.7816838,23.2562911 22.7956465,22.980798 23.6808835,21.9188539 C24.6663278,22.3309876 25.5906061,22.4828861 26.4786968,22.3809228 C27.5801532,22.2547034 28.4414315,21.7644573 29.2010528,21.3322382 L29.2221682,21.3203407 C29.6877016,21.0554857 30.1213931,20.9206806 30.5195182,20.9159206 Z M17.975608,23.8807424 C18.0746809,24.2612302 18.196723,24.66302 18.3417474,25.0861294 C18.2167769,25.1118983 18.0942728,25.1484414 17.975608,25.1953493 L17.975608,23.8807424 Z M34.8780322,24.923746 L34.8780322,25.1954568 C34.84077,25.18053 34.8020031,25.166614 34.7623812,25.1533336 C34.8031736,25.0778214 34.8417397,25.0012337 34.8780322,24.923746 Z M18.9433689,25.6768181 L19.731704,25.6768181 L19.731704,33.0304702 L18.943583,33.0304702 C17.6687671,33.0304702 16.658536,31.9770963 16.658536,30.7023352 L16.658536,27.995092 C16.6522157,27.3841209 16.889835,26.7958607 17.3187299,26.3606885 C17.7476247,25.9255163 18.3323705,25.6793753 18.9433689,25.6768181 L18.9433689,25.6768181 Z M33.1219361,25.6768181 L33.9100572,25.6768181 C35.1848732,25.6768181 36.1951042,26.7203831 36.1951042,27.995199 L36.1951042,30.7024422 C36.1951042,31.9772033 35.1848732,33.0304702 33.9100572,33.0304702 L33.1219361,33.0304702 L33.1219361,25.6768181 Z M18.7342536,26.2549666 C18.5562236,26.2601845 18.4146138,26.4060206 18.414632,26.5841271 L18.414632,26.8200383 C18.414632,27.0018879 18.5620503,27.1493063 18.7439,27.1493063 C18.9257497,27.1493063 19.073168,27.0018879 19.073168,26.8200383 L19.073168,26.5841271 C19.0731772,26.4951211 19.0371527,26.4099027 18.9733039,26.3478915 C18.9094551,26.2858803 18.8232213,26.252359 18.7342536,26.2549666 L18.7342536,26.2549666 Z M29.3812288,26.6484375 C28.5887211,26.6493097 27.9464841,27.2915465 27.9456116,28.0840542 C27.9456116,28.2659039 28.0930299,28.4133222 28.2748796,28.4133222 C28.4567292,28.4133222 28.6041476,28.2659039 28.6041476,28.0840542 C28.6041476,27.6548842 28.9520586,27.3069732 29.3812285,27.3069732 C29.8103985,27.3069732 30.1583095,27.6548842 30.1583095,28.0840542 C30.1583095,28.2659039 30.3057278,28.4133222 30.4875775,28.4133222 C30.6694272,28.4133222 30.8168455,28.2659039 30.8168455,28.0840542 C30.815973,27.2915467 30.1737363,26.64931 29.3812288,26.6484375 L29.3812288,26.6484375 Z M23.4299665,26.658191 C22.6607406,26.685382 22.0498215,27.3143627 22.0450477,28.0840542 C22.0450477,28.2659039 22.192466,28.4133222 22.3743157,28.4133222 C22.5561654,28.4133222 22.7035837,28.2659039 22.7035837,28.0840542 C22.7035837,27.6548547 23.0515187,27.3069197 23.4807182,27.3069197 C23.9099178,27.3069197 24.2578527,27.6548547 24.2578527,28.0840542 C24.2578527,28.2659039 24.405271,28.4133222 24.5871207,28.4133222 C24.7689704,28.4133222 24.9163887,28.2659039 24.9163887,28.0840542 C24.9139829,27.6960359 24.7546163,27.3255148 24.4745957,27.0569027 C24.1945752,26.7882906 23.8177494,26.6444646 23.4299665,26.658191 L23.4299665,26.658191 Z M18.7342536,27.6434228 C18.5562651,27.6486395 18.4146716,27.7944114 18.414632,27.9724763 L18.414632,31.0456443 C18.414632,31.227494 18.5620503,31.3749123 18.7439,31.3749123 C18.9257497,31.3749123 19.073168,31.227494 19.073168,31.0456443 L19.073168,27.9724763 C19.0731482,27.8834888 19.0371111,27.7982984 18.9732655,27.7363104 C18.9094199,27.6743225 18.8232028,27.6408158 18.7342536,27.6434228 Z M28.2654477,31.8976466 C28.1812775,31.9006419 28.101455,31.9357775 28.0423982,31.9958267 C27.1517464,32.8842854 25.7100393,32.8842854 24.8193875,31.9958267 C24.6902808,31.8704402 24.4844201,31.8719448 24.35716,31.9992051 C24.2299,32.1264653 24.2283956,32.332326 24.3537822,32.4614325 C25.501747,33.6067376 27.3601463,33.6067376 28.5081111,32.4614325 C28.6049277,32.3661896 28.6333347,32.2212749 28.5796415,32.0965283 C28.5259484,31.9717817 28.4011723,31.8927996 28.2654477,31.8976466 Z M26.7209321,38.4633922 L28.1829161,38.4633922 L28.1829161,39.3414402 L26.7213607,39.3414402 C26.4840392,39.3411084 26.291768,39.1487412 26.2915523,38.9114195 C26.2911794,38.7947794 26.3362798,38.6825857 26.4172806,38.5986577 C26.4966464,38.5152148 26.6058172,38.4665832 26.7209321,38.4633922 L26.7209321,38.4633922 Z" id="Shape" fill="#FF670B" fill-rule="nonzero"></path>
        </g>
    </g>
</svg>