<?xml version="1.0" encoding="UTF-8"?>
<svg width="53px" height="53px" viewBox="0 0 53 53" version="1.1" xmlns="http://www.w3.org/2000/svg" xmlns:xlink="http://www.w3.org/1999/xlink">
    <title>Group 39</title>
    <g id="Page-1" stroke="none" stroke-width="1" fill="none" fill-rule="evenodd">
        <g id="Group-39">
            <circle id="Oval-Copy-6" fill="#FFFFFF" cx="26.5" cy="26.5" r="26.5"></circle>
            <g id="external-wifi-hotel-dreamstale-lineal-dreamstale" transform="translate(11.500000, 14.000000)" fill="#FF670B" fill-rule="nonzero">
                <path d="M29.3752522,6.4875 C29.5527522,6.4875 29.7277522,6.4125 29.8515022,6.26625 C30.0752522,6.00375 30.0427522,5.61 29.7790022,5.38625 C25.6877522,1.9125 20.4402522,0 15.0002522,0 C9.56025217,0 4.31275217,1.9125 0.220252174,5.3875 C-0.0422478261,5.61125 -0.0747478261,6.005 0.147752174,6.2675 C0.372752174,6.5325 0.766502174,6.56375 1.02900217,6.34 C4.89525217,3.0575 9.85650217,1.25 15.0002522,1.25 C20.1440022,1.25 25.1052522,3.0575 28.9702522,6.33875 C29.0890022,6.43875 29.2315022,6.4875 29.3752522,6.4875 Z" id="Path"></path>
                <path d="M3.64275217,9.20125 C3.38150217,9.42625 3.35150217,9.82 3.57650217,10.0825 C3.80275217,10.34625 4.19650217,10.3725 4.45775217,10.14875 C7.38150217,7.63375 11.1252522,6.25 15.0002522,6.25 C18.8752522,6.25 22.6190022,7.63375 25.5427522,10.14875 C25.6615022,10.25 25.8052522,10.3 25.9502522,10.3 C26.1265022,10.3 26.3002522,10.22625 26.4240022,10.0825 C26.6490022,9.82 26.6190022,9.42625 26.3577522,9.20125 C23.2065022,6.49125 19.1727522,5 15.0002522,5 C10.8277522,5 6.79400217,6.49125 3.64275217,9.20125 Z" id="Path"></path>
                <path d="M23.1852522,13.90875 C23.4115022,13.64875 23.3827522,13.25375 23.1227522,13.0275 C20.8702522,11.075 17.9865022,10 15.0002522,10 C12.0140022,10 9.13025217,11.075 6.87775217,13.0275 C6.61775217,13.25375 6.58900217,13.64875 6.81525217,13.90875 C7.04275217,14.17125 7.43650217,14.19625 7.69775217,13.9725 C9.72150217,12.21625 12.3152522,11.25 15.0002522,11.25 C17.6852522,11.25 20.2790022,12.21625 22.3027522,13.9725 C22.4215022,14.075 22.5665022,14.125 22.7127522,14.125 C22.8877522,14.125 23.0615022,14.05125 23.1852522,13.90875 Z" id="Path"></path>
                <path d="M19.4877522,17.925 C19.6627522,17.925 19.8365022,17.85125 19.9602522,17.70875 C20.1852522,17.4475 20.1577522,17.05375 19.8965022,16.8275 C18.5340022,15.65 16.7952522,15 15.0002522,15 C13.2052522,15 11.4665022,15.65 10.1040022,16.8275 C9.84275217,17.05375 9.81525217,17.4475 10.0402522,17.70875 C10.2677522,17.97 10.6615022,17.99875 10.9227522,17.7725 C13.1927522,15.81 16.8090022,15.81 19.0790022,17.7725 C19.1965022,17.875 19.3427522,17.925 19.4877522,17.925 Z" id="Path"></path>
                <path d="M13.2327522,20.7325 C12.7602522,21.205 12.5002522,21.8325 12.5002522,22.5 C12.5002522,23.1675 12.7602522,23.795 13.2327522,24.2675 C13.7052522,24.74 14.3327522,25 15.0002522,25 C15.6677522,25 16.2952522,24.74 16.7677522,24.2675 C17.2402522,23.795 17.5002522,23.1675 17.5002522,22.5 C17.5002522,21.8325 17.2402522,21.205 16.7677522,20.7325 C15.8227522,19.7875 14.1777522,19.7875 13.2327522,20.7325 Z M16.2502522,22.5 C16.2502522,22.83375 16.1202522,23.1475 15.8840022,23.38375 C15.4115022,23.855 14.5890022,23.855 14.1165022,23.38375 C13.8802522,23.1475 13.7502522,22.83375 13.7502522,22.5 C13.7502522,22.16625 13.8802522,21.8525 14.1165022,21.61625 C14.3527522,21.38 14.6665022,21.25 15.0002522,21.25 C15.3340022,21.25 15.6477522,21.38 15.8840022,21.61625 C16.1202522,21.8525 16.2502522,22.16625 16.2502522,22.5 Z" id="Shape"></path>
            </g>
        </g>
    </g>
</svg>