<?xml version="1.0" encoding="UTF-8"?>
<svg width="348px" height="70px" viewBox="0 0 348 70" version="1.1" xmlns="http://www.w3.org/2000/svg" xmlns:xlink="http://www.w3.org/1999/xlink">
    <title>bnetplay_premiumHD</title>
    <g id="Page-1" stroke="none" stroke-width="1" fill="none" fill-rule="evenodd">
        <g id="bnetplay_premiumHD">
            <rect id="Rectangle-Copy-10" x="0" y="0" width="347.666667" height="70"></rect>
            <g id="Group-63" transform="translate(6.717448, 7.630046)" fill-rule="nonzero">
                <g id="BnetPlay-Copy-2" fill="#FF670B">
                    <path d="M3.17142286,30.7691025 L13.4207894,30.7691025 C19.889652,30.7691025 23.9011868,27.4296573 23.9011868,22.094946 C23.9011868,18.0834111 20.8767836,15.0800107 16.7602347,14.7649687 L16.7602347,14.5969463 C19.9736632,14.1138819 22.4519936,11.3415122 22.4519936,8.02306974 C22.4519936,3.38145086 18.8815175,0.462061608 13.1897586,0.462061608 L3.17142286,0.462061608 C1.17615682,0.462061608 0,1.68022403 0,3.75950127 L0,27.4506601 C0,29.5509401 1.17615682,30.7691025 3.17142286,30.7691025 Z M6.34284571,13.0637418 L6.34284571,5.18769169 L11.5515402,5.18769169 C14.5129351,5.18769169 16.2141619,6.57387652 16.2141619,9.01020136 C16.2141619,11.572543 14.2819043,13.0637418 10.9004534,13.0637418 L6.34284571,13.0637418 Z M6.34284571,26.0434725 L6.34284571,17.2432991 L11.6565542,17.2432991 C15.3950527,17.2432991 17.4323243,18.7555007 17.4323243,21.5908788 C17.4323243,24.4892652 15.4580611,26.0434725 11.8035738,26.0434725 L6.34284571,26.0434725 Z" id="Shape"></path>
                    <path d="M29.105166,31.2101614 C30.9114068,31.2101614 32.1715748,30.1180157 32.1715748,28.0177357 L32.1715748,17.8523803 C32.1715748,14.9329911 33.9148073,12.9167222 36.6661741,12.9167222 C39.417541,12.9167222 40.8037258,14.5969463 40.8037258,17.5373383 L40.8037258,28.0177357 C40.8037258,30.1180157 42.0638938,31.2101614 43.8701347,31.2101614 C45.6553727,31.2101614 46.9365435,30.1180157 46.9365435,28.0177357 L46.9365435,16.2561675 C46.9365435,10.9844646 44.1221683,7.83404454 39.1235018,7.83404454 C35.6580397,7.83404454 33.3897373,9.36724897 32.1925776,12.1606214 L32.0665608,12.1606214 L32.0665608,10.9004534 C32.0665608,8.96819576 30.8483984,7.79203894 29.000152,7.79203894 C27.1519056,7.79203894 26.0387571,8.96819576 26.0387571,10.8794506 L26.0387571,28.0177357 C26.0387571,30.1180157 27.319928,31.2101614 29.105166,31.2101614 Z" id="Path"></path>
                    <path d="M60.2266008,31.252167 C64.5741805,31.252167 68.0606454,29.6139485 69.5518442,26.8415789 C69.8248806,26.3375117 69.9719002,25.8334445 69.9719002,25.3503801 C69.9719002,23.9431924 68.9007574,23.1030804 67.5775809,23.1030804 C66.7794745,23.1030804 66.2334017,23.3341112 65.5823149,24.0062008 C63.9230937,25.9594613 62.4528977,26.7155621 60.205598,26.7155621 C57.0971836,26.7155621 55.0809147,24.5312708 55.0809147,21.1918256 L55.0809147,20.9187892 L67.9346286,20.9187892 C69.6358554,20.9187892 70.6019842,19.9526604 70.6019842,18.2514335 C70.6019842,12.1396186 66.3174129,7.77103614 59.9325616,7.77103614 C53.2746739,7.77103614 49.053111,12.3706494 49.053111,19.6166155 C49.053111,26.9045873 53.1906627,31.252167 60.2266008,31.252167 Z M55.1439231,17.1592879 C55.3539511,14.2819043 57.3072116,12.307641 59.99557,12.307641 C62.6839285,12.307641 64.5741805,14.2188959 64.7001973,17.1592879 L55.1439231,17.1592879 Z" id="Shape"></path>
                    <path d="M74.4407813,25.0143352 C74.4407813,28.9838645 76.5200586,31.0211362 80.6156047,31.0211362 L80.8256327,31.0211362 C83.4089771,31.0211362 85.1732123,30.0970129 85.1732123,28.2907721 C85.1732123,26.8625817 84.3541031,26.2324977 82.8419015,26.0644753 L82.4428483,26.0224697 C81.1196719,25.9174557 80.5735991,25.245366 80.5735991,23.6491532 L80.5735991,12.8747166 L82.7368875,12.8747166 C84.1860807,12.8747166 85.0892011,11.9715962 85.0892011,10.5644086 C85.0892011,9.15722096 84.1860807,8.25410055 82.7368875,8.25410055 L80.5735991,8.25410055 L80.5735991,5.7547673 C80.5735991,3.78050407 79.418445,2.56234165 77.5071902,2.56234165 C75.5959354,2.56234165 74.4407813,3.78050407 74.4407813,5.7547673 L74.4407813,8.25410055 L73.2646245,8.25410055 C71.8154313,8.25410055 70.8913081,9.13621816 70.8913081,10.5644086 C70.8913081,11.992599 71.8154313,12.8747166 73.2646245,12.8747166 L74.4407813,12.8747166 L74.4407813,25.0143352 Z" id="Path"></path>
                    <path d="M90.8392531,31.1681558 C92.8345191,31.1681558 94.010676,29.9499933 94.010676,27.8707161 L94.010676,21.2128284 L99.6814321,21.2128284 C106.066283,21.2128284 110.497874,17.0542739 110.497874,10.837445 C110.497874,4.59961328 106.213303,0.462061608 99.9964741,0.462061608 L90.8392531,0.462061608 C88.8439871,0.462061608 87.6678303,1.68022403 87.6678303,3.75950127 L87.6678303,27.8707161 C87.6678303,29.9499933 88.8439871,31.1681558 90.8392531,31.1681558 Z M94.010676,16.2561675 L94.010676,5.4817309 L98.31625,5.4817309 C101.949735,5.4817309 104.050015,7.41398853 104.050015,10.8584478 C104.050015,14.3239099 101.928732,16.2561675 98.2952472,16.2561675 L94.010676,16.2561675 Z" id="Shape"></path>
                    <path d="M115.97489,31.2101614 C117.781131,31.2101614 119.041299,30.1180157 119.041299,28.0177357 L119.041299,3.21342846 C119.041299,1.11314842 117.781131,0 115.97489,0 C114.189652,0 112.908481,1.11314842 112.908481,3.21342846 L112.908481,28.0177357 C112.908481,30.1180157 114.189652,31.2101614 115.97489,31.2101614 Z" id="Path"></path>
                    <path d="M128.886897,31.1261502 C131.701272,31.1261502 134.515647,29.7189625 135.775815,27.3246433 L135.901832,27.3246433 L135.901832,28.4797973 C136.027849,30.2860381 137.183003,31.2101614 138.842224,31.2101614 C140.585457,31.2101614 141.824622,30.1600213 141.824622,28.1227497 L141.824622,15.2900387 C141.824622,10.7534338 138.06512,7.77103614 132.28935,7.77103614 C127.626729,7.77103614 124.014247,9.43025737 122.964107,12.1186158 C122.754079,12.5806774 122.649065,13.0217362 122.649065,13.5048006 C122.649065,14.8909855 123.720208,15.8571143 125.211407,15.8571143 C126.198538,15.8571143 126.975642,15.4790639 127.647732,14.7229631 C129.012914,12.9587278 130.147065,12.3496466 132.016314,12.3496466 C134.326622,12.3496466 135.796818,13.567809 135.796818,15.6680891 L135.796818,17.1592879 L130.126062,17.4953327 C124.497311,17.8313775 121.346891,20.204694 121.346891,24.30024 C121.346891,28.3537805 124.602325,31.1261502 128.886897,31.1261502 Z M130.903166,26.6945593 C128.844891,26.6945593 127.458706,25.6444193 127.458706,23.9641952 C127.458706,22.3679824 128.76088,21.3388452 131.050185,21.1708228 L135.796818,20.8767836 L135.796818,22.515002 C135.796818,24.9513268 133.591524,26.6945593 130.903166,26.6945593 Z" id="Shape"></path>
                    <path d="M148.540803,39.1072143 C153.476461,39.1072143 156.080808,36.9649287 158.181088,31.147153 L165.091009,12.3706494 C165.301037,11.782571 165.427054,11.0684758 165.427054,10.5644086 C165.427054,8.94719296 164.208892,7.79203894 162.444656,7.79203894 C160.869446,7.79203894 159.987329,8.52713695 159.483262,10.2283638 L154.589609,25.8544473 L154.484595,25.8544473 L149.590943,10.2703694 C149.086875,8.48513135 148.246763,7.79203894 146.629548,7.79203894 C144.823307,7.79203894 143.458125,8.98919856 143.458125,10.6484198 C143.458125,11.152487 143.584142,11.8245766 143.815172,12.4546606 L150.99813,31.3991866 L150.683088,32.197293 C149.94799,33.772503 148.792836,34.2345646 147.721693,34.2345646 C147.301637,34.2345646 147.070607,34.2135618 146.650551,34.2135618 C145.264366,34.2135618 144.403251,34.9906654 144.403251,36.2298306 C144.403251,38.0780771 145.852444,39.1072143 148.540803,39.1072143 Z" id="Path"></path>
                </g>
                <g id="Premium-HD" transform="translate(0.403254, 35.932991)" fill="#474747">
                    <path d="M1.25456728,16.522203 C2.02747033,16.522203 2.50913455,16.0293372 2.50913455,15.2228297 L2.50913455,10.8206428 L5.98159755,10.8206428 C9.15162022,10.8206428 11.3807174,8.64755301 11.3807174,5.48873183 C11.3807174,2.34111215 9.19642619,0.179223897 6.060008,0.179223897 L1.25456728,0.179223897 C0.470462728,0.179223897 0,0.672089612 0,1.47859715 L0,15.2228297 C0,16.0293372 0.470462728,16.522203 1.25456728,16.522203 Z M2.50913455,8.71476197 L2.50913455,2.29630617 L5.39911988,2.29630617 C7.57220963,2.29630617 8.81557541,3.4612615 8.81557541,5.49993332 C8.81557541,7.53860515 7.57220963,8.71476197 5.38791839,8.71476197 L2.50913455,8.71476197 Z" id="Shape"></path>
                    <path d="M14.1315304,16.5558074 C14.848426,16.5558074 15.3412917,16.0629417 15.3412917,15.2788372 L15.3412917,9.26363515 C15.3412917,7.7962395 16.0133813,6.68729164 17.6712023,6.67609015 C18.1752696,6.67609015 18.5337173,6.5752767 18.7801502,6.36244833 C19.0153816,6.17202294 19.138598,5.8919856 19.138598,5.51113482 C19.138598,5.13028404 19.0377846,4.83904521 18.8137547,4.65982131 C18.6121278,4.46939592 18.2872845,4.36858248 17.8616277,4.36858248 C16.6854709,4.36858248 15.598926,5.25350047 15.2740827,6.5752767 L15.2180753,6.5752767 L15.2180753,5.56714229 C15.2180753,4.82784371 14.7476125,4.34617949 14.0755229,4.34617949 C13.3922318,4.34617949 12.9217691,4.82784371 12.9217691,5.56714229 L12.9217691,15.2788372 C12.9217691,16.0629417 13.4034333,16.5558074 14.1315304,16.5558074 Z" id="Path"></path>
                    <path d="M24.6897843,16.5670089 C26.8852771,16.5670089 28.5991056,15.6820909 29.3720086,14.1362848 C29.4728221,13.9010535 29.540031,13.6770236 29.540031,13.4865982 C29.540031,12.8817176 29.1143743,12.5008668 28.5318966,12.5008668 C28.1846503,12.5008668 27.9382175,12.6240832 27.6805831,12.9265235 C26.7844636,14.1474863 25.9555531,14.6067476 24.6337769,14.6067476 C22.70712,14.6067476 21.4973587,13.2625683 21.4973587,11.1118816 L21.4973587,11.0558741 L28.6215086,11.0558741 C29.3720086,11.0558741 29.8200684,10.6078144 29.8200684,9.82370983 C29.8200684,6.60888118 27.6581801,4.34617949 24.5217619,4.34617949 C21.1837169,4.34617949 19.0554331,6.76570209 19.0554331,10.5070009 C19.0554331,14.3155087 21.1389109,16.5670089 24.6897843,16.5670089 Z M21.5085602,9.36444859 C21.6317766,7.52740365 22.8415379,6.29523937 24.5105604,6.29523937 C26.1907845,6.29523937 27.3445383,7.51620216 27.4005458,9.36444859 L21.5085602,9.36444859 Z" id="Shape"></path>
                    <path d="M32.5372769,16.5558074 C33.2653739,16.5558074 33.7470382,16.0517402 33.7470382,15.2788372 L33.7470382,9.06200827 C33.7470382,7.54980664 34.7663741,6.42965729 36.2001652,6.42965729 C37.5667474,6.42965729 38.4292624,7.29217229 38.4292624,8.64755301 L38.4292624,15.2788372 C38.4292624,16.0517402 38.8885237,16.5558074 39.6166208,16.5558074 C40.3447178,16.5558074 40.8039791,16.0517402 40.8039791,15.2788372 L40.8039791,8.98359781 C40.8039791,7.49379917 41.800912,6.42965729 43.2347032,6.42965729 C44.6684943,6.42965729 45.4862034,7.30337378 45.4862034,8.8267769 L45.4862034,15.2788372 C45.4862034,16.0517402 45.9678676,16.5558074 46.6959647,16.5558074 C47.4240618,16.5558074 47.9169275,16.0517402 47.9169275,15.2788372 L47.9169275,8.24429924 C47.9169275,5.90318709 46.3935244,4.35738098 44.0636137,4.35738098 C42.3833897,4.35738098 40.9944045,5.23109748 40.3895238,6.66488865 L40.3335163,6.66488865 C39.8630536,5.197493 38.6756953,4.35738098 37.0402773,4.35738098 C35.4496652,4.35738098 34.2175009,5.23109748 33.6910307,6.54167222 L33.6350232,6.54167222 L33.6350232,5.57834378 C33.6350232,4.80544073 33.153359,4.34617949 32.4812694,4.34617949 C31.7979783,4.34617949 31.3275155,4.81664222 31.3275155,5.57834378 L31.3275155,15.2788372 C31.3275155,16.0517402 31.8091798,16.5558074 32.5372769,16.5558074 Z" id="Path"></path>
                    <path d="M51.1718076,2.7779704 C51.9559122,2.7779704 52.5831958,2.15068676 52.5831958,1.3889852 C52.5831958,0.616082144 51.9559122,0.0112014935 51.1718076,0.0112014935 C50.3989046,0.0112014935 49.7716209,0.616082144 49.7716209,1.3889852 C49.7716209,2.15068676 50.3989046,2.7779704 51.1718076,2.7779704 Z M51.1718076,16.5558074 C51.8999047,16.5558074 52.3815689,16.0517402 52.3815689,15.2788372 L52.3815689,5.63435125 C52.3815689,4.8502467 51.8999047,4.34617949 51.1718076,4.34617949 C50.4437106,4.34617949 49.9620463,4.8502467 49.9620463,5.63435125 L49.9620463,15.2788372 C49.9620463,16.0517402 50.4437106,16.5558074 51.1718076,16.5558074 Z" id="Shape"></path>
                    <path d="M58.5712404,16.5558074 C60.3746809,16.5558074 61.5732407,15.7605014 62.2229273,14.3491132 L62.2789348,14.3491132 L62.2789348,15.3348446 C62.2789348,16.0741432 62.7493975,16.5558074 63.4438901,16.5558074 C64.1383827,16.5558074 64.5976439,16.0741432 64.5976439,15.3236432 L64.5976439,5.63435125 C64.5976439,4.82784371 64.1047782,4.34617949 63.3878826,4.34617949 C62.6821885,4.34617949 62.1781213,4.82784371 62.1781213,5.63435125 L62.1781213,11.4255234 C62.1781213,13.2625683 61.1251809,14.4723296 59.3777479,14.4723296 C57.7087254,14.4723296 56.8574119,13.5090012 56.8574119,11.7167622 L56.8574119,5.63435125 C56.8574119,4.82784371 56.3533447,4.34617949 55.6476506,4.34617949 C54.930755,4.34617949 54.4378893,4.82784371 54.4378893,5.63435125 L54.4378893,12.187225 C54.4378893,14.8867849 56.0060984,16.5558074 58.5712404,16.5558074 Z" id="Path"></path>
                    <path d="M67.8301211,16.5558074 C68.5582182,16.5558074 69.0398824,16.0517402 69.0398824,15.2788372 L69.0398824,9.06200827 C69.0398824,7.54980664 70.0592183,6.42965729 71.4930095,6.42965729 C72.8595917,6.42965729 73.7221067,7.29217229 73.7221067,8.64755301 L73.7221067,15.2788372 C73.7221067,16.0517402 74.1813679,16.5558074 74.909465,16.5558074 C75.6375621,16.5558074 76.0968233,16.0517402 76.0968233,15.2788372 L76.0968233,8.98359781 C76.0968233,7.49379917 77.0937563,6.42965729 78.5275474,6.42965729 C79.9613386,6.42965729 80.7790476,7.30337378 80.7790476,8.8267769 L80.7790476,15.2788372 C80.7790476,16.0517402 81.2607119,16.5558074 81.9888089,16.5558074 C82.716906,16.5558074 83.2097717,16.0517402 83.2097717,15.2788372 L83.2097717,8.24429924 C83.2097717,5.90318709 81.6863686,4.35738098 79.356458,4.35738098 C77.6762339,4.35738098 76.2872487,5.23109748 75.6823681,6.66488865 L75.6263606,6.66488865 C75.1558979,5.197493 73.9685396,4.35738098 72.3331215,4.35738098 C70.7425094,4.35738098 69.5103451,5.23109748 68.9838749,6.54167222 L68.9278675,6.54167222 L68.9278675,5.57834378 C68.9278675,4.80544073 68.4462033,4.34617949 67.7741136,4.34617949 C67.0908225,4.34617949 66.6203598,4.81664222 66.6203598,5.57834378 L66.6203598,15.2788372 C66.6203598,16.0517402 67.102024,16.5558074 67.8301211,16.5558074 Z" id="Path"></path>
                    <path d="M91.0077038,16.522203 C91.7806069,16.522203 92.2622711,16.0293372 92.2622711,15.2228297 L92.2622711,9.1852247 L100.562578,9.1852247 L100.562578,15.2228297 C100.562578,16.0293372 101.033041,16.522203 101.817145,16.522203 C102.590048,16.522203 103.071712,16.0293372 103.071712,15.2228297 L103.071712,1.29937325 C103.071712,0.492865715 102.590048,0 101.817145,0 C101.033041,0 100.562578,0.492865715 100.562578,1.29937325 L100.562578,7.01213495 L92.2622711,7.01213495 L92.2622711,1.29937325 C92.2622711,0.492865715 91.7806069,0 91.0077038,0 C90.2235993,0 89.7531365,0.492865715 89.7531365,1.29937325 L89.7531365,15.2228297 C89.7531365,16.0293372 90.2235993,16.522203 91.0077038,16.522203 Z" id="Path"></path>
                    <path d="M106.931473,16.3429791 L111.378466,16.3429791 C116.195108,16.3429791 119.029086,13.3409788 119.029086,8.23309775 C119.029086,3.13641819 116.183907,0.179223897 111.378466,0.179223897 L106.931473,0.179223897 C106.147369,0.179223897 105.676906,0.672089612 105.676906,1.47859715 L105.676906,15.0436058 C105.676906,15.8501133 106.147369,16.3429791 106.931473,16.3429791 Z M108.18604,14.1698893 L108.18604,2.34111215 L111.143235,2.34111215 C114.55969,2.34111215 116.463944,4.44699293 116.463944,8.25550073 C116.463944,12.07521 114.570892,14.1698893 111.143235,14.1698893 L108.18604,14.1698893 Z" id="Shape"></path>
                </g>
            </g>
            <g id="canais-copy-2" transform="translate(185.196289, 10.891602)" fill-rule="nonzero">
                <path d="M91.9052739,24.3020833 C94.1810715,24.3020833 95.8370773,22.8203939 96.1082362,20.9029134 L96.1179204,20.8351237 L94.4619145,20.8351237 L94.4425461,20.9125976 C94.161703,22.03597 93.2804367,22.8107096 91.9052739,22.8107096 C90.1621099,22.8107096 88.9612635,21.4258626 88.9612635,19.0822754 L88.9612635,19.0725912 C88.9612635,16.7871094 90.1330571,15.3344727 91.8859054,15.3344727 C93.3675949,15.3344727 94.1810715,16.2254232 94.4328618,17.2325847 L94.4522303,17.3100586 L96.0985519,17.3100586 L96.0888677,17.2325847 C95.8758143,15.5087891 94.3941248,13.843099 91.8859054,13.843099 C89.0871587,13.843099 87.2374679,15.8767904 87.2374679,19.0532227 L87.2374679,19.0629069 C87.2374679,22.2683919 89.0484217,24.3020833 91.9052739,24.3020833 Z" id="Path" fill="#474747"></path>
                <g id="135" fill="#FF670B">
                    <path d="M14.2578125,36.6699219 C16.9189453,36.6699219 18.7011719,34.9365234 18.7011719,32.2509766 L18.7011719,5.32226563 C18.7011719,2.24609375 16.8212891,0.317382812 13.5986328,0.317382812 C11.8408203,0.317382812 10.3271484,0.512695312 8.44726562,1.78222656 L1.78222656,6.32324219 C0.512695312,7.20214844 0,8.203125 0,9.49707031 C0,11.3037109 1.29394531,12.5976562 3.02734375,12.5976562 C3.88183594,12.5976562 4.41894531,12.4023438 5.22460938,11.8408203 L9.61914062,8.7890625 L9.79003906,8.7890625 L9.79003906,32.2509766 C9.79003906,34.9365234 11.5966797,36.6699219 14.2578125,36.6699219 Z" id="Path"></path>
                    <path d="M37.9713728,36.9873047 C46.8092635,36.9873047 52.49774,32.7392578 52.49774,26.1474609 C52.49774,21.3867188 49.1285994,18.3837891 43.8063338,17.8466797 L43.8063338,17.6757812 C47.8346541,16.8701172 51.1061385,13.9892578 51.1061385,9.47265625 C51.1061385,3.49121094 45.5885603,0 37.9225447,0 C30.988951,0 26.8385603,3.3203125 25.4469588,6.73828125 C25.129576,7.49511719 25.0075056,8.10546875 25.0075056,8.86230469 C25.0075056,10.9130859 26.2526228,12.3779297 28.6940291,12.3779297 C30.6715681,12.3779297 31.7457869,11.6699219 32.7467635,9.79003906 C33.8209822,7.69042969 35.4567244,6.66503906 37.9713728,6.66503906 C41.0231306,6.66503906 42.7809431,8.25195312 42.7809431,10.7421875 C42.7809431,13.3056641 40.6813338,14.9902344 37.238951,14.9902344 L36.4332869,14.9902344 C34.3092635,14.9902344 33.1862166,16.2353516 33.1862166,18.0175781 C33.1862166,19.8486328 34.3092635,21.0693359 36.4332869,21.0693359 L37.2877791,21.0693359 C41.1940291,21.0693359 43.3912947,22.65625 43.3912947,25.6103516 C43.3912947,28.1494141 41.2428572,29.9560547 38.1666853,29.9560547 C34.8219588,29.9560547 33.2350447,28.6621094 31.9410994,26.4648438 C31.0621931,25.0488281 29.9635603,24.4384766 28.254576,24.4384766 C25.8131697,24.4384766 24.3239119,25.8544922 24.3239119,28.1005859 C24.3239119,28.7353516 24.4703963,29.4677734 24.763365,30.1513672 C26.1793806,33.5693359 30.4762556,36.9873047 37.9713728,36.9873047 Z" id="Path"></path>
                    <path d="M69.1800504,36.9873047 C77.5540738,36.9873047 83.3646207,31.8847656 83.3646207,24.1455078 C83.3646207,17.4560547 78.5794644,12.7685547 71.9144254,12.7685547 C68.2279019,12.7685547 65.3714566,14.3066406 64.0042691,16.6259766 L63.8333707,16.6259766 L64.5169644,7.76367188 L77.9935269,7.76367188 C80.1419644,7.76367188 81.5091519,6.42089844 81.5091519,4.32128906 C81.5091519,2.22167969 80.1175504,0.87890625 77.9935269,0.87890625 L62.1488004,0.87890625 C59.1458707,0.87890625 57.3880582,2.22167969 57.1439175,5.44433594 L56.2161832,17.8222656 C56.2161832,17.8710938 56.2161832,17.8955078 56.2161832,17.9443359 C56.0696988,20.3125 57.4124722,22.3632812 60.3665738,22.3632812 C62.3196988,22.3632812 63.2230191,21.9238281 64.5902066,20.7275391 C65.7132535,19.7265625 67.2513394,18.8476562 69.1800504,18.8476562 C72.549191,18.8476562 74.917355,21.1181641 74.917355,24.3408203 C74.917355,27.6367188 72.4515347,30.078125 69.1068082,30.078125 C66.2747769,30.078125 64.5657925,28.7353516 63.198605,26.6845703 C62.1243863,25.3417969 61.0501675,24.7802734 59.3655972,24.7802734 C57.0950894,24.7802734 55.752316,26.0986328 55.752316,28.2958984 C55.752316,29.1503906 55.9720425,29.9804688 56.3626675,30.7617188 C58.1693082,34.3505859 63.3450894,36.9873047 69.1800504,36.9873047 Z" id="Path"></path>
                </g>
                <path d="M100.173445,24.3020833 C101.519555,24.3020833 102.730085,23.575765 103.320824,22.4717611 L103.359561,22.4717611 L103.359561,24.1083984 L105.04462,24.1083984 L105.04462,17.1454265 C105.04462,15.1311035 103.553246,13.843099 101.170922,13.843099 C98.798282,13.843099 97.3553295,15.1795248 97.2100659,16.8355306 L97.2003816,16.9420573 L98.8273347,16.9420573 L98.8467032,16.8548991 C99.0403881,15.9542644 99.8538647,15.3344727 101.151554,15.3344727 C102.555769,15.3344727 103.359561,16.0801595 103.359561,17.3100586 L103.359561,18.1525879 L100.473656,18.3172201 C98.1591218,18.4527995 96.8226961,19.5277507 96.8226961,21.241862 L96.8226961,21.2612305 C96.8226961,23.0915527 98.1688061,24.3020833 100.173445,24.3020833 Z M98.5464916,21.2612305 L98.5464916,21.241862 C98.5464916,20.3024902 99.3212312,19.7020671 100.667341,19.6245931 L103.359561,19.459961 L103.359561,20.2831217 C103.359561,21.7454427 102.139346,22.8397624 100.55113,22.8397624 C99.3405997,22.8397624 98.5464916,22.2296549 98.5464916,21.2612305 Z" id="Shape" fill="#474747"></path>
                <path d="M106.746873,24.1083984 L108.431931,24.1083984 L108.431931,18.1816407 C108.431931,16.4675293 109.468146,15.3344727 111.056362,15.3344727 C112.605841,15.3344727 113.370896,16.2351075 113.370896,17.8717448 L113.370896,24.1083984 L115.055955,24.1083984 L115.055955,17.5715332 C115.055955,15.2763672 113.777635,13.843099 111.569627,13.843099 C110.039516,13.843099 109.012986,14.5306804 108.470668,15.4700521 L108.431931,15.4700521 L108.431931,14.0367839 L106.746873,14.0367839 L106.746873,24.1083984 Z" id="Path" fill="#474747"></path>
                <path d="M119.702218,24.3020833 C121.048328,24.3020833 122.258859,23.575765 122.849598,22.4717611 L122.888335,22.4717611 L122.888335,24.1083984 L124.573393,24.1083984 L124.573393,17.1454265 C124.573393,15.1311035 123.08202,13.843099 120.699695,13.843099 C118.327055,13.843099 116.884103,15.1795248 116.738839,16.8355306 L116.729155,16.9420573 L118.356108,16.9420573 L118.375477,16.8548991 C118.569161,15.9542644 119.382638,15.3344727 120.680327,15.3344727 C122.084542,15.3344727 122.888335,16.0801595 122.888335,17.3100586 L122.888335,18.1525879 L120.00243,18.3172201 C117.687895,18.4527995 116.351469,19.5277507 116.351469,21.241862 L116.351469,21.2612305 C116.351469,23.0915527 117.697579,24.3020833 119.702218,24.3020833 Z M118.075265,21.2612305 L118.075265,21.241862 C118.075265,20.3024902 118.850005,19.7020671 120.196115,19.6245931 L122.888335,19.459961 L122.888335,20.2831217 C122.888335,21.7454427 121.66812,22.8397624 120.079904,22.8397624 C118.869373,22.8397624 118.075265,22.2296549 118.075265,21.2612305 Z" id="Shape" fill="#474747"></path>
                <path d="M127.224702,12.3323568 C127.815441,12.3323568 128.280285,11.8578288 128.280285,11.2767741 C128.280285,10.6860352 127.815441,10.2211914 127.224702,10.2211914 C126.643647,10.2211914 126.169119,10.6860352 126.169119,11.2767741 C126.169119,11.8578288 126.643647,12.3323568 127.224702,12.3323568 Z M126.382173,24.1083984 L128.067231,24.1083984 L128.067231,14.0367839 L126.382173,14.0367839 L126.382173,24.1083984 Z" id="Shape" fill="#474747"></path>
                <path d="M133.497919,24.3020833 C135.744663,24.3020833 137.410353,23.0625 137.410353,21.2999674 L137.410353,21.2902832 C137.410353,19.857015 136.674351,19.0532227 134.640659,18.5593262 L133.042759,18.1719564 C131.929071,17.9007976 131.473911,17.4262696 131.473911,16.7386882 L131.473911,16.7290039 C131.473911,15.8380534 132.229282,15.2473145 133.449497,15.2473145 C134.698765,15.2473145 135.444452,15.8961589 135.580031,16.8742676 L135.589715,16.9420573 L137.1973,16.9420573 L137.187616,16.8161621 C137.061721,15.1311035 135.657505,13.843099 133.449497,13.843099 C131.270542,13.843099 129.750116,15.0729981 129.750116,16.8064779 L129.750116,16.8161621 C129.750116,18.2687989 130.670119,19.1500651 132.568231,19.6052246 L134.166131,19.9925944 C135.308872,20.2734375 135.686558,20.6801758 135.686558,21.4064941 L135.686558,21.4161784 C135.686558,22.3264974 134.873081,22.8978678 133.507603,22.8978678 C132.13244,22.8978678 131.386753,22.3071289 131.183384,21.2999674 L131.164016,21.203125 L129.478957,21.203125 L129.488641,21.2902832 C129.69201,23.0915527 131.125279,24.3020833 133.497919,24.3020833 Z" id="Path" fill="#474747"></path>
            </g>
            <g id="tv-show-copy-2" transform="translate(329.000000, 25.666667)" fill="#474747" fill-rule="nonzero">
                <path d="M0,0 L0,8.29530849 L12.9614195,8.29530849 L12.9614195,0 L0,0 Z M0.51845678,0.51845678 L12.4429627,0.51845678 L12.4429627,7.77685171 L0.51845678,7.77685171 L0.51845678,0.51845678 Z M5.34658555,2.48697237 C5.31823244,2.48697237 5.29089188,2.49709861 5.26557668,2.51127503 C5.21393345,2.54064068 5.1845678,2.5983597 5.1845678,2.657091 L5.1845678,5.95415209 C5.1845678,6.01288365 5.21494626,6.07060241 5.26557668,6.09996806 C5.29089188,6.11515728 5.31823244,6.11616983 5.34658555,6.11616983 C5.37493865,6.11616983 5.4103801,6.11515728 5.43569531,6.09996806 L8.2872076,4.44738707 C8.33783827,4.41802142 8.36821647,4.36030266 8.36821647,4.3015711 C8.36821647,4.2428398 8.33783827,4.19322167 8.2872076,4.16385602 L5.43569531,2.51127503 C5.4103801,2.49709861 5.37493865,2.48697237 5.34658555,2.48697237 Z M2.80290697,8.81376527 C2.6601289,8.82692914 2.55481736,8.95451825 2.56798124,9.09729632 C2.58114512,9.24007439 2.70873422,9.34538592 2.85151229,9.33222205 L10.1099072,9.33222205 C10.2030674,9.33323459 10.2901521,9.28462927 10.3377446,9.2036204 C10.3843248,9.12261153 10.3843248,9.02337579 10.3377446,8.94236692 C10.2901521,8.86135804 10.2030674,8.81275272 10.1099072,8.81376527 L2.85151229,8.81376527 C2.8434114,8.81376527 2.83531052,8.81376527 2.82720963,8.81376527 C2.81910874,8.81376527 2.81100786,8.81376527 2.80290697,8.81376527 Z" id="Shape"></path>
            </g>
        </g>
    </g>
</svg>