<?xml version="1.0" encoding="UTF-8"?>
<svg width="348px" height="70px" viewBox="0 0 348 70" version="1.1" xmlns="http://www.w3.org/2000/svg" xmlns:xlink="http://www.w3.org/1999/xlink">
    <title>245435304349733083</title>
    <g id="Page-1" stroke="none" stroke-width="1" fill="none" fill-rule="evenodd">
        <g id="245435304349733083">
            <rect id="Rectangle-Copy-2" x="0" y="0" width="347.666667" height="70"></rect>
            <path d="M9.91091,38.373 L20.1515,38.373 C26.6149,38.373 30.623,35.0364 30.623,29.7062 C30.623,25.6981 27.6012,22.6973 23.4881,22.3825 L23.4881,22.2146 C26.6988,21.732 29.175,18.962 29.175,15.6464 C29.175,11.0087 25.6076,8.0918 19.9207,8.0918 L9.91091,8.0918 C7.91734,8.0918 6.74219,9.30892 6.74219,11.3864 L6.74219,35.0574 C6.74219,37.1559 7.91734,38.373 9.91091,38.373 Z M13.0796,20.6827 L13.0796,12.8134 L18.2839,12.8134 C21.2427,12.8134 22.9425,14.1984 22.9425,16.6326 C22.9425,19.1928 21.0119,20.6827 17.6333,20.6827 L13.0796,20.6827 Z M13.0796,33.6514 L13.0796,24.8587 L18.3888,24.8587 C22.1241,24.8587 24.1596,26.3696 24.1596,29.2026 C24.1596,32.0985 22.1871,33.6514 18.5357,33.6514 L13.0796,33.6514 Z" id="Shape" fill="#FF670B" fill-rule="nonzero"></path>
            <path d="M35.8216,38.8142 C37.6263,38.8142 38.8854,37.723 38.8854,35.6245 L38.8854,25.4678 C38.8854,22.5509 40.6271,20.5363 43.3762,20.5363 C46.1252,20.5363 47.5102,22.2151 47.5102,25.153 L47.5102,35.6245 C47.5102,37.723 48.7693,38.8142 50.574,38.8142 C52.3577,38.8142 53.6378,37.723 53.6378,35.6245 L53.6378,23.8729 C53.6378,18.6057 50.8258,15.458 45.8314,15.458 C42.3689,15.458 40.1025,16.9899 38.9064,19.7809 L38.7805,19.7809 L38.7805,18.5218 C38.7805,16.5912 37.5634,15.416 35.7167,15.416 C33.87,15.416 32.7578,16.5912 32.7578,18.5008 L32.7578,35.6245 C32.7578,37.723 34.0379,38.8142 35.8216,38.8142 Z" id="Path" fill="#FF670B" fill-rule="nonzero"></path>
            <path d="M66.9179,38.8556 C71.2617,38.8556 74.7452,37.2188 76.2352,34.4488 C76.508,33.9452 76.6549,33.4415 76.6549,32.9589 C76.6549,31.5529 75.5846,30.7135 74.2626,30.7135 C73.4652,30.7135 72.9195,30.9443 72.269,31.6159 C70.6112,33.5674 69.1423,34.3229 66.8969,34.3229 C63.7911,34.3229 61.7766,32.1405 61.7766,28.8039 L61.7766,28.5311 L74.6193,28.5311 C76.3191,28.5311 77.2844,27.5658 77.2844,25.866 C77.2844,19.7594 73.0035,15.3945 66.6241,15.3945 C59.9719,15.3945 55.7539,19.9902 55.7539,27.23 C55.7539,34.5118 59.8879,38.8556 66.9179,38.8556 Z M61.8395,24.7748 C62.0494,21.8998 64.001,19.9273 66.687,19.9273 C69.3731,19.9273 71.2617,21.8369 71.3876,24.7748 L61.8395,24.7748 Z" id="Shape" fill="#FF670B" fill-rule="nonzero"></path>
            <path d="M81.1187,32.6243 C81.1187,36.5904 83.1962,38.6259 87.2883,38.6259 L87.4981,38.6259 C90.0793,38.6259 91.842,37.7026 91.842,35.8979 C91.842,34.4709 91.0236,33.8414 89.5127,33.6735 L89.114,33.6315 C87.7919,33.5266 87.2463,32.8551 87.2463,31.2602 L87.2463,20.495 L89.4077,20.495 C90.8557,20.495 91.7581,19.5926 91.7581,18.1866 C91.7581,16.7807 90.8557,15.8783 89.4077,15.8783 L87.2463,15.8783 L87.2463,13.3811 C87.2463,11.4085 86.0921,10.1914 84.1825,10.1914 C82.2729,10.1914 81.1187,11.4085 81.1187,13.3811 L81.1187,15.8783 L79.9436,15.8783 C78.4956,15.8783 77.5723,16.7597 77.5723,18.1866 C77.5723,19.6136 78.4956,20.495 79.9436,20.495 L81.1187,20.495 L81.1187,32.6243 Z" id="Path" fill="#FF670B" fill-rule="nonzero"></path>
            <path d="M97.5047,38.7717 C99.4982,38.7717 100.673,37.5546 100.673,35.4771 L100.673,28.8249 L106.339,28.8249 C112.719,28.8249 117.147,24.6699 117.147,18.4583 C117.147,12.2258 112.866,8.0918 106.654,8.0918 L97.5047,8.0918 C95.5111,8.0918 94.3359,9.30892 94.3359,11.3864 L94.3359,35.4771 C94.3359,37.5546 95.5111,38.7717 97.5047,38.7717 Z M100.673,23.8724 L100.673,13.1072 L104.975,13.1072 C108.606,13.1072 110.704,15.0378 110.704,18.4793 C110.704,21.9418 108.585,23.8724 104.954,23.8724 L100.673,23.8724 Z" id="Shape" fill="#FF670B" fill-rule="nonzero"></path>
            <path d="M122.618,38.8144 C124.423,38.8144 125.682,37.7232 125.682,35.6247 L125.682,10.8415 C125.682,8.74306 124.423,7.63086 122.618,7.63086 C120.835,7.63086 119.555,8.74306 119.555,10.8415 L119.555,35.6247 C119.555,37.7232 120.835,38.8144 122.618,38.8144 Z" id="Path" fill="#FF670B" fill-rule="nonzero"></path>
            <path d="M135.52,38.7297 C138.332,38.7297 141.144,37.3237 142.403,34.9315 L142.529,34.9315 L142.529,36.0856 C142.655,37.8903 143.809,38.8137 145.467,38.8137 C147.208,38.8137 148.447,37.7644 148.447,35.7289 L148.447,22.9071 C148.447,18.3744 144.69,15.3945 138.919,15.3945 C134.261,15.3945 130.651,17.0523 129.602,19.7384 C129.392,20.2001 129.287,20.6408 129.287,21.1234 C129.287,22.5084 130.358,23.4737 131.848,23.4737 C132.834,23.4737 133.61,23.096 134.282,22.3405 C135.646,20.5778 136.779,19.9692 138.647,19.9692 C140.955,19.9692 142.424,21.1864 142.424,23.2849 L142.424,24.7748 L136.758,25.1105 C131.134,25.4463 127.986,27.8176 127.986,31.9096 C127.986,35.9597 131.239,38.7297 135.52,38.7297 Z M137.534,34.3019 C135.478,34.3019 134.093,33.2527 134.093,31.5739 C134.093,29.979 135.394,28.9508 137.681,28.7829 L142.424,28.4891 L142.424,30.1259 C142.424,32.5602 140.221,34.3019 137.534,34.3019 Z" id="Shape" fill="#FF670B" fill-rule="nonzero"></path>
            <path d="M155.156,46.7045 C160.088,46.7045 162.69,44.564 164.789,38.7512 L171.693,19.9907 C171.902,19.4031 172.028,18.6897 172.028,18.186 C172.028,16.5702 170.811,15.416 169.048,15.416 C167.475,15.416 166.593,16.1505 166.09,17.8503 L161.2,33.463 L161.095,33.463 L156.206,17.8922 C155.702,16.1085 154.863,15.416 153.247,15.416 C151.442,15.416 150.078,16.6122 150.078,18.27 C150.078,18.7736 150.204,19.4451 150.435,20.0747 L157.612,39.003 L157.297,39.8005 C156.562,41.3743 155.408,41.836 154.338,41.836 C153.918,41.836 153.688,41.815 153.268,41.815 C151.883,41.815 151.022,42.5914 151.022,43.8296 C151.022,45.6762 152.47,46.7045 155.156,46.7045 Z" id="Path" fill="#FF670B" fill-rule="nonzero"></path>
            <path d="M12.6511,60.1305 C16.4228,60.1305 18.8178,58.2167 18.8178,55.1725 C18.8178,52.8222 17.43,51.468 14.0389,50.7517 L12.2817,50.3824 C10.1888,49.9347 9.34945,49.1512 9.34945,47.9761 C9.34945,46.4988 10.7484,45.581 12.6399,45.581 C14.2515,45.581 15.4826,46.219 16.031,47.7075 C16.2885,48.2895 16.6578,48.5693 17.2622,48.5693 C17.9113,48.5693 18.3702,48.144 18.3702,47.4948 C18.3702,47.2598 18.3366,47.0695 18.2806,46.9129 C17.6539,44.7528 15.4602,43.4434 12.6735,43.4434 C9.23753,43.4434 6.80888,45.346 6.80888,48.1104 C6.80888,50.4383 8.27502,51.938 11.4983,52.6208 L13.2666,52.9901 C15.4267,53.4601 16.2773,54.2436 16.2773,55.4971 C16.2773,56.9408 14.8111,57.9929 12.763,57.9929 C10.8939,57.9929 9.42779,57.2878 8.92415,55.7769 C8.67793,55.1725 8.3086,54.9151 7.73781,54.9151 C7.0551,54.9151 6.60742,55.3852 6.60742,56.1126 C6.60742,56.3812 6.66338,56.6499 6.74173,56.8961 C7.36847,58.7763 9.51733,60.1305 12.6511,60.1305 Z" id="Path" fill="#474747" fill-rule="nonzero"></path>
            <path d="M21.1196,57.0413 C21.1196,58.9887 22.1269,59.9624 24.1078,59.9624 L24.2309,59.9624 C25.4173,59.9624 25.9769,59.593 25.9769,58.8655 C25.9769,58.2948 25.6299,58.015 24.936,57.9478 L24.7458,57.9366 C23.8728,57.8695 23.5482,57.4442 23.5482,56.504 L23.5482,50.0015 L24.9248,50.0015 C25.5516,50.0015 25.9321,49.6434 25.9321,49.0502 C25.9321,48.457 25.5516,48.0877 24.9248,48.0877 L23.5482,48.0877 L23.5482,46.3418 C23.5482,45.5695 23.067,45.0547 22.3395,45.0547 C21.6008,45.0547 21.1196,45.5695 21.1196,46.3418 L21.1196,48.0877 L20.269,48.0877 C19.6422,48.0877 19.2617,48.4458 19.2617,49.0502 C19.2617,49.6434 19.6422,50.0015 20.269,50.0015 L21.1196,50.0015 L21.1196,57.0413 Z" id="Path" fill="#474747" fill-rule="nonzero"></path>
            <path d="M30.6725,60.063 C32.2058,60.063 33.7055,59.2348 34.3882,57.9254 L34.4442,57.9254 L34.4442,58.9214 C34.4666,59.6377 34.9255,60.0742 35.597,60.0742 C36.2797,60.0742 36.7609,59.6153 36.7609,58.8543 L36.7609,51.7474 C36.7609,49.3859 34.9366,47.875 32.0827,47.875 C29.9674,47.875 28.1879,48.7256 27.5723,50.0574 C27.4268,50.326 27.3597,50.5946 27.3597,50.8409 C27.3597,51.4452 27.7962,51.8481 28.4005,51.8481 C28.8258,51.8481 29.1392,51.6915 29.3854,51.3333 C30.057,50.2589 30.8292,49.8448 31.9932,49.8448 C33.4705,49.8448 34.3547,50.6282 34.3547,51.9377 L34.3547,52.8442 L31.1202,53.0345 C28.3334,53.1912 26.7441,54.4559 26.7441,56.5152 C26.7441,58.6305 28.367,60.063 30.6725,60.063 Z M31.3328,58.1492 C30.0458,58.1492 29.184,57.4777 29.184,56.448 C29.184,55.4408 30.001,54.8028 31.4448,54.7021 L34.3547,54.523 L34.3547,55.4519 C34.3547,56.9852 33.0228,58.1492 31.3328,58.1492 Z" id="Shape" fill="#474747" fill-rule="nonzero"></path>
            <path d="M39.9451,60.0742 C40.6613,60.0742 41.1538,59.5818 41.1538,58.7983 L41.1538,52.7883 C41.1538,51.3221 41.8253,50.2141 43.4817,50.2029 C43.9853,50.2029 44.3435,50.1022 44.5897,49.8895 C44.8247,49.6993 44.9479,49.4195 44.9479,49.039 C44.9479,48.6584 44.8471,48.3674 44.6233,48.1884 C44.4218,47.9981 44.0973,47.8974 43.672,47.8974 C42.4968,47.8974 41.4112,48.7815 41.0866,50.1022 L41.0307,50.1022 L41.0307,49.0949 C41.0307,48.3563 40.5606,47.875 39.8891,47.875 C39.2064,47.875 38.7363,48.3563 38.7363,49.0949 L38.7363,58.7983 C38.7363,59.5818 39.2176,60.0742 39.9451,60.0742 Z" id="Path" fill="#474747" fill-rule="nonzero"></path>
            <path d="M46.6001,57.0413 C46.6001,58.9887 47.6073,59.9624 49.5883,59.9624 L49.7114,59.9624 C50.8978,59.9624 51.4574,59.593 51.4574,58.8655 C51.4574,58.2948 51.1104,58.015 50.4165,57.9478 L50.2262,57.9366 C49.3533,57.8695 49.0287,57.4442 49.0287,56.504 L49.0287,50.0015 L50.4053,50.0015 C51.0321,50.0015 51.4126,49.6434 51.4126,49.0502 C51.4126,48.457 51.0321,48.0877 50.4053,48.0877 L49.0287,48.0877 L49.0287,46.3418 C49.0287,45.5695 48.5474,45.0547 47.82,45.0547 C47.0813,45.0547 46.6001,45.5695 46.6001,46.3418 L46.6001,48.0877 L45.7495,48.0877 C45.1227,48.0877 44.7422,48.4458 44.7422,49.0502 C44.7422,49.6434 45.1227,50.0015 45.7495,50.0015 L46.6001,50.0015 L46.6001,57.0413 Z" id="Path" fill="#474747" fill-rule="nonzero"></path>
            <path d="M58.7105,60.0413 C59.4828,60.0413 59.964,59.5489 59.964,58.7431 L59.964,52.7106 L68.2573,52.7106 L68.2573,58.7431 C68.2573,59.5489 68.7273,60.0413 69.5108,60.0413 C70.283,60.0413 70.7643,59.5489 70.7643,58.7431 L70.7643,44.8315 C70.7643,44.0256 70.283,43.5332 69.5108,43.5332 C68.7273,43.5332 68.2573,44.0256 68.2573,44.8315 L68.2573,50.5394 L59.964,50.5394 L59.964,44.8315 C59.964,44.0256 59.4828,43.5332 58.7105,43.5332 C57.9271,43.5332 57.457,44.0256 57.457,44.8315 L57.457,58.7431 C57.457,59.5489 57.9271,60.0413 58.7105,60.0413 Z" id="Path" fill="#474747" fill-rule="nonzero"></path>
            <path d="M74.6207,59.8629 L79.0639,59.8629 C83.8764,59.8629 86.708,56.8634 86.708,51.7599 C86.708,46.6676 83.8652,43.7129 79.0639,43.7129 L74.6207,43.7129 C73.8373,43.7129 73.3672,44.2053 73.3672,45.0112 L73.3672,58.5646 C73.3672,59.3704 73.8373,59.8629 74.6207,59.8629 Z M75.8742,57.6916 L75.8742,45.8729 L78.8289,45.8729 C82.2424,45.8729 84.145,47.977 84.145,51.7823 C84.145,55.5987 82.2536,57.6916 78.8289,57.6916 L75.8742,57.6916 Z" id="Shape" fill="#474747" fill-rule="nonzero"></path>
            <path d="M277.101,35.1934 C279.377,35.1934 281.033,33.7117 281.304,31.7942 L281.314,31.7264 L279.658,31.7264 L279.639,31.8039 C279.358,32.9272 278.477,33.702 277.101,33.702 C275.358,33.702 274.157,32.3171 274.157,29.9736 L274.157,29.9639 C274.157,27.6784 275.329,26.2257 277.082,26.2257 C278.564,26.2257 279.377,27.1167 279.629,28.1239 L279.648,28.2013 L281.295,28.2013 L281.285,28.1239 C281.072,26.4001 279.59,24.7344 277.082,24.7344 C274.283,24.7344 272.434,26.7681 272.434,29.9445 L272.434,29.9542 C272.434,33.1597 274.245,35.1934 277.101,35.1934 Z" id="Path" fill="#474747" fill-rule="nonzero"></path>
            <g id="93" transform="translate(207.953125, 10.891602)" fill="#FF670B" fill-rule="nonzero">
                <path d="M13.9160156,36.9873047 C23.6816406,36.9873047 29.5654297,29.9804688 29.5654297,18.3349609 C29.5654297,14.0869141 28.7353516,10.4248047 27.2949219,7.69042969 C24.5117188,2.44140625 19.921875,0 14.1601562,0 C5.98144531,0 0,5.24902344 0,12.7197266 C0,19.6777344 5.2734375,24.1455078 11.6943359,24.1455078 C16.40625,24.1455078 19.6777344,21.8017578 20.8496094,18.4570312 L20.9960938,18.4570312 C20.9960938,18.6035156 20.9960938,18.7255859 20.9960938,18.8232422 C21.09375,25.2685547 19.1650391,30.1269531 14.3066406,30.1269531 C12.0605469,30.1269531 10.6689453,29.3457031 9.05761719,27.7099609 C7.8125,26.5136719 6.8359375,25.7324219 5.05371094,25.7324219 C2.70996094,25.7324219 1.44042969,27.2705078 1.44042969,29.1748047 C1.44042969,29.8095703 1.58691406,30.4199219 1.87988281,31.0791016 C3.39355469,34.4970703 7.95898438,36.9873047 13.9160156,36.9873047 Z M14.2089844,17.8222656 C11.0107422,17.8222656 8.61816406,15.5761719 8.61816406,12.3535156 C8.61816406,9.25292969 11.1083984,6.86035156 14.2822266,6.86035156 C17.4316406,6.86035156 19.8974609,9.30175781 19.8974609,12.4755859 C19.8974609,15.6005859 17.4560547,17.8222656 14.2089844,17.8222656 Z" id="Shape"></path>
                <path d="M45.6862166,36.9873047 C54.5241072,36.9873047 60.2125838,32.7392578 60.2125838,26.1474609 C60.2125838,21.3867188 56.8434431,18.3837891 51.5211775,17.8466797 L51.5211775,17.6757812 C55.5494978,16.8701172 58.8209822,13.9892578 58.8209822,9.47265625 C58.8209822,3.49121094 53.3034041,0 45.6373885,0 C38.7037947,0 34.5534041,3.3203125 33.1618025,6.73828125 C32.8444197,7.49511719 32.7223494,8.10546875 32.7223494,8.86230469 C32.7223494,10.9130859 33.9674666,12.3779297 36.4088728,12.3779297 C38.3864119,12.3779297 39.4606306,11.6699219 40.4616072,9.79003906 C41.535826,7.69042969 43.1715681,6.66503906 45.6862166,6.66503906 C48.7379744,6.66503906 50.4957869,8.25195312 50.4957869,10.7421875 C50.4957869,13.3056641 48.3961775,14.9902344 44.9537947,14.9902344 L44.1481306,14.9902344 C42.0241072,14.9902344 40.9010603,16.2353516 40.9010603,18.0175781 C40.9010603,19.8486328 42.0241072,21.0693359 44.1481306,21.0693359 L45.0026228,21.0693359 C48.9088728,21.0693359 51.1061385,22.65625 51.1061385,25.6103516 C51.1061385,28.1494141 48.957701,29.9560547 45.8815291,29.9560547 C42.5368025,29.9560547 40.9498885,28.6621094 39.6559431,26.4648438 C38.7770369,25.0488281 37.6784041,24.4384766 35.9694197,24.4384766 C33.5280135,24.4384766 32.0387556,25.8544922 32.0387556,28.1005859 C32.0387556,28.7353516 32.18524,29.4677734 32.4782088,30.1513672 C33.8942244,33.5693359 38.1910994,36.9873047 45.6862166,36.9873047 Z" id="Path"></path>
            </g>
            <path d="M285.37,35.1934 C286.716,35.1934 287.927,34.467 288.518,33.363 L288.556,33.363 L288.556,34.9997 L290.241,34.9997 L290.241,28.0367 C290.241,26.0224 288.75,24.7344 286.368,24.7344 C283.995,24.7344 282.552,26.0708 282.407,27.7268 L282.397,27.8333 L284.024,27.8333 L284.044,27.7462 C284.237,26.8455 285.051,26.2257 286.348,26.2257 C287.753,26.2257 288.556,26.9714 288.556,28.2013 L288.556,29.0439 L285.67,29.2085 C283.356,29.3441 282.02,30.419 282.02,32.1331 L282.02,32.1525 C282.02,33.9828 283.366,35.1934 285.37,35.1934 Z M283.743,32.1525 L283.743,32.1331 C283.743,31.1938 284.518,30.5933 285.864,30.5159 L288.556,30.3512 L288.556,31.1744 C288.556,32.6367 287.336,33.731 285.748,33.731 C284.537,33.731 283.743,33.1209 283.743,32.1525 Z" id="Shape" fill="#474747" fill-rule="nonzero"></path>
            <path d="M291.943,34.9997 L293.628,34.9997 L293.628,29.0729 C293.628,27.3588 294.665,26.2257 296.253,26.2257 C297.802,26.2257 298.567,27.1264 298.567,28.763 L298.567,34.9997 L300.252,34.9997 L300.252,28.4628 C300.252,26.1676 298.974,24.7344 296.766,24.7344 C295.236,24.7344 294.209,25.422 293.667,26.3613 L293.628,26.3613 L293.628,24.9281 L291.943,24.9281 L291.943,34.9997 Z" id="Path" fill="#474747" fill-rule="nonzero"></path>
            <path d="M304.898,35.1934 C306.244,35.1934 307.454,34.467 308.045,33.363 L308.084,33.363 L308.084,34.9997 L309.769,34.9997 L309.769,28.0367 C309.769,26.0224 308.277,24.7344 305.895,24.7344 C303.522,24.7344 302.08,26.0708 301.934,27.7268 L301.925,27.8333 L303.552,27.8333 L303.571,27.7462 C303.765,26.8455 304.578,26.2257 305.876,26.2257 C307.28,26.2257 308.084,26.9714 308.084,28.2013 L308.084,29.0439 L305.198,29.2085 C302.883,29.3441 301.547,30.419 301.547,32.1331 L301.547,32.1525 C301.547,33.9828 302.893,35.1934 304.898,35.1934 Z M303.271,32.1525 L303.271,32.1331 C303.271,31.1938 304.045,30.5933 305.392,30.5159 L308.084,30.3512 L308.084,31.1744 C308.084,32.6367 306.864,33.731 305.275,33.731 C304.065,33.731 303.271,33.1209 303.271,32.1525 Z" id="Shape" fill="#474747" fill-rule="nonzero"></path>
            <path d="M312.421,23.2244 C313.012,23.2244 313.476,22.7499 313.476,22.1689 C313.476,21.5781 313.012,21.1133 312.421,21.1133 C311.84,21.1133 311.365,21.5781 311.365,22.1689 C311.365,22.7499 311.84,23.2244 312.421,23.2244 Z M311.578,35.0005 L313.263,35.0005 L313.263,24.9289 L311.578,24.9289 L311.578,35.0005 Z" id="Shape" fill="#474747" fill-rule="nonzero"></path>
            <path d="M318.695,35.1934 C320.941,35.1934 322.607,33.9538 322.607,32.1912 L322.607,32.1816 C322.607,30.7483 321.871,29.9445 319.837,29.4506 L318.24,29.0632 C317.126,28.7921 316.671,28.3175 316.671,27.63 L316.671,27.6203 C316.671,26.7293 317.426,26.1386 318.646,26.1386 C319.896,26.1386 320.641,26.7874 320.777,27.7655 L320.787,27.8333 L322.394,27.8333 L322.384,27.7074 C322.259,26.0224 320.854,24.7344 318.646,24.7344 C316.467,24.7344 314.947,25.9643 314.947,27.6978 L314.947,27.7074 C314.947,29.1601 315.867,30.0413 317.765,30.4965 L319.363,30.8839 C320.506,31.1647 320.883,31.5715 320.883,32.2978 L320.883,32.3075 C320.883,33.2178 320.07,33.7891 318.704,33.7891 C317.329,33.7891 316.584,33.1984 316.38,32.1912 L316.361,32.0944 L314.676,32.0944 L314.685,32.1816 C314.889,33.9828 316.322,35.1934 318.695,35.1934 Z" id="Path" fill="#474747" fill-rule="nonzero"></path>
            <path d="M329,25.668 L329,33.9633 L341.961,33.9633 L341.961,25.668 L329,25.668 Z M329.518,26.1864 L341.443,26.1864 L341.443,33.4448 L329.518,33.4448 L329.518,26.1864 Z M334.347,28.1549 C334.318,28.1549 334.291,28.1651 334.266,28.1792 C334.214,28.2086 334.185,28.2663 334.185,28.3251 L334.185,31.6221 C334.185,31.6809 334.215,31.7386 334.266,31.7679 C334.291,31.7831 334.318,31.7841 334.347,31.7841 C334.375,31.7841 334.41,31.7831 334.436,31.7679 L337.287,30.1154 C337.338,30.086 337.368,30.0283 337.368,29.9695 C337.368,29.9108 337.338,29.8612 337.287,29.8318 L334.436,28.1792 C334.41,28.1651 334.375,28.1549 334.347,28.1549 Z M331.803,34.4817 C331.66,34.4949 331.555,34.6225 331.568,34.7653 C331.581,34.908 331.709,35.0134 331.852,35.0002 L339.11,35.0002 C339.203,35.0012 339.29,34.9526 339.338,34.8716 C339.384,34.7906 339.384,34.6913 339.338,34.6103 C339.29,34.5293 339.203,34.4807 339.11,34.4817 L331.852,34.4817 C331.843,34.4817 331.835,34.4817 331.827,34.4817 C331.819,34.4817 331.811,34.4817 331.803,34.4817 Z" id="Shape" fill="#474747" fill-rule="nonzero"></path>
        </g>
    </g>
</svg>