<svg width="1091" height="317" viewBox="0 0 1091 317" fill="none" xmlns="http://www.w3.org/2000/svg">
<path d="M106.633 51.3275V35.825H133.64V107H116.285V51.3275H106.633ZM145.045 70.4375C145.045 59.2575 147.19 50.45 151.48 44.015C155.835 37.58 162.823 34.3625 172.443 34.3625C182.063 34.3625 189.018 37.58 193.308 44.015C197.663 50.45 199.84 59.2575 199.84 70.4375C199.84 81.7475 197.663 90.62 193.308 97.055C189.018 103.49 182.063 106.707 172.443 106.707C162.823 106.707 155.835 103.49 151.48 97.055C147.19 90.62 145.045 81.7475 145.045 70.4375ZM183.46 70.4375C183.46 63.8725 182.745 58.835 181.315 55.325C179.885 51.75 176.928 49.9625 172.443 49.9625C167.958 49.9625 165 51.75 163.57 55.325C162.14 58.835 161.425 63.8725 161.425 70.4375C161.425 74.8575 161.685 78.53 162.205 81.455C162.725 84.315 163.765 86.655 165.325 88.475C166.95 90.23 169.323 91.1075 172.443 91.1075C175.563 91.1075 177.903 90.23 179.463 88.475C181.088 86.655 182.16 84.315 182.68 81.455C183.2 78.53 183.46 74.8575 183.46 70.4375ZM208.649 70.4375C208.649 59.2575 210.794 50.45 215.084 44.015C219.439 37.58 226.426 34.3625 236.046 34.3625C245.666 34.3625 252.621 37.58 256.911 44.015C261.266 50.45 263.444 59.2575 263.444 70.4375C263.444 81.7475 261.266 90.62 256.911 97.055C252.621 103.49 245.666 106.707 236.046 106.707C226.426 106.707 219.439 103.49 215.084 97.055C210.794 90.62 208.649 81.7475 208.649 70.4375ZM247.064 70.4375C247.064 63.8725 246.349 58.835 244.919 55.325C243.489 51.75 240.531 49.9625 236.046 49.9625C231.561 49.9625 228.604 51.75 227.174 55.325C225.744 58.835 225.029 63.8725 225.029 70.4375C225.029 74.8575 225.289 78.53 225.809 81.455C226.329 84.315 227.369 86.655 228.929 88.475C230.554 90.23 232.926 91.1075 236.046 91.1075C239.166 91.1075 241.506 90.23 243.066 88.475C244.691 86.655 245.764 84.315 246.284 81.455C246.804 78.53 247.064 74.8575 247.064 70.4375ZM270.887 53.765C270.887 48.5 272.382 44.4375 275.372 41.5775C278.427 38.7175 282.36 37.2875 287.17 37.2875C291.98 37.2875 295.88 38.7175 298.87 41.5775C301.86 44.4375 303.355 48.5 303.355 53.765C303.355 59.03 301.86 63.0925 298.87 65.9525C295.88 68.8125 291.98 70.2425 287.17 70.2425C282.36 70.2425 278.427 68.8125 275.372 65.9525C272.382 63.0925 270.887 59.03 270.887 53.765ZM337.09 38.36L299.552 107H283.465L321.002 38.36H337.09ZM287.072 47.0375C283.952 47.0375 282.392 49.28 282.392 53.765C282.392 58.185 283.952 60.395 287.072 60.395C288.567 60.395 289.737 59.8425 290.582 58.7375C291.427 57.6325 291.85 55.975 291.85 53.765C291.85 49.28 290.257 47.0375 287.072 47.0375ZM317.297 91.595C317.297 86.33 318.792 82.2675 321.782 79.4075C324.772 76.5475 328.672 75.1175 333.482 75.1175C338.292 75.1175 342.192 76.5475 345.182 79.4075C348.172 82.2675 349.667 86.33 349.667 91.595C349.667 96.86 348.172 100.922 345.182 103.783C342.192 106.643 338.292 108.073 333.482 108.073C328.672 108.073 324.772 106.643 321.782 103.783C318.792 100.922 317.297 96.86 317.297 91.595ZM333.385 84.8675C331.89 84.8675 330.72 85.42 329.875 86.525C329.095 87.63 328.705 89.32 328.705 91.595C328.705 96.015 330.265 98.225 333.385 98.225C334.88 98.225 336.05 97.6725 336.895 96.5675C337.74 95.4625 338.162 93.805 338.162 91.595C338.162 89.385 337.74 87.7275 336.895 86.6225C336.05 85.4525 334.88 84.8675 333.385 84.8675ZM423.965 38.555V51.9125H396.08V66.3425H416.945V79.31H396.08V107H379.408V38.555H423.965ZM441.113 46.94C438.188 46.94 435.783 46.095 433.898 44.405C432.078 42.65 431.168 40.505 431.168 37.97C431.168 35.37 432.078 33.225 433.898 31.535C435.783 29.78 438.188 28.9025 441.113 28.9025C443.973 28.9025 446.313 29.78 448.133 31.535C450.018 33.225 450.961 35.37 450.961 37.97C450.961 40.505 450.018 42.65 448.133 44.405C446.313 46.095 443.973 46.94 441.113 46.94ZM449.401 52.595V107H432.728V52.595H449.401ZM478.155 60.2975C479.715 57.7625 481.958 55.715 484.883 54.155C487.808 52.595 491.155 51.815 494.925 51.815C499.41 51.815 503.473 52.9525 507.113 55.2275C510.753 57.5025 513.613 60.7525 515.693 64.9775C517.838 69.2025 518.91 74.11 518.91 79.7C518.91 85.29 517.838 90.23 515.693 94.52C513.613 98.745 510.753 102.027 507.113 104.367C503.473 106.643 499.41 107.78 494.925 107.78C491.09 107.78 487.743 107.033 484.883 105.537C482.023 103.977 479.78 101.93 478.155 99.395V107H461.483V34.85H478.155V60.2975ZM501.945 79.7C501.945 75.54 500.775 72.29 498.435 69.95C496.16 67.545 493.333 66.3425 489.953 66.3425C486.638 66.3425 483.81 67.545 481.47 69.95C479.195 72.355 478.058 75.6375 478.058 79.7975C478.058 83.9575 479.195 87.24 481.47 89.645C483.81 92.05 486.638 93.2525 489.953 93.2525C493.268 93.2525 496.095 92.05 498.435 89.645C500.775 87.175 501.945 83.86 501.945 79.7ZM544.33 61.6625C546.28 58.6725 548.717 56.3325 551.642 54.6425C554.567 52.8875 557.817 52.01 561.392 52.01V69.6575H556.81C552.65 69.6575 549.53 70.5675 547.45 72.3875C545.37 74.1425 544.33 77.2625 544.33 81.7475V107H527.657V52.595H544.33V61.6625ZM566.046 79.7C566.046 74.11 567.086 69.2025 569.166 64.9775C571.311 60.7525 574.204 57.5025 577.844 55.2275C581.484 52.9525 585.546 51.815 590.031 51.815C593.866 51.815 597.214 52.595 600.074 54.155C602.999 55.715 605.241 57.7625 606.801 60.2975V52.595H623.474V107H606.801V99.2975C605.176 101.832 602.901 103.88 599.976 105.44C597.116 107 593.769 107.78 589.934 107.78C585.514 107.78 581.484 106.643 577.844 104.367C574.204 102.027 571.311 98.745 569.166 94.52C567.086 90.23 566.046 85.29 566.046 79.7ZM606.801 79.7975C606.801 75.6375 605.631 72.355 603.291 69.95C601.016 67.545 598.221 66.3425 594.906 66.3425C591.591 66.3425 588.764 67.545 586.424 69.95C584.149 72.29 583.011 75.54 583.011 79.7C583.011 83.86 584.149 87.175 586.424 89.645C588.764 92.05 591.591 93.2525 594.906 93.2525C598.221 93.2525 601.016 92.05 603.291 89.645C605.631 87.24 606.801 83.9575 606.801 79.7975ZM688.567 107.683C682.132 107.683 676.217 106.187 670.822 103.197C665.492 100.207 661.235 96.0475 658.05 90.7175C654.93 85.3225 653.37 79.2775 653.37 72.5825C653.37 65.8875 654.93 59.875 658.05 54.545C661.235 49.215 665.492 45.055 670.822 42.065C676.217 39.075 682.132 37.58 688.567 37.58C695.002 37.58 700.885 39.075 706.215 42.065C711.61 45.055 715.835 49.215 718.89 54.545C722.01 59.875 723.57 65.8875 723.57 72.5825C723.57 79.2775 722.01 85.3225 718.89 90.7175C715.77 96.0475 711.545 100.207 706.215 103.197C700.885 106.187 695.002 107.683 688.567 107.683ZM688.567 92.4725C694.027 92.4725 698.382 90.6525 701.632 87.0125C704.947 83.3725 706.605 78.5625 706.605 72.5825C706.605 66.5375 704.947 61.7275 701.632 58.1525C698.382 54.5125 694.027 52.6925 688.567 52.6925C683.042 52.6925 678.622 54.48 675.307 58.055C672.057 61.63 670.432 66.4725 670.432 72.5825C670.432 78.6275 672.057 83.47 675.307 87.11C678.622 90.685 683.042 92.4725 688.567 92.4725ZM699.877 24.8075L676.38 34.655V23.15L699.877 11.84V24.8075ZM749.518 60.2975C751.143 57.7625 753.385 55.715 756.245 54.155C759.105 52.595 762.453 51.815 766.288 51.815C770.773 51.815 774.835 52.9525 778.475 55.2275C782.115 57.5025 784.975 60.7525 787.055 64.9775C789.2 69.2025 790.273 74.11 790.273 79.7C790.273 85.29 789.2 90.23 787.055 94.52C784.975 98.745 782.115 102.027 778.475 104.367C774.835 106.643 770.773 107.78 766.288 107.78C762.518 107.78 759.17 107 756.245 105.44C753.385 103.88 751.143 101.865 749.518 99.395V132.935H732.845V52.595H749.518V60.2975ZM773.308 79.7C773.308 75.54 772.138 72.29 769.798 69.95C767.523 67.545 764.695 66.3425 761.315 66.3425C758 66.3425 755.173 67.545 752.833 69.95C750.558 72.355 749.42 75.6375 749.42 79.7975C749.42 83.9575 750.558 87.24 752.833 89.645C755.173 92.05 758 93.2525 761.315 93.2525C764.63 93.2525 767.458 92.05 769.798 89.645C772.138 87.175 773.308 83.86 773.308 79.7ZM829.342 92.8625V107H820.86C814.815 107 810.102 105.537 806.722 102.612C803.342 99.6225 801.652 94.78 801.652 88.085V66.44H795.022V52.595H801.652V39.335H818.325V52.595H829.245V66.44H818.325V88.28C818.325 89.905 818.715 91.075 819.495 91.79C820.275 92.505 821.575 92.8625 823.395 92.8625H829.342ZM847.014 46.94C844.089 46.94 841.684 46.095 839.799 44.405C837.979 42.65 837.069 40.505 837.069 37.97C837.069 35.37 837.979 33.225 839.799 31.535C841.684 29.78 844.089 28.9025 847.014 28.9025C849.874 28.9025 852.214 29.78 854.034 31.535C855.919 33.225 856.861 35.37 856.861 37.97C856.861 40.505 855.919 42.65 854.034 44.405C852.214 46.095 849.874 46.94 847.014 46.94ZM855.301 52.595V107H838.629V52.595H855.301ZM864.069 79.7975C864.069 74.1425 865.206 69.2025 867.481 64.9775C869.821 60.7525 873.039 57.5025 877.134 55.2275C881.294 52.9525 886.039 51.815 891.369 51.815C898.194 51.815 903.881 53.6025 908.431 57.1775C913.046 60.7525 916.069 65.79 917.499 72.29H899.754C898.259 68.13 895.366 66.05 891.076 66.05C888.021 66.05 885.584 67.2525 883.764 69.6575C881.944 71.9975 881.034 75.3775 881.034 79.7975C881.034 84.2175 881.944 87.63 883.764 90.035C885.584 92.375 888.021 93.545 891.076 93.545C895.366 93.545 898.259 91.465 899.754 87.305H917.499C916.069 93.675 913.046 98.68 908.431 102.32C903.816 105.96 898.129 107.78 891.369 107.78C886.039 107.78 881.294 106.643 877.134 104.367C873.039 102.092 869.821 98.8425 867.481 94.6175C865.206 90.3925 864.069 85.4525 864.069 79.7975ZM923.102 79.7C923.102 74.11 924.142 69.2025 926.222 64.9775C928.367 60.7525 931.26 57.5025 934.9 55.2275C938.54 52.9525 942.602 51.815 947.087 51.815C950.922 51.815 954.27 52.595 957.13 54.155C960.055 55.715 962.297 57.7625 963.857 60.2975V52.595H980.53V107H963.857V99.2975C962.232 101.832 959.957 103.88 957.032 105.44C954.172 107 950.825 107.78 946.99 107.78C942.57 107.78 938.54 106.643 934.9 104.367C931.26 102.027 928.367 98.745 926.222 94.52C924.142 90.23 923.102 85.29 923.102 79.7ZM963.857 79.7975C963.857 75.6375 962.687 72.355 960.347 69.95C958.072 67.545 955.277 66.3425 951.962 66.3425C948.647 66.3425 945.82 67.545 943.48 69.95C941.205 72.29 940.067 75.54 940.067 79.7C940.067 83.86 941.205 87.175 943.48 89.645C945.82 92.05 948.647 93.2525 951.962 93.2525C955.277 93.2525 958.072 92.05 960.347 89.645C962.687 87.24 963.857 83.9575 963.857 79.7975Z" fill="white"/>
<path d="M58.7175 222.913V236.757H81.045V249.627H58.7175V264.642H83.97V278H42.045V209.555H83.97V222.913H58.7175ZM131.836 209.555V250.505C131.836 254.6 132.843 257.752 134.858 259.962C136.873 262.172 139.831 263.277 143.731 263.277C147.631 263.277 150.621 262.172 152.701 259.962C154.781 257.752 155.821 254.6 155.821 250.505V209.555H172.493V250.407C172.493 256.517 171.193 261.685 168.593 265.91C165.993 270.135 162.483 273.32 158.063 275.465C153.708 277.61 148.833 278.683 143.438 278.683C138.043 278.683 133.201 277.643 128.911 275.562C124.686 273.417 121.338 270.232 118.868 266.007C116.398 261.717 115.163 256.517 115.163 250.407V209.555H131.836ZM200.873 265.13H222.713V278H184.201V209.555H200.873V265.13ZM279.903 209.555V222.913H261.768V278H245.096V222.913H226.961V209.555H279.903ZM323.176 278L308.941 252.162H304.943V278H288.271V209.555H316.253C321.648 209.555 326.231 210.497 330.001 212.382C333.836 214.267 336.696 216.867 338.581 220.182C340.466 223.432 341.408 227.072 341.408 231.102C341.408 235.652 340.108 239.715 337.508 243.29C334.973 246.865 331.203 249.4 326.198 250.895L341.993 278H323.176ZM304.943 240.365H315.278C318.333 240.365 320.608 239.617 322.103 238.122C323.663 236.627 324.443 234.515 324.443 231.785C324.443 229.185 323.663 227.138 322.103 225.642C320.608 224.147 318.333 223.4 315.278 223.4H304.943V240.365ZM394.482 265.91H368.937L364.842 278H347.389L372.154 209.555H391.459L416.224 278H398.577L394.482 265.91ZM390.192 253.04L381.709 227.982L373.324 253.04H390.192ZM508.675 209.555L484.398 278H463.533L439.255 209.555H457L473.965 261.23L491.028 209.555H508.675ZM532.316 222.913V236.757H554.644V249.627H532.316V264.642H557.569V278H515.644V209.555H557.569V222.913H532.316ZM585.065 265.13H606.905V278H568.393V209.555H585.065V265.13ZM647.228 278.683C640.793 278.683 634.878 277.187 629.483 274.197C624.153 271.207 619.895 267.047 616.71 261.717C613.59 256.322 612.03 250.277 612.03 243.582C612.03 236.887 613.59 230.875 616.71 225.545C619.895 220.215 624.153 216.055 629.483 213.065C634.878 210.075 640.793 208.58 647.228 208.58C653.663 208.58 659.545 210.075 664.875 213.065C670.27 216.055 674.495 220.215 677.55 225.545C680.67 230.875 682.23 236.887 682.23 243.582C682.23 250.277 680.67 256.322 677.55 261.717C674.43 267.047 670.205 271.207 664.875 274.197C659.545 277.187 653.663 278.683 647.228 278.683ZM647.228 263.472C652.688 263.472 657.043 261.652 660.292 258.012C663.608 254.372 665.265 249.562 665.265 243.582C665.265 237.537 663.608 232.727 660.292 229.152C657.043 225.512 652.688 223.692 647.228 223.692C641.703 223.692 637.283 225.48 633.968 229.055C630.718 232.63 629.093 237.472 629.093 243.582C629.093 249.627 630.718 254.47 633.968 258.11C637.283 261.685 641.703 263.472 647.228 263.472ZM688.678 243.68C688.678 236.92 690.14 230.907 693.065 225.642C695.99 220.312 700.053 216.185 705.253 213.26C710.518 210.27 716.465 208.775 723.095 208.775C731.22 208.775 738.175 210.92 743.96 215.21C749.745 219.5 753.613 225.35 755.563 232.76H737.233C735.868 229.9 733.918 227.722 731.383 226.227C728.913 224.732 726.085 223.985 722.9 223.985C717.765 223.985 713.605 225.772 710.42 229.347C707.235 232.922 705.643 237.7 705.643 243.68C705.643 249.66 707.235 254.437 710.42 258.012C713.605 261.587 717.765 263.375 722.9 263.375C726.085 263.375 728.913 262.627 731.383 261.132C733.918 259.637 735.868 257.46 737.233 254.6H755.563C753.613 262.01 749.745 267.86 743.96 272.15C738.175 276.375 731.22 278.488 723.095 278.488C716.465 278.488 710.518 277.025 705.253 274.1C700.053 271.11 695.99 266.982 693.065 261.717C690.14 256.452 688.678 250.44 688.678 243.68ZM782.446 209.555V278H765.773V209.555H782.446ZM820.17 209.555C827.385 209.555 833.69 210.985 839.085 213.845C844.48 216.705 848.64 220.735 851.565 225.935C854.555 231.07 856.05 237.017 856.05 243.777C856.05 250.472 854.555 256.42 851.565 261.62C848.64 266.82 844.448 270.85 838.988 273.71C833.593 276.57 827.32 278 820.17 278H794.528V209.555H820.17ZM819.098 263.57C825.403 263.57 830.31 261.847 833.82 258.402C837.33 254.957 839.085 250.082 839.085 243.777C839.085 237.472 837.33 232.565 833.82 229.055C830.31 225.545 825.403 223.79 819.098 223.79H811.2V263.57H819.098ZM907.975 265.91H882.43L878.335 278H860.883L885.648 209.555H904.953L929.718 278H912.07L907.975 265.91ZM903.685 253.04L895.203 227.982L886.818 253.04H903.685ZM962.897 209.555C970.112 209.555 976.417 210.985 981.812 213.845C987.207 216.705 991.367 220.735 994.292 225.935C997.282 231.07 998.777 237.017 998.777 243.777C998.777 250.472 997.282 256.42 994.292 261.62C991.367 266.82 987.175 270.85 981.715 273.71C976.32 276.57 970.047 278 962.897 278H937.255V209.555H962.897ZM961.825 263.57C968.13 263.57 973.037 261.847 976.547 258.402C980.057 254.957 981.812 250.082 981.812 243.777C981.812 237.472 980.057 232.565 976.547 229.055C973.037 225.545 968.13 223.79 961.825 223.79H953.927V263.57H961.825ZM1024.77 222.913V236.757H1047.09V249.627H1024.77V264.642H1050.02V278H1008.09V209.555H1050.02V222.913H1024.77Z" fill="white"/>
<rect y="146" width="1091" height="26" fill="url(#paint0_linear_1122_740)"/>
<defs>
<linearGradient id="paint0_linear_1122_740" x1="-21.5" y1="158.998" x2="1132.5" y2="158.999" gradientUnits="userSpaceOnUse">
<stop offset="0.382367" stop-color="#FFB800"/>
<stop offset="1" stop-color="#FF0F00"/>
</linearGradient>
</defs>
</svg>
