<?xml version="1.0" encoding="UTF-8"?>
<svg width="30px" height="30px" viewBox="0 0 30 30" version="1.1" xmlns="http://www.w3.org/2000/svg" xmlns:xlink="http://www.w3.org/1999/xlink">
    <title>cheap-2</title>
    <g id="Page-1" stroke="none" stroke-width="1" fill="none" fill-rule="evenodd">
        <g id="MODELO-01-Copy-6" transform="translate(-310.000000, -877.000000)" fill="#FF670B" fill-rule="nonzero">
            <g id="Group-8" transform="translate(185.000000, 768.000000)">
                <g id="Feature_1" transform="translate(0.000000, 109.000000)">
                    <g id="cheap-2" transform="translate(125.000000, 0.000000)">
                        <path d="M15,0 C6.72154018,0 0,6.72154018 0,15 C0,23.2784598 6.72154018,30 15,30 C23.2784598,30 30,23.2784598 30,15 C30,6.72154018 23.2784598,0 15,0 Z M15,1.07142857 C22.6988004,1.07142857 28.9285714,7.30119964 28.9285714,15 C28.9285714,22.6988004 22.6988004,28.9285714 15,28.9285714 C7.30119964,28.9285714 1.07142857,22.6988004 1.07142857,15 C1.07142857,7.30119964 7.30119964,1.07142857 15,1.07142857 Z M15,2.67857143 C14.7049387,2.67857143 14.4642857,2.91922446 14.4642857,3.21428571 C14.4642857,3.50934696 14.7049387,3.75 15,3.75 C15.2950612,3.75 15.5357143,3.50934696 15.5357143,3.21428571 C15.5357143,2.91922446 15.2950612,2.67857143 15,2.67857143 Z M11.953125,3.08035714 C11.9405695,3.08035714 11.9280134,3.08035714 11.9175504,3.08035714 C11.8798827,3.08454268 11.8464005,3.08872768 11.8108259,3.09919071 C11.5241352,3.17661857 11.354632,3.46958732 11.4320593,3.75627804 C11.5094866,4.04087625 11.8024554,4.21037946 12.0870536,4.13504464 C12.3737443,4.05761732 12.543248,3.76464857 12.4658202,3.47795786 C12.4051339,3.24567536 12.1958705,3.08244964 11.953125,3.08035714 Z M18.046875,3.08035714 C17.806222,3.08244964 17.5948661,3.24567536 17.5341798,3.47795786 C17.4567525,3.76464857 17.6262557,4.05761732 17.9129464,4.13504464 C18.1975446,4.21037946 18.4905134,4.04087625 18.5679407,3.75627804 C18.6453686,3.46958732 18.4758648,3.17661857 18.1891741,3.09919071 C18.1431364,3.08663518 18.0950057,3.08035714 18.046875,3.08035714 Z M9.09249429,4.25851018 C9.00460393,4.25851018 8.91671304,4.28362179 8.83928571,4.32756696 C8.71582018,4.39871679 8.62583732,4.51590429 8.58816964,4.65401786 C8.552595,4.79213196 8.57142857,4.93861607 8.64257839,5.06208161 C8.791155,5.31738268 9.11760589,5.40527357 9.375,5.25669643 C9.63030161,5.10811929 9.71819196,4.78166839 9.56961482,4.52636732 C9.47335393,4.35477107 9.28920214,4.25223214 9.09249429,4.25851018 Z M20.8677455,4.25851018 C20.6856862,4.26688071 20.5203686,4.36732714 20.4282927,4.52636732 C20.3571429,4.64773982 20.3383093,4.79422446 20.3738839,4.93233804 C20.4115516,5.07045214 20.5015345,5.18763964 20.625,5.25669643 C20.746373,5.32993875 20.8928571,5.34877232 21.0309712,5.31110518 C21.1690848,5.2734375 21.2862723,5.18345411 21.3553291,5.06208161 C21.5039062,4.8046875 21.4160159,4.47823661 21.1607143,4.32965946 C21.0707309,4.27734375 20.968192,4.25432464 20.8677455,4.25851018 Z M6.67340946,6.12932464 C6.52901786,6.12723214 6.38881125,6.18373339 6.28627232,6.28627232 C6.07910143,6.49553571 6.07910143,6.83663518 6.28627232,7.04589857 C6.49553571,7.25306946 6.83663518,7.25306946 7.04589857,7.04589857 C7.25306946,6.83663518 7.25306946,6.49553571 7.04589857,6.28627232 C6.94545214,6.18791839 6.81361607,6.13351018 6.67340946,6.12932464 Z M23.3412391,6.12932464 C23.196847,6.12932464 23.0566409,6.18582589 22.9541014,6.28627232 C22.7469311,6.49553571 22.7469311,6.83663518 22.9541014,7.04589857 C23.1633648,7.25306946 23.5044643,7.25306946 23.7137277,7.04589857 C23.9208986,6.83663518 23.9208986,6.49553571 23.7137277,6.28627232 C23.6132813,6.18791839 23.4814452,6.13141768 23.3412391,6.12932464 Z M14.5082309,8.34333161 L14.5082309,9.3729075 C12.4951173,9.55915179 11.2751116,10.6996371 11.2751116,12.421875 C11.2751116,13.8741632 12.183315,14.8723495 13.8448661,15.2992468 L14.5082309,15.46875 L14.5082309,18.8671875 C13.3970427,18.7416295 12.6813616,18.1222098 12.6060268,17.234933 L11.0281811,17.234933 C11.0365516,18.9655414 12.3758373,20.1353239 14.5082309,20.27553 L14.5082309,21.2444196 L15.5294362,21.2444196 L15.5294362,20.2692525 C17.7120536,20.0830077 18.973912,18.9425223 18.973912,17.115653 C18.973912,15.573382 18.0929132,14.6275114 16.2220982,14.171317 L15.5294362,14.0143693 L15.5294362,10.8042691 C16.5129745,10.9235491 17.1847098,11.5638954 17.214007,12.3821148 L18.7709266,12.3821148 C18.7248884,10.7205637 17.458845,9.54241071 15.5294362,9.3729075 L15.5294362,8.34333161 L14.5082309,8.34333161 Z M25.19322,8.57142857 C25.1032366,8.57352107 25.0153462,8.59863268 24.9379184,8.64257839 C24.6826173,8.791155 24.5947264,9.11760589 24.7433036,9.375 C24.8897882,9.63030161 25.2183316,9.71819196 25.4736327,9.56961482 C25.5970982,9.50055804 25.6870816,9.38337054 25.7247487,9.24525696 C25.7603239,9.10714286 25.7414898,8.96065875 25.6703405,8.83928571 C25.5719866,8.6697825 25.3899273,8.56724357 25.19322,8.57142857 Z M4.76911286,8.57142857 C4.58705357,8.58189161 4.42173536,8.68233804 4.32965946,8.83928571 C4.25851018,8.96275125 4.23967661,9.10923536 4.27525125,9.24525696 C4.31291839,9.38337054 4.40290179,9.50055804 4.52636732,9.57170786 C4.64773982,9.64285714 4.79422446,9.66169071 4.93233804,9.62611607 C5.07045214,9.58844893 5.18763964,9.49846554 5.25669643,9.375 C5.40527357,9.11969893 5.31738268,8.791155 5.06208161,8.64467089 C4.97209821,8.59235518 4.86955929,8.56724357 4.76911286,8.57142857 Z M14.5082309,10.7958986 L14.5082309,13.8009209 C13.4347098,13.583287 12.8676059,13.0538507 12.8676059,12.2879464 C12.8676059,11.473912 13.5539898,10.8482143 14.5082309,10.7958986 Z M3.60979339,11.4153182 C3.36914089,11.4174107 3.1598775,11.5785434 3.09709821,11.8108259 C3.02176339,12.0975166 3.19126661,12.3904854 3.47586482,12.4679132 C3.76255607,12.5453405 4.05552482,12.3758373 4.13295214,12.0891461 C4.17061929,11.9510325 4.15178571,11.8045479 4.08063643,11.6810829 C4.00948661,11.5597098 3.89229911,11.4697264 3.75418554,11.4320593 C3.70814732,11.4195032 3.66001661,11.4132257 3.60979339,11.4153182 Z M26.3881141,11.4153182 C26.375558,11.4132257 26.3630025,11.4153182 26.3504464,11.4153182 C26.3148718,11.4174107 26.2792971,11.4236887 26.243722,11.4341518 C25.9591237,11.5094866 25.7896205,11.8024554 25.8649554,12.0891461 C25.9423827,12.3758373 26.2353514,12.5453405 26.5220427,12.4679132 C26.8087334,12.3904854 26.9782366,12.0975166 26.9008093,11.8108259 C26.83803,11.5785434 26.6287666,11.4174107 26.3881141,11.4153182 Z M3.21428571,14.4642857 C2.91922446,14.4642857 2.67857143,14.7049387 2.67857143,15 C2.67857143,15.2950612 2.91922446,15.5357143 3.21428571,15.5357143 C3.50934696,15.5357143 3.75,15.2950612 3.75,15 C3.75,14.7049387 3.50934696,14.4642857 3.21428571,14.4642857 Z M26.7857143,14.4642857 C26.490653,14.4642857 26.25,14.7049387 26.25,15 C26.25,15.2950612 26.490653,15.5357143 26.7857143,15.5357143 C27.0807755,15.5357143 27.3214286,15.2950612 27.3214286,15 C27.3214286,14.7049387 27.0807755,14.4642857 26.7857143,14.4642857 Z M15.5294362,15.6633648 C16.7954802,15.9165739 17.3856027,16.4313616 17.3856027,17.2872487 C17.3856027,18.2352123 16.7075893,18.8148718 15.5294362,18.8839286 L15.5294362,15.6633648 Z M3.62025696,17.5132532 C3.60770089,17.5132532 3.59514536,17.5153462 3.58258929,17.5153462 C3.54701464,17.5174387 3.51144,17.5237168 3.47586482,17.5341798 C3.19126661,17.6095146 3.02176339,17.9024834 3.09709821,18.1891741 C3.17452554,18.4758648 3.46749429,18.6453686 3.75418554,18.5679407 C4.04087625,18.4905134 4.21037946,18.1975446 4.13295214,17.9129464 C4.07017286,17.6785714 3.86090946,17.5174387 3.62025696,17.5132532 Z M26.3776505,17.5153463 C26.136998,17.5174388 25.9277346,17.6806639 25.8649554,17.9129464 C25.7896205,18.1996371 25.9591237,18.4926059 26.243722,18.5679407 C26.5304132,18.6453686 26.823382,18.4758648 26.9008093,18.1891741 C26.9782366,17.9045759 26.8087334,17.6116071 26.5220427,17.5341798 C26.4760045,17.5216237 26.4278737,17.5153463 26.3776505,17.5153463 Z M4.77957589,20.3571429 C4.69168554,20.3592354 4.60379464,20.384347 4.52636732,20.4282927 C4.26897321,20.5768693 4.18108286,20.9033202 4.32756696,21.1607143 C4.39871679,21.2820873 4.51590429,21.3720702 4.65401786,21.4097379 C4.79213196,21.447405 4.93861607,21.4285714 5.06208161,21.3553291 C5.18345411,21.2862723 5.2734375,21.1690848 5.31110518,21.0309713 C5.34667982,20.8928571 5.32784625,20.746373 5.25669643,20.625 C5.1583425,20.4554968 4.97628375,20.3529579 4.77957589,20.3571429 Z M25.1806639,20.3571429 C24.9986052,20.3676059 24.833287,20.4680523 24.7433036,20.625 C24.5947264,20.8823941 24.6826173,21.208845 24.9379184,21.3574221 C25.0613839,21.4285714 25.2078686,21.447405 25.3438896,21.4118304 C25.4820032,21.3741632 25.5991907,21.2841798 25.6703405,21.1607143 C25.7414898,21.0393418 25.7603239,20.8928571 25.7247487,20.7547436 C25.6870816,20.6166295 25.5970982,20.499442 25.4736327,20.4303852 C25.3857423,20.3780695 25.2832034,20.3529579 25.1806639,20.3571429 Z M6.67340946,22.7992468 C6.52901786,22.7950613 6.38881125,22.8515625 6.28627232,22.9541014 C6.18582589,23.0545479 6.12932464,23.1905695 6.12932464,23.3328686 C6.12932464,23.4751677 6.18582589,23.6111888 6.28627232,23.7137277 C6.49762821,23.9208986 6.83663518,23.9208986 7.04589857,23.7116352 C7.25306946,23.5023718 7.25306946,23.1633648 7.04589857,22.9541014 C6.94545214,22.855748 6.81361607,22.7992468 6.67340946,22.7992468 Z M23.3412391,22.7992468 C23.196847,22.7950613 23.0566409,22.8515625 22.9541014,22.9541014 C22.744838,23.1633648 22.744838,23.5044643 22.9541014,23.7137277 C23.1633648,23.9208986 23.5023718,23.9208986 23.7116352,23.7137277 C23.9208986,23.5044643 23.9208986,23.1633648 23.7116352,22.9541014 C23.6132812,22.855748 23.4814452,22.8013393 23.3412391,22.7992468 Z M20.8782086,24.6700612 C20.7903182,24.6721543 20.7024273,24.6972659 20.625,24.7433036 C20.3676059,24.8897882 20.2797155,25.2183316 20.4282927,25.4736327 C20.5768693,25.7289343 20.9033202,25.8189177 21.1607143,25.6703405 C21.2820873,25.5991907 21.3720702,25.4820032 21.4097379,25.3438896 C21.447405,25.2078686 21.4285714,25.0613839 21.3553291,24.9379184 C21.2590682,24.7684152 21.0749164,24.6658763 20.8782086,24.6700612 Z M9.08203125,24.6721543 C8.89997196,24.6805248 8.73465429,24.7809713 8.64257839,24.9379184 C8.57142857,25.0613839 8.552595,25.2078686 8.58816964,25.3459821 C8.62583732,25.4840963 8.71582018,25.6012838 8.83928571,25.672433 C9.09458732,25.8189177 9.42313071,25.7310268 9.56961482,25.4736327 C9.71819196,25.2183316 9.63030161,24.8918807 9.375,24.7433036 C9.28501661,24.6909879 9.18457018,24.6679688 9.08203125,24.6721543 Z M11.9447545,25.8482143 C11.7041014,25.8503068 11.4927455,26.0135325 11.4320593,26.245815 C11.354632,26.5325057 11.5241352,26.8254745 11.8108259,26.9029018 C12.0954241,26.9782366 12.3883929,26.8087334 12.4658202,26.5241352 C12.543248,26.2374445 12.3737443,25.9444757 12.0870536,25.8670479 C12.0410159,25.8544923 11.9928852,25.8482143 11.9447545,25.8482143 Z M18.0698941,25.8482143 C18.0154854,25.8482143 17.9631696,25.8523998 17.9108539,25.8670479 C17.6241632,25.9444757 17.4546595,26.2374445 17.5320873,26.5241352 C17.6095146,26.8087334 17.9024834,26.9782366 18.1891741,26.9029018 C18.4737723,26.8254745 18.6432755,26.5325057 18.5658482,26.245815 C18.505162,26.0198105 18.3042691,25.8586773 18.0698941,25.8482143 Z M15,26.25 C14.7049387,26.25 14.4642857,26.490653 14.4642857,26.7857143 C14.4642857,27.0807755 14.7049387,27.3214286 15,27.3214286 C15.2950612,27.3214286 15.5357143,27.0807755 15.5357143,26.7857143 C15.5357143,26.490653 15.2950612,26.25 15,26.25 Z" id="Shape"></path>
                    </g>
                </g>
            </g>
        </g>
    </g>
</svg>