<svg width="624" height="780" viewBox="0 0 624 780" fill="none" xmlns="http://www.w3.org/2000/svg">
<g clip-path="url(#clip0_1121_732)">
<path d="M461.766 261.283L220.746 122.248C211.85 117.112 201.759 114.409 191.487 114.41C181.215 114.412 171.124 117.118 162.23 122.257C153.336 127.396 145.951 134.786 140.82 143.685C135.688 152.583 132.99 162.676 132.996 172.948V451.018C132.99 461.29 135.688 471.382 140.82 480.281C145.951 489.179 153.336 496.569 162.23 501.708C171.124 506.847 181.215 509.554 191.487 509.555C201.759 509.557 211.85 506.854 220.746 501.718L461.766 362.683C470.677 357.553 478.078 350.166 483.225 341.265C488.371 332.364 491.081 322.264 491.081 311.983C491.081 301.701 488.371 291.601 483.225 282.7C478.078 273.799 470.677 266.412 461.766 261.283Z" fill="#FF5000"/>
</g>
<defs>
<clipPath id="clip0_1121_732">
<rect width="624" height="780" fill="white"/>
</clipPath>
</defs>
</svg>
