<?xml version="1.0" encoding="UTF-8"?>
<svg width="30px" height="30px" viewBox="0 0 30 30" version="1.1" xmlns="http://www.w3.org/2000/svg" xmlns:xlink="http://www.w3.org/1999/xlink">
    <title>Shape</title>
    <g id="Page-1" stroke="none" stroke-width="1" fill="none" fill-rule="evenodd">
        <g id="MODELO-01-Copy-6" transform="translate(-706.000000, -877.000000)" fill="#FF670B" fill-rule="nonzero">
            <g id="Group-8" transform="translate(185.000000, 768.000000)">
                <g id="Feature_2" transform="translate(395.000000, 109.000000)">
                    <path d="M129.848909,0.00294376441 C129.820908,0.00803524032 129.792907,0.0156714767 129.767451,0.0233083647 C129.464527,0.0920390536 129.250699,0.364415745 129.258336,0.674975574 L129.258336,6.53998046 L135.123341,6.53998046 C135.357534,6.54252587 135.576454,6.42033827 135.696095,6.21669227 C135.813192,6.01304626 135.813192,5.76358024 135.696095,5.55993423 C135.576454,5.35628823 135.357534,5.23410063 135.123341,5.23664604 L131.416984,5.23664604 C133.886192,2.82089549 137.259079,1.32664278 140.988346,1.32664278 C148.553795,1.32664278 154.673357,7.44620517 154.673357,15.0116542 C154.673357,22.5771032 148.553795,28.6966656 140.988346,28.6966656 C133.422897,28.6966656 127.303334,22.5771032 127.303334,15.0116542 C127.303334,12.7486381 127.860816,10.617992 128.830679,8.73935729 L127.669897,8.14878388 C126.605847,10.2056085 126,12.5399007 126,15.0116542 C126,23.2822273 132.717773,30 140.988346,30 C149.258919,30 155.976692,23.2822273 155.976692,15.0116542 C155.976692,6.74108105 149.258919,0.0233083647 140.988346,0.0233083647 C136.9307,0.0233083647 133.25998,1.6550218 130.56167,4.27950983 L130.56167,0.674975574 C130.569307,0.486603347 130.49294,0.305867357 130.358024,0.178588279 C130.220564,0.0487644409 130.034736,-0.0148754238 129.848909,0.00294376441 Z M140.988346,1.97830999 C140.62942,1.97830999 140.336679,2.27105129 140.336679,2.6299772 C140.336679,2.98890312 140.62942,3.28164441 140.988346,3.28164441 C141.347272,3.28164441 141.640013,2.98890312 141.640013,2.6299772 C141.640013,2.27105129 141.347272,1.97830999 140.988346,1.97830999 Z M147.179184,3.62784262 C146.820258,3.62784262 146.527517,3.92058391 146.527517,4.27950983 C146.527517,4.63843574 146.820258,4.93117704 147.179184,4.93117704 C147.53811,4.93117704 147.830852,4.63843574 147.830852,4.27950983 C147.830852,3.92058391 147.53811,3.62784262 147.179184,3.62784262 Z M151.72049,8.16914848 C151.361564,8.16914848 151.068823,8.46188978 151.068823,8.82081569 C151.068823,9.17974161 151.361564,9.4724829 151.72049,9.4724829 C152.079416,9.4724829 152.372157,9.17974161 152.372157,8.82081569 C152.372157,8.46188978 152.079416,8.16914848 151.72049,8.16914848 Z M136.671051,9.73722271 C134.863693,9.73722271 133.575631,10.9158241 133.575631,12.6086313 L133.575631,12.6289959 L134.919695,12.6289959 L134.919695,12.6086313 C134.919695,11.6285851 135.596818,10.9794633 136.609957,10.9794633 C137.556911,10.9794633 138.279854,11.6056751 138.279854,12.4457145 C138.279854,13.1202918 137.982022,13.6090422 136.752509,14.8894666 L133.65709,18.1070734 L133.65709,19.145668 L139.847928,19.145668 L139.847928,17.8626982 L135.632456,17.8626982 L135.632456,17.7608752 L137.689281,15.683686 C139.229353,14.1257941 139.685011,13.3366661 139.685011,12.3642561 C139.685011,10.8496388 138.414769,9.73722271 136.671051,9.73722271 Z M145.285276,9.96123331 C143.648472,12.4126222 142.278953,14.5483599 141.456732,16.0502488 L141.456732,17.3739478 L145.936944,17.3739478 L145.936944,19.145668 L147.301372,19.145668 L147.301372,17.3739478 L148.584342,17.3739478 L148.584342,16.090978 L147.301372,16.090978 L147.301372,9.96123331 L145.285276,9.96123331 Z M145.87585,11.2238385 L145.957308,11.2238385 L145.957308,16.1317072 L142.82116,16.1317072 L142.82116,16.0298842 C143.903029,14.1512501 144.96708,12.5399007 145.87585,11.2238385 Z M128.606669,14.359987 C128.247743,14.359987 127.955002,14.6527283 127.955002,15.0116542 C127.955002,15.3705801 128.247743,15.6633214 128.606669,15.6633214 C128.965595,15.6633214 129.258336,15.3705801 129.258336,15.0116542 C129.258336,14.6527283 128.965595,14.359987 128.606669,14.359987 Z M153.370023,14.359987 C153.011097,14.359987 152.718356,14.6527283 152.718356,15.0116542 C152.718356,15.3705801 153.011097,15.6633214 153.370023,15.6633214 C153.728949,15.6633214 154.02169,15.3705801 154.02169,15.0116542 C154.02169,14.6527283 153.728949,14.359987 153.370023,14.359987 Z M130.256201,20.5508255 C129.897276,20.5508255 129.604534,20.8435668 129.604534,21.2024927 C129.604534,21.5614186 129.897276,21.8541599 130.256201,21.8541599 C130.615127,21.8541599 130.907869,21.5614186 130.907869,21.2024927 C130.907869,20.8435668 130.615127,20.5508255 130.256201,20.5508255 Z M151.72049,20.5508255 C151.361564,20.5508255 151.068823,20.8435668 151.068823,21.2024927 C151.068823,21.5614186 151.361564,21.8541599 151.72049,21.8541599 C152.079416,21.8541599 152.372157,21.5614186 152.372157,21.2024927 C152.372157,20.8435668 152.079416,20.5508255 151.72049,20.5508255 Z M134.797507,25.0921313 C134.438581,25.0921313 134.14584,25.3848726 134.14584,25.7437985 C134.14584,26.1027245 134.438581,26.3954657 134.797507,26.3954657 C135.156433,26.3954657 135.449175,26.1027245 135.449175,25.7437985 C135.449175,25.3848726 135.156433,25.0921313 134.797507,25.0921313 Z M147.179184,25.0921313 C146.820258,25.0921313 146.527517,25.3848726 146.527517,25.7437985 C146.527517,26.1027245 146.820258,26.3954657 147.179184,26.3954657 C147.53811,26.3954657 147.830852,26.1027245 147.830852,25.7437985 C147.830852,25.3848726 147.53811,25.0921313 147.179184,25.0921313 Z M140.988346,26.741664 C140.62942,26.741664 140.336679,27.0344052 140.336679,27.3933312 C140.336679,27.7522571 140.62942,28.0449984 140.988346,28.0449984 C141.347272,28.0449984 141.640013,27.7522571 141.640013,27.3933312 C141.640013,27.0344052 141.347272,26.741664 140.988346,26.741664 Z" id="Shape"></path>
                </g>
            </g>
        </g>
    </g>
</svg>