<?xml version="1.0" encoding="UTF-8"?>
<svg width="34px" height="30px" viewBox="0 0 34 30" version="1.1" xmlns="http://www.w3.org/2000/svg" xmlns:xlink="http://www.w3.org/1999/xlink">
    <title>Shape</title>
    <g id="Page-1" stroke="none" stroke-width="1" fill="none" fill-rule="evenodd">
        <g id="MODELO-01-Copy-6" transform="translate(-1122.000000, -876.000000)" fill="#FF670B" fill-rule="nonzero">
            <g id="Group-8" transform="translate(185.000000, 768.000000)">
                <g id="Feature_3" transform="translate(837.000000, 108.000000)">
                    <g id="speed" transform="translate(100.000000, 0.000000)">
                        <path d="M16.9551789,0.00168244592 C12.5992034,-0.0591616417 8.47984306,1.53179509 5.28666292,4.52666905 C1.92672502,7.67928685 0,12.1276549 0,16.7315134 C0,20.2627157 1.09068402,23.6429348 3.15036447,26.5003467 C3.15937838,26.5138672 3.17289897,26.5251351 3.18191289,26.5386557 L2.88445361,26.5386557 C1.93123169,26.5386557 1.15378144,27.3161059 1.15378144,28.2693278 C1.15378144,29.2225498 1.93123169,30 2.88445361,30 L30.5752083,30 C31.5284302,30 32.3058804,29.2225498 32.3058804,28.2693278 C32.3058804,27.3161059 31.5284302,26.5386557 30.5752083,26.5386557 L30.277749,26.5386557 C30.2890163,26.5273884 30.2980302,26.5161212 30.3070441,26.5026 C32.5943258,23.329701 33.7007843,19.4199141 33.4145923,15.4898461 C32.8174204,7.21281647 26.1178263,0.567305915 17.8295289,0.0377381161 C17.5388302,0.0174569458 17.2458776,0.00618969313 16.9551789,0.00168244592 Z M16.7185637,1.15546389 C17.0633459,1.15546389 17.410382,1.16673114 17.7574175,1.18926623 C25.4710776,1.68277835 31.7064552,7.86632578 32.2630642,15.5754786 C32.5334817,19.2869593 31.5306835,22.8316822 29.3695967,25.8288095 C29.0496029,26.2727454 28.5267957,26.5386557 27.9679328,26.5386557 L25.6626232,26.5386557 C28.4298959,24.0282799 29.9983176,20.5196121 29.9983176,16.7315134 C29.9983176,16.4137729 29.7414212,16.1546227 29.4214268,16.1546227 C29.101433,16.1546227 28.8445361,16.4137729 28.8445361,16.7315134 C28.8445361,20.5782028 27.0778083,24.1116585 23.9973018,26.4237281 C23.9567395,26.4575304 23.9274444,26.4980933 23.8958954,26.5386557 L9.62235726,26.5386557 C6.48551395,24.2603879 4.61512578,20.6097513 4.61512578,16.7315134 C4.61512578,16.4137729 4.35822942,16.1546227 4.03823506,16.1546227 C3.71824127,16.1546227 3.46134433,16.4137729 3.46134433,16.7315134 C3.46134433,20.4835564 5.05680774,24.0395472 7.79703867,26.5386557 L5.49172911,26.5386557 C4.93286623,26.5386557 4.40780567,26.2727454 4.08781189,25.8265562 C2.16784746,23.1651972 1.15378144,20.01934 1.15378144,16.7315134 C1.15378144,12.3822985 2.90022811,8.34631675 6.07538042,5.36721671 C8.9958897,2.6292397 12.7411727,1.15546389 16.7185637,1.15546389 Z M16.7298309,4.0399175 C16.4098372,4.0399175 16.1529402,4.29906777 16.1529402,4.61680822 L16.1529402,5.77058967 C16.1529402,6.08833012 16.4098372,6.34748039 16.7298309,6.34748039 C17.0498253,6.34748039 17.3067217,6.08833012 17.3067217,5.77058967 L17.3067217,4.61680822 C17.3067217,4.29906777 17.0498253,4.0399175 16.7298309,4.0399175 Z M13.5997482,4.46582496 C13.5253835,4.45681104 13.4465116,4.46131829 13.369893,4.48159946 C13.0634198,4.56497805 12.8786348,4.88046517 12.9620134,5.18693836 L13.2594727,6.3024108 C13.3293307,6.56156108 13.5614392,6.73057217 13.8183356,6.73057217 C13.8679124,6.73057217 13.9174887,6.72606493 13.9693188,6.71029043 C14.275792,6.62916517 14.4583237,6.31142472 14.3771985,6.00495152 L14.0774859,4.88947908 C14.0143884,4.65737114 13.8228428,4.49737396 13.5997482,4.46582496 Z M19.8621676,4.46807887 C19.639073,4.4996273 19.4452735,4.65962448 19.382176,4.88947908 L19.0824634,6.00495152 C19.0013382,6.31142472 19.1838698,6.62916517 19.490343,6.71029043 C19.5421732,6.72381159 19.59175,6.73057217 19.6413263,6.73057217 C19.8959693,6.73057217 20.1303312,6.56156108 20.2001892,6.3024108 L20.4976485,5.18693836 C20.5810271,4.88046517 20.396242,4.56497805 20.0897688,4.48159946 C20.0131503,4.46131829 19.9365323,4.45681104 19.8621676,4.46807887 Z M10.4561443,5.70523891 C10.3817797,5.71425283 10.307415,5.73904124 10.2398103,5.77960359 C9.96263221,5.93734743 9.8702397,6.29114355 10.0302369,6.56606775 L10.6071276,7.56435926 C10.7130413,7.75139819 10.9068402,7.85280462 11.1051464,7.85280462 C11.2042995,7.85280462 11.3034526,7.83027011 11.3935918,7.77843994 C11.6707699,7.61844276 11.7631624,7.26464664 11.6031652,6.98746853 L11.0262745,5.98917702 C10.9068402,5.78411083 10.6792389,5.67819716 10.4561443,5.70523891 Z M23.0035175,5.70749225 C22.7781696,5.67819716 22.5505683,5.78411083 22.4333874,5.98917702 L21.8564967,6.98972187 C21.6964995,7.26464664 21.788892,7.61844276 22.0660701,7.77843994 C22.1562093,7.83027011 22.2553624,7.85505795 22.3545155,7.85505795 C22.5528217,7.85505795 22.7466212,7.75139819 22.8525343,7.56661259 L23.429425,6.56606775 C23.5894222,6.29114355 23.4947763,5.93960077 23.2198516,5.77960359 C23.1499936,5.73904124 23.0756289,5.71650616 23.0035175,5.70749225 Z M7.95928918,7.67252627 C7.81281317,7.67252627 7.66408324,7.72886311 7.55140956,7.84153737 C7.32606162,8.0668853 7.32606162,8.43194868 7.55140956,8.65729661 L8.36716881,9.47305644 C8.47984306,9.58573012 8.62631908,9.64206754 8.77504901,9.64206754 C8.92377836,9.64206754 9.07025437,9.58573012 9.18292863,9.47305644 C9.40827657,9.2477085 9.40827657,8.88264455 9.18292863,8.65729661 L8.36716881,7.84153737 C8.25449513,7.72886311 8.1057652,7.67252627 7.95928918,7.67252627 Z M25.5003727,7.67252627 C25.3538967,7.67252627 25.2051668,7.72886311 25.0924931,7.84153737 L24.2767333,8.65729661 C24.0513853,8.88264455 24.0513853,9.2477085 24.2767333,9.47305644 C24.3894075,9.58573012 24.5358835,9.64206754 24.6846135,9.64206754 C24.8333428,9.64206754 24.9798188,9.58573012 25.0924931,9.47305644 L25.9082523,8.65729661 C26.1336003,8.43194868 26.1336003,8.0668853 25.9082523,7.84153737 C25.7955786,7.72886311 25.6468487,7.67252627 25.5003727,7.67252627 Z M6.05960592,10.246 C5.83651189,10.2189583 5.60891004,10.322618 5.48947578,10.5299381 C5.3294786,10.8048629 5.42412502,11.158659 5.69904922,11.3164023 L6.69734073,11.893293 C6.78973324,11.9473765 6.88888633,11.9721649 6.98578609,11.9721649 C7.18634561,11.9721649 7.38014513,11.8685052 7.48831214,11.6837196 C7.6460554,11.4087954 7.55140956,11.0549987 7.27423145,10.8972554 L6.27593994,10.3203647 C6.20833585,10.2798018 6.13397117,10.2550139 6.05960592,10.246 Z M27.3978026,10.246 C27.3234374,10.2550139 27.2490727,10.2798018 27.1814686,10.3203647 L26.1831771,10.8972554 C25.9082523,11.0549987 25.8136065,11.4087954 25.9713498,11.6837196 C26.0795168,11.8685052 26.2733163,11.9721649 26.4738758,11.9721649 C26.5707756,11.9721649 26.6699286,11.9473765 26.7600678,11.893293 L27.7583593,11.3164023 C28.0355369,11.158659 28.1301833,10.8048629 27.9701861,10.5299381 C27.8507518,10.322618 27.6208967,10.2189583 27.3978026,10.246 Z M22.4987382,10.3857154 C22.3522621,10.3857154 22.2035322,10.4420523 22.0908585,10.5547265 L17.4712255,15.174359 C17.2458776,15.066192 16.9957418,15.0008412 16.7298309,15.0008412 C15.776609,15.0008412 14.9991588,15.7782915 14.9991588,16.7315134 C14.9991588,17.6847353 15.776609,18.4621856 16.7298309,18.4621856 C17.6830529,18.4621856 18.4605031,17.6847353 18.4605031,16.7315134 C18.4605031,16.4656031 18.3951524,16.2154668 18.2869853,15.9901188 L22.9066178,11.3704858 C23.1319657,11.1451379 23.1319657,10.7800745 22.9066178,10.5547265 C22.7939441,10.4420523 22.6452142,10.3857154 22.4987382,10.3857154 Z M4.66920928,13.2363667 C4.44836859,13.2679157 4.25456908,13.4301662 4.19147165,13.6600208 C4.1103464,13.966494 4.29287808,14.2842351 4.60160519,14.3676137 L5.71482372,14.6673263 C5.76440055,14.6785935 5.81397681,14.6853541 5.86580698,14.6853541 C6.11819667,14.6853541 6.35255853,14.516343 6.42016262,14.2594466 C6.50354179,13.9507201 6.32100953,13.6329791 6.012283,13.5496005 L4.89906447,13.2521412 C4.82244588,13.2318601 4.74357396,13.2273528 4.66920928,13.2363667 Z M28.7904526,13.2363667 C28.7160879,13.2273528 28.6394693,13.2318601 28.5628513,13.2521412 L27.4473789,13.5496005 C27.1386524,13.6329791 26.9561207,13.9507201 27.0394993,14.2594466 C27.1071034,14.516343 27.3414652,14.6853541 27.5961088,14.6853541 C27.6456851,14.6853541 27.6952619,14.6808474 27.7448382,14.6673263 L28.8603106,14.3676137 C29.1667838,14.2842351 29.3515688,13.968748 29.2681902,13.6600208 C29.2073461,13.4279129 29.0135472,13.2679157 28.7904526,13.2363667 Z M12.1147052,20.7697484 C11.7947114,20.7697484 11.5378144,21.0288987 11.5378144,21.3466392 C11.5378144,21.6643796 11.7947114,21.9235299 12.1147052,21.9235299 L21.3449567,21.9235299 C21.6649511,21.9235299 21.9218474,21.6643796 21.9218474,21.3466392 C21.9218474,21.0288987 21.6649511,20.7697484 21.3449567,20.7697484 L12.1147052,20.7697484 Z M14.4222681,23.0773113 C14.1022743,23.0773113 13.8453773,23.3364616 13.8453773,23.6542021 C13.8453773,23.9719425 14.1022743,24.2310928 14.4222681,24.2310928 L19.0373938,24.2310928 C19.3573882,24.2310928 19.6142846,23.9719425 19.6142846,23.6542021 C19.6142846,23.3364616 19.3573882,23.0773113 19.0373938,23.0773113 L14.4222681,23.0773113 Z M2.88445361,27.6924371 L9.41954382,27.6924371 C9.42630441,27.6924371 9.42855774,27.6946904 9.43531832,27.6946904 C9.43757166,27.6946904 9.43982499,27.6924371 9.44207891,27.6924371 L30.5752083,27.6924371 C30.8929487,27.6924371 31.152099,27.9515874 31.152099,28.2693278 C31.152099,28.5870683 30.8929487,28.8462186 30.5752083,28.8462186 L2.88445361,28.8462186 C2.56671316,28.8462186 2.30756289,28.5870683 2.30756289,28.2693278 C2.30756289,27.9515874 2.56671316,27.6924371 2.88445361,27.6924371 Z" id="Shape"></path>
                    </g>
                </g>
            </g>
        </g>
    </g>
</svg>