<?xml version="1.0" encoding="UTF-8"?>
<svg width="105px" height="33px" viewBox="0 0 105 33" version="1.1" xmlns="http://www.w3.org/2000/svg" xmlns:xlink="http://www.w3.org/1999/xlink">
    <title>Group 33 Copy 4</title>
    <g id="Page-1" stroke="none" stroke-width="1" fill="none" fill-rule="evenodd">
        <g id="Group-33-Copy-4">
            <g id="segunda-via-do-bolet" transform="translate(40.423828, 5.840332)" fill="#FFFFFF" fill-rule="nonzero">
                <path d="M2.63574219,9.28662109 C4.10839844,9.28662109 5.20019531,8.47412109 5.20019531,7.31884766 L5.20019531,7.3125 C5.20019531,6.37304688 4.71777344,5.84619141 3.38476562,5.52246094 L2.33740234,5.26855469 C1.60742188,5.09082031 1.30908203,4.77978516 1.30908203,4.32910156 L1.30908203,4.32275391 C1.30908203,3.73876953 1.80419922,3.3515625 2.60400391,3.3515625 C3.42285156,3.3515625 3.91162109,3.77685547 4.00048828,4.41796875 L4.00683594,4.46240234 L5.06054688,4.46240234 L5.05419922,4.37988281 C4.97167969,3.27539062 4.05126953,2.43115234 2.60400391,2.43115234 C1.17578125,2.43115234 0.179199219,3.23730469 0.179199219,4.37353516 L0.179199219,4.37988281 C0.179199219,5.33203125 0.782226562,5.90966797 2.02636719,6.20800781 L3.07373047,6.46191406 C3.82275391,6.64599609 4.0703125,6.91259766 4.0703125,7.38867188 L4.0703125,7.39501953 C4.0703125,7.99169922 3.53710938,8.36621094 2.64208984,8.36621094 C1.74072266,8.36621094 1.25195312,7.97900391 1.11865234,7.31884766 L1.10595703,7.25537109 L0.00146484375,7.25537109 L0.0078125,7.3125 C0.141113281,8.49316406 1.08056641,9.28662109 2.63574219,9.28662109 Z" id="Path"></path>
                <path d="M8.95957031,9.28662109 C10.4004883,9.28662109 11.4795898,8.42333984 11.6954102,7.33154297 L11.7081055,7.26806641 L10.6226562,7.26806641 L10.6036133,7.32519531 C10.4131836,7.89013672 9.82285156,8.30908203 8.98496094,8.30908203 C7.81064453,8.30908203 7.06162109,7.515625 7.03623047,6.15722656 L11.790625,6.15722656 L11.790625,5.75097656 C11.790625,3.77050781 10.6924805,2.43115234 8.88974609,2.43115234 C7.08701172,2.43115234 5.91904297,3.83398438 5.91904297,5.87792969 L5.91904297,5.88427734 C5.91904297,7.95996094 7.06162109,9.28662109 8.95957031,9.28662109 Z M8.88339844,3.40869141 C9.84824219,3.40869141 10.5591797,4.01171875 10.6670898,5.29394531 L7.05527344,5.29394531 C7.17587891,4.0625 7.92490234,3.40869141 8.88339844,3.40869141 Z" id="Shape"></path>
                <path d="M15.5944336,11.5083008 C17.3844727,11.5083008 18.5080078,10.5053711 18.5080078,8.97558594 L18.5080078,2.55810547 L17.4035156,2.55810547 L17.4035156,3.67529297 L17.378125,3.67529297 C16.971875,2.93896484 16.2355469,2.43115234 15.3024414,2.43115234 C13.6266602,2.43115234 12.4777344,3.76416016 12.4777344,5.81445312 L12.4777344,5.82080078 C12.4777344,7.88378906 13.6139648,9.22314453 15.2770508,9.22314453 C16.2228516,9.22314453 16.9845703,8.75341797 17.378125,8.0234375 L17.4035156,8.0234375 L17.4035156,8.86767578 C17.4035156,9.88964844 16.7433594,10.5307617 15.5817383,10.5307617 C14.6803711,10.5307617 14.0519531,10.2387695 13.8424805,9.76269531 L13.8170898,9.70556641 L12.70625,9.70556641 L12.7189453,9.76269531 C12.9347656,10.7402344 13.9630859,11.5083008 15.5944336,11.5083008 Z M15.5182617,8.24560547 C14.3439453,8.24560547 13.6076172,7.31884766 13.6076172,5.82080078 L13.6076172,5.81445312 C13.6076172,4.34814453 14.3439453,3.40869141 15.5182617,3.40869141 C16.6354492,3.40869141 17.4035156,4.36083984 17.4035156,5.81445312 L17.4035156,5.82080078 C17.4035156,7.28710938 16.6417969,8.24560547 15.5182617,8.24560547 Z" id="Shape"></path>
                <path d="M22.0896484,9.28662109 C23.0925781,9.28662109 23.7654297,8.8359375 24.1208984,8.22021484 L24.1462891,8.22021484 L24.1462891,9.15966797 L25.2507812,9.15966797 L25.2507812,2.55810547 L24.1462891,2.55810547 L24.1462891,6.44287109 C24.1462891,7.56640625 23.4670898,8.30908203 22.4260742,8.30908203 C21.4104492,8.30908203 20.9089844,7.71875 20.9089844,6.64599609 L20.9089844,2.55810547 L19.8044922,2.55810547 L19.8044922,6.84277344 C19.8044922,8.34716797 20.6423828,9.28662109 22.0896484,9.28662109 Z" id="Path"></path>
                <path d="M26.5853516,9.15966797 L27.6898438,9.15966797 L27.6898438,5.27490234 C27.6898438,4.15136719 28.369043,3.40869141 29.4100586,3.40869141 C30.4256836,3.40869141 30.9271484,3.99902344 30.9271484,5.07177734 L30.9271484,9.15966797 L32.0316406,9.15966797 L32.0316406,4.875 C32.0316406,3.37060547 31.19375,2.43115234 29.7464844,2.43115234 C28.7435547,2.43115234 28.0707031,2.88183594 27.7152344,3.49755859 L27.6898438,3.49755859 L27.6898438,2.55810547 L26.5853516,2.55810547 L26.5853516,9.15966797 Z" id="Path"></path>
                <path d="M35.8164062,9.28662109 C36.762207,9.28662109 37.4985352,8.81054688 37.9111328,8.04248047 L37.9365234,8.04248047 L37.9365234,9.15966797 L39.0410156,9.15966797 L39.0410156,0 L37.9365234,0 L37.9365234,3.66259766 L37.9111328,3.66259766 C37.4985352,2.90087891 36.7304688,2.43115234 35.7973633,2.43115234 C34.140625,2.43115234 33.0107422,3.77050781 33.0107422,5.85253906 L33.0107422,5.85888672 C33.0107422,7.94091797 34.1279297,9.28662109 35.8164062,9.28662109 Z M36.0322266,8.30908203 C34.8642578,8.30908203 34.140625,7.37597656 34.140625,5.85888672 L34.140625,5.85253906 C34.140625,4.34814453 34.8642578,3.40869141 36.0322266,3.40869141 C37.1430664,3.40869141 37.9428711,4.37988281 37.9428711,5.85253906 L37.9428711,5.85888672 C37.9428711,7.33789062 37.1494141,8.30908203 36.0322266,8.30908203 Z" id="Shape"></path>
                <path d="M42.3624023,9.28662109 C43.2447266,9.28662109 44.0381836,8.81054688 44.4253906,8.08691406 L44.4507812,8.08691406 L44.4507812,9.15966797 L45.5552734,9.15966797 L45.5552734,4.59570312 C45.5552734,3.27539062 44.5777344,2.43115234 43.0162109,2.43115234 C41.4610352,2.43115234 40.5152344,3.30712891 40.4200195,4.39257812 L40.4136719,4.46240234 L41.4800781,4.46240234 L41.4927734,4.40527344 C41.6197266,3.81494141 42.1529297,3.40869141 43.0035156,3.40869141 C43.9239258,3.40869141 44.4507812,3.89746094 44.4507812,4.70361328 L44.4507812,5.25585938 L42.5591797,5.36376953 C41.0420898,5.45263672 40.1661133,6.15722656 40.1661133,7.28076172 L40.1661133,7.29345703 C40.1661133,8.49316406 41.0484375,9.28662109 42.3624023,9.28662109 Z M41.2959961,7.29345703 L41.2959961,7.28076172 C41.2959961,6.66503906 41.8038086,6.27148438 42.6861328,6.22070312 L44.4507812,6.11279297 L44.4507812,6.65234375 C44.4507812,7.61083984 43.6509766,8.328125 42.6099609,8.328125 C41.8165039,8.328125 41.2959961,7.92822266 41.2959961,7.29345703 Z" id="Shape"></path>
                <polygon id="Path" points="51.2839844 9.15966797 52.4138672 9.15966797 54.8386719 2.55810547 53.6897461 2.55810547 51.8616211 7.98535156 51.8362305 7.98535156 50.0144531 2.55810547 48.852832 2.55810547"></polygon>
                <path d="M56.2240234,1.44091797 C56.6112305,1.44091797 56.915918,1.12988281 56.915918,0.749023438 C56.915918,0.361816406 56.6112305,0.0571289062 56.2240234,0.0571289062 C55.8431641,0.0571289062 55.5321289,0.361816406 55.5321289,0.749023438 C55.5321289,1.12988281 55.8431641,1.44091797 56.2240234,1.44091797 Z M55.6717773,9.15966797 L56.7762695,9.15966797 L56.7762695,2.55810547 L55.6717773,2.55810547 L55.6717773,9.15966797 Z" id="Shape"></path>
                <path d="M60.1103516,9.28662109 C60.9926758,9.28662109 61.7861328,8.81054688 62.1733398,8.08691406 L62.1987305,8.08691406 L62.1987305,9.15966797 L63.3032227,9.15966797 L63.3032227,4.59570312 C63.3032227,3.27539062 62.3256836,2.43115234 60.7641602,2.43115234 C59.2089844,2.43115234 58.2631836,3.30712891 58.1679688,4.39257812 L58.1616211,4.46240234 L59.2280273,4.46240234 L59.2407227,4.40527344 C59.3676758,3.81494141 59.9008789,3.40869141 60.7514648,3.40869141 C61.671875,3.40869141 62.1987305,3.89746094 62.1987305,4.70361328 L62.1987305,5.25585938 L60.3071289,5.36376953 C58.7900391,5.45263672 57.9140625,6.15722656 57.9140625,7.28076172 L57.9140625,7.29345703 C57.9140625,8.49316406 58.7963867,9.28662109 60.1103516,9.28662109 Z M59.0439453,7.29345703 L59.0439453,7.28076172 C59.0439453,6.66503906 59.5517578,6.27148438 60.434082,6.22070312 L62.1987305,6.11279297 L62.1987305,6.65234375 C62.1987305,7.61083984 61.3989258,8.328125 60.3579102,8.328125 C59.5644531,8.328125 59.0439453,7.92822266 59.0439453,7.29345703 Z" id="Shape"></path>
                <path d="M3.29980469,22.3261719 C4.47290039,22.3261719 5.3659668,21.7358398 5.79736328,20.7746582 L5.84277344,20.7746582 L5.84277344,22.159668 L8.05273438,22.159668 L8.05273438,11.2385254 L5.84277344,11.2385254 L5.84277344,15.4541016 L5.79736328,15.4541016 C5.35839844,14.4702148 4.45019531,13.8798828 3.29980469,13.8798828 C1.25634766,13.8798828 0,15.4541016 0,18.095459 L0,18.1030273 C0,20.7368164 1.25634766,22.3261719 3.29980469,22.3261719 Z M4.04150391,20.4946289 C2.93652344,20.4946289 2.24780273,19.5788574 2.24780273,18.1030273 L2.24780273,18.095459 C2.24780273,16.6120605 2.9440918,15.7114258 4.04150391,15.7114258 C5.10864258,15.7114258 5.8503418,16.6347656 5.8503418,18.095459 L5.8503418,18.1030273 C5.8503418,19.5712891 5.11621094,20.4946289 4.04150391,20.4946289 Z" id="Shape"></path>
                <path d="M13.1206322,22.3261719 C15.5727806,22.3261719 17.139431,20.7519531 17.139431,18.1030273 L17.139431,18.0878906 C17.139431,15.4616699 15.5425072,13.8798828 13.1130638,13.8798828 C10.6911888,13.8798828 9.10183337,15.4768066 9.10183337,18.0878906 L9.10183337,18.1030273 C9.10183337,20.7443848 10.653347,22.3261719 13.1206322,22.3261719 Z M13.1282006,20.5930176 C12.0383568,20.5930176 11.3496361,19.6923828 11.3496361,18.1030273 L11.3496361,18.0878906 C11.3496361,16.5212402 12.0459252,15.6130371 13.1130638,15.6130371 C14.1877709,15.6130371 14.8916283,16.5212402 14.8916283,18.0878906 L14.8916283,18.1030273 C14.8916283,19.6848145 14.2029076,20.5930176 13.1282006,20.5930176 Z" id="Shape"></path>
                <path d="M25.8826485,22.3261719 C27.9261056,22.3261719 29.1900216,20.7368164 29.1900216,18.1030273 L29.1900216,18.095459 C29.1900216,15.4541016 27.9261056,13.8798828 25.8902169,13.8798828 C24.7322579,13.8798828 23.8316232,14.4702148 23.3850899,15.4541016 L23.3396798,15.4541016 L23.3396798,11.2385254 L21.1297189,11.2385254 L21.1297189,22.159668 L23.3396798,22.159668 L23.3396798,20.7746582 L23.3850899,20.7746582 C23.8240548,21.7358398 24.7171212,22.3261719 25.8826485,22.3261719 Z M25.1485177,20.4946289 C24.0738107,20.4946289 23.3396798,19.5712891 23.3396798,18.1030273 L23.3396798,18.095459 C23.3396798,16.6347656 24.081379,15.7114258 25.1485177,15.7114258 C26.2459298,15.7114258 26.9422189,16.6120605 26.9422189,18.095459 L26.9422189,18.1030273 C26.9422189,19.5788574 26.2459298,20.4946289 25.1485177,20.4946289 Z" id="Shape"></path>
                <path d="M33.9173432,22.3261719 C36.3694917,22.3261719 37.9361421,20.7519531 37.9361421,18.1030273 L37.9361421,18.0878906 C37.9361421,15.4616699 36.3392182,13.8798828 33.9097749,13.8798828 C31.4878999,13.8798828 29.8985444,15.4768066 29.8985444,18.0878906 L29.8985444,18.1030273 C29.8985444,20.7443848 31.4500581,22.3261719 33.9173432,22.3261719 Z M33.9249116,20.5930176 C32.8350678,20.5930176 32.1463471,19.6923828 32.1463471,18.1030273 L32.1463471,18.0878906 C32.1463471,16.5212402 32.8426362,15.6130371 33.9097749,15.6130371 C34.9844819,15.6130371 35.6883393,16.5212402 35.6883393,18.0878906 L35.6883393,18.1030273 C35.6883393,19.6848145 34.9996186,20.5930176 33.9249116,20.5930176 Z" id="Shape"></path>
                <polygon id="Path" points="38.9928094 22.159668 41.2027704 22.159668 41.2027704 11.2385254 38.9928094 11.2385254"></polygon>
                <path d="M46.2555315,22.3261719 C48.5714494,22.3261719 49.6915666,20.9562988 49.9413225,19.760498 L49.9640276,19.6772461 L47.9357072,19.6772461 L47.9205705,19.7226562 C47.761635,20.1767578 47.2091447,20.6762695 46.3009416,20.6762695 C45.1732561,20.6762695 44.4693986,19.9194336 44.4466936,18.6252441 L50.0321428,18.6252441 L50.0321428,17.9440918 C50.0321428,15.4919434 48.541176,13.8798828 46.1647111,13.8798828 C43.7882463,13.8798828 42.2670061,15.5297852 42.2670061,18.1105957 L42.2670061,18.1181641 C42.2670061,20.7141113 43.7731096,22.3261719 46.2555315,22.3261719 Z M46.2025529,15.5297852 C47.1183244,15.5297852 47.7767717,16.1125488 47.9130022,17.232666 L44.4693986,17.232666 C44.6131975,16.1352539 45.2943498,15.5297852 46.2025529,15.5297852 Z" id="Shape"></path>
                <path d="M54.2599527,22.3261719 C54.7216226,22.3261719 55.0773355,22.2807617 55.3270914,22.2429199 L55.3270914,20.623291 C55.1908609,20.6384277 55.0470621,20.6611328 54.8502848,20.6611328 C54.1842691,20.6611328 53.843693,20.4038086 53.843693,19.6469727 L53.843693,15.7114258 L55.3270914,15.7114258 L55.3270914,14.0463867 L53.843693,14.0463867 L53.843693,12.0634766 L51.6110269,12.0634766 L51.6110269,14.0463867 L50.4833414,14.0463867 L50.4833414,15.7114258 L51.6110269,15.7114258 L51.6110269,19.8891602 C51.6110269,21.6298828 52.4586832,22.3261719 54.2599527,22.3261719 Z" id="Path"></path>
                <path d="M60.0241396,22.3261719 C62.476288,22.3261719 64.0429384,20.7519531 64.0429384,18.1030273 L64.0429384,18.0878906 C64.0429384,15.4616699 62.4460146,13.8798828 60.0165712,13.8798828 C57.5946962,13.8798828 56.0053408,15.4768066 56.0053408,18.0878906 L56.0053408,18.1030273 C56.0053408,20.7443848 57.5568544,22.3261719 60.0241396,22.3261719 Z M60.031708,20.5930176 C58.9418642,20.5930176 58.2531435,19.6923828 58.2531435,18.1030273 L58.2531435,18.0878906 C58.2531435,16.5212402 58.9494326,15.6130371 60.0165712,15.6130371 C61.0912783,15.6130371 61.7951357,16.5212402 61.7951357,18.0878906 L61.7951357,18.1030273 C61.7951357,19.6848145 61.106415,20.5930176 60.031708,20.5930176 Z" id="Shape"></path>
            </g>
            <circle id="Oval" stroke="#FFFFFF" cx="16.5" cy="16.5" r="16"></circle>
            <g id="speed" transform="translate(8.000000, 9.000000)" fill="#FFFFFF" fill-rule="nonzero">
                <path d="M1.45037287,0.00273569896 C1.26176601,0.0244711124 1.12140734,0.173902254 1.12286932,0.350502314 L1.12286932,14.6089335 L0.748579545,14.6089335 C0.334813805,14.6089335 0,14.9200216 0,15.3044668 C0,15.688912 0.334813805,16 0.748579545,16 L15.7201705,16 C16.1339362,16 16.46875,15.688912 16.46875,15.3044668 C16.46875,14.9200216 16.1339362,14.6089335 15.7201705,14.6089335 L15.3458807,14.6089335 L15.3458807,0.350502314 C15.3473427,0.229599164 15.2800877,0.118204996 15.1718943,0.0543574798 C15.0622394,-0.0108487606 14.9248047,-0.0176413381 14.8078391,0.0353388191 L14.2230114,0.307031487 L13.6381836,0.0353388191 C13.5343766,-0.0108487606 13.4144871,-0.0108487606 13.31068,0.0353388191 L12.7258523,0.307031487 L12.1410245,0.0353388191 C12.0372175,-0.0108487606 11.917328,-0.0108487606 11.813521,0.0353388191 L11.2286932,0.307031487 L10.6438654,0.0353388191 C10.5400584,-0.0108487606 10.4201689,-0.0108487606 10.3163619,0.0353388191 L9.73153409,0.307031487 L9.14670632,0.0353388191 C9.0428993,-0.0108487606 8.92300979,-0.0108487606 8.81920277,0.0353388191 L8.234375,0.307031487 L7.64954723,0.0353388191 C7.54574021,-0.0108487606 7.4258507,-0.0108487606 7.32204368,0.0353388191 L6.73721591,0.307031487 L6.15238814,0.0353388191 C6.04858112,-0.0108487606 5.92869161,-0.0108487606 5.82488459,0.0353388191 L5.24005682,0.307031487 L4.65522905,0.0353388191 C4.55142203,-0.0108487606 4.43153252,-0.0108487606 4.3277255,0.0353388191 L3.74289773,0.307031487 L3.15806996,0.0353388191 C3.05426293,-0.0108487606 2.93437343,-0.0108487606 2.83056641,0.0353388191 L2.24573864,0.307031487 L1.66091087,0.0353388191 C1.59511784,0.00545279952 1.52201418,-0.0054149072 1.45037287,0.00273569896 Z M2.99431818,0.741739756 L3.57914595,1.01343242 C3.68295297,1.05962035 3.80284248,1.05962035 3.9066495,1.01343242 L4.49147727,0.741739756 L5.07630504,1.01343242 C5.18011207,1.05962035 5.30000157,1.05962035 5.40380859,1.01343242 L5.98863636,0.741739756 L6.57346413,1.01343242 C6.67727116,1.05962035 6.79716066,1.05962035 6.90096768,1.01343242 L7.48579545,0.741739756 L8.07062322,1.01343242 C8.17443025,1.05962035 8.29431975,1.05962035 8.39812678,1.01343242 L8.98295455,0.741739756 L9.56778232,1.01343242 C9.67158934,1.05962035 9.79147884,1.05962035 9.89528587,1.01343242 L10.4801136,0.741739756 L11.0649414,1.01343242 C11.1687484,1.05962035 11.2886379,1.05962035 11.392445,1.01343242 L11.9772727,0.741739756 L12.5621005,1.01343242 C12.6659075,1.05962035 12.785797,1.05962035 12.889604,1.01343242 L13.4744318,0.741739756 L14.0592596,1.01343242 C14.1630666,1.05962035 14.2829561,1.05962035 14.3867631,1.01343242 L14.5973011,0.915623064 L14.5973011,15.3044668 L1.87144886,15.3044668 L1.87144886,0.915623064 L2.08198686,1.01343242 C2.18579388,1.05962035 2.30568339,1.05962035 2.40949041,1.01343242 L2.99431818,0.741739756 Z M3.63762873,3.13263524 C3.43147703,3.1598045 3.28673207,3.33776329 3.31597346,3.52930653 C3.34521484,3.72084978 3.53674603,3.85533773 3.74289773,3.82816847 L9.35724432,3.82816847 C9.49175471,3.82952684 9.61749286,3.7643206 9.68620985,3.65564354 C9.75346523,3.54696647 9.75346523,3.41383723 9.68620985,3.30516017 C9.61749286,3.1964831 9.49175471,3.13127686 9.35724432,3.13263524 L3.74289773,3.13263524 C3.73120117,3.13263524 3.71950462,3.13263524 3.70780806,3.13263524 C3.69611151,3.13263524 3.68441495,3.13263524 3.67271839,3.13263524 C3.66102184,3.13263524 3.64932528,3.13263524 3.63762873,3.13263524 Z M11.497714,3.13263524 C11.2915623,3.1598045 11.1468173,3.33776329 11.1760587,3.52930653 C11.2053001,3.72084978 11.3968313,3.85533773 11.602983,3.82816847 L12.7258523,3.82816847 C12.8603627,3.82952684 12.9861008,3.7643206 13.0548178,3.65564354 C13.1220732,3.54696647 13.1220732,3.41383723 13.0548178,3.30516017 C12.9861008,3.1964831 12.8603627,3.13127686 12.7258523,3.13263524 L11.602983,3.13263524 C11.5912864,3.13263524 11.5795898,3.13263524 11.5678933,3.13263524 C11.5561967,3.13263524 11.5445002,3.13263524 11.5328036,3.13263524 C11.5211071,3.13263524 11.5094105,3.13263524 11.497714,3.13263524 Z M3.63762873,5.21923493 C3.43147703,5.24640419 3.28673207,5.42436298 3.31597346,5.61590622 C3.34521484,5.80744947 3.53674603,5.94193742 3.74289773,5.91476816 L7.86008523,5.91476816 C7.99459561,5.91612653 8.12033377,5.85092029 8.18905075,5.74224323 C8.25630613,5.63356616 8.25630613,5.50043693 8.18905075,5.39175986 C8.12033377,5.28308279 7.99459561,5.21787655 7.86008523,5.21923493 L3.74289773,5.21923493 C3.73120117,5.21923493 3.71950462,5.21923493 3.70780806,5.21923493 C3.69611151,5.21923493 3.68441495,5.21923493 3.67271839,5.21923493 C3.66102184,5.21923493 3.64932528,5.21923493 3.63762873,5.21923493 Z M11.497714,5.21923493 C11.2915623,5.24640419 11.1468173,5.42436298 11.1760587,5.61590622 C11.2053001,5.80744947 11.3968313,5.94193742 11.602983,5.91476816 L12.7258523,5.91476816 C12.8603627,5.91612653 12.9861008,5.85092029 13.0548178,5.74224323 C13.1220732,5.63356616 13.1220732,5.50043693 13.0548178,5.39175986 C12.9861008,5.28308279 12.8603627,5.21787655 12.7258523,5.21923493 L11.602983,5.21923493 C11.5912864,5.21923493 11.5795898,5.21923493 11.5678933,5.21923493 C11.5561967,5.21923493 11.5445002,5.21923493 11.5328036,5.21923493 C11.5211071,5.21923493 11.5094105,5.21923493 11.497714,5.21923493 Z M3.63762873,7.30583462 C3.43147703,7.33300389 3.28673207,7.51096267 3.31597346,7.70250591 C3.34521484,7.89404916 3.53674603,8.02853712 3.74289773,8.00136785 L9.35724432,8.00136785 C9.49175471,8.00272623 9.61749286,7.93751999 9.68620985,7.82884292 C9.75346523,7.72016585 9.75346523,7.58703662 9.68620985,7.47835955 C9.61749286,7.36968248 9.49175471,7.30447624 9.35724432,7.30583462 L3.74289773,7.30583462 C3.73120117,7.30583462 3.71950462,7.30583462 3.70780806,7.30583462 C3.69611151,7.30583462 3.68441495,7.30583462 3.67271839,7.30583462 C3.66102184,7.30583462 3.64932528,7.30583462 3.63762873,7.30583462 Z M11.497714,7.30583462 C11.2915623,7.33300389 11.1468173,7.51096267 11.1760587,7.70250591 C11.2053001,7.89404916 11.3968313,8.02853712 11.602983,8.00136785 L12.7258523,8.00136785 C12.8603627,8.00272623 12.9861008,7.93751999 13.0548178,7.82884292 C13.1220732,7.72016585 13.1220732,7.58703662 13.0548178,7.47835955 C12.9861008,7.36968248 12.8603627,7.30447624 12.7258523,7.30583462 L11.602983,7.30583462 C11.5912864,7.30583462 11.5795898,7.30583462 11.5678933,7.30583462 C11.5561967,7.30583462 11.5445002,7.30583462 11.5328036,7.30583462 C11.5211071,7.30583462 11.5094105,7.30583462 11.497714,7.30583462 Z M3.63762873,9.39243431 C3.43147703,9.41960358 3.28673207,9.59756236 3.31597346,9.78910561 C3.34521484,9.98064885 3.53674603,10.1151368 3.74289773,10.0879675 L7.86008523,10.0879675 C7.99459561,10.0893259 8.12033377,10.0241197 8.18905075,9.91544261 C8.25630613,9.80676554 8.25630613,9.67363631 8.18905075,9.56495924 C8.12033377,9.45628217 7.99459561,9.39107593 7.86008523,9.39243431 L3.74289773,9.39243431 C3.73120117,9.39243431 3.71950462,9.39243431 3.70780806,9.39243431 C3.69611151,9.39243431 3.68441495,9.39243431 3.67271839,9.39243431 C3.66102184,9.39243431 3.64932528,9.39243431 3.63762873,9.39243431 Z M11.497714,9.39243431 C11.2915623,9.41960358 11.1468173,9.59756236 11.1760587,9.78910561 C11.2053001,9.98064885 11.3968313,10.1151368 11.602983,10.0879675 L12.7258523,10.0879675 C12.8603627,10.0893259 12.9861008,10.0241197 13.0548178,9.91544261 C13.1220732,9.80676554 13.1220732,9.67363631 13.0548178,9.56495924 C12.9861008,9.45628217 12.8603627,9.39107593 12.7258523,9.39243431 L11.602983,9.39243431 C11.5912864,9.39243431 11.5795898,9.39243431 11.5678933,9.39243431 C11.5561967,9.39243431 11.5445002,9.39243431 11.5328036,9.39243431 C11.5211071,9.39243431 11.5094105,9.39243431 11.497714,9.39243431 Z M3.74289773,11.479034 C3.53674603,11.479034 3.36860795,11.6352574 3.36860795,11.8268006 C3.36860795,12.0183439 3.53674603,12.1745672 3.74289773,12.1745672 C3.94904942,12.1745672 4.1171875,12.0183439 4.1171875,11.8268006 C4.1171875,11.6352574 3.94904942,11.479034 3.74289773,11.479034 Z M4.86576705,11.479034 C4.65961535,11.479034 4.49147727,11.6352574 4.49147727,11.8268006 C4.49147727,12.0183439 4.65961535,12.1745672 4.86576705,12.1745672 C5.07191874,12.1745672 5.24005682,12.0183439 5.24005682,11.8268006 C5.24005682,11.6352574 5.07191874,11.479034 4.86576705,11.479034 Z M5.98863636,11.479034 C5.78248467,11.479034 5.61434659,11.6352574 5.61434659,11.8268006 C5.61434659,12.0183439 5.78248467,12.1745672 5.98863636,12.1745672 C6.19478806,12.1745672 6.36292614,12.0183439 6.36292614,11.8268006 C6.36292614,11.6352574 6.19478806,11.479034 5.98863636,11.479034 Z M7.11150568,11.479034 C6.90535399,11.479034 6.73721591,11.6352574 6.73721591,11.8268006 C6.73721591,12.0183439 6.90535399,12.1745672 7.11150568,12.1745672 C7.31765738,12.1745672 7.48579545,12.0183439 7.48579545,11.8268006 C7.48579545,11.6352574 7.31765738,11.479034 7.11150568,11.479034 Z M8.234375,11.479034 C8.0282233,11.479034 7.86008523,11.6352574 7.86008523,11.8268006 C7.86008523,12.0183439 8.0282233,12.1745672 8.234375,12.1745672 C8.4405267,12.1745672 8.60866477,12.0183439 8.60866477,11.8268006 C8.60866477,11.6352574 8.4405267,11.479034 8.234375,11.479034 Z M9.35724432,11.479034 C9.15109262,11.479034 8.98295455,11.6352574 8.98295455,11.8268006 C8.98295455,12.0183439 9.15109262,12.1745672 9.35724432,12.1745672 C9.56339601,12.1745672 9.73153409,12.0183439 9.73153409,11.8268006 C9.73153409,11.6352574 9.56339601,11.479034 9.35724432,11.479034 Z M10.4801136,11.479034 C10.2739619,11.479034 10.1058239,11.6352574 10.1058239,11.8268006 C10.1058239,12.0183439 10.2739619,12.1745672 10.4801136,12.1745672 C10.6862653,12.1745672 10.8544034,12.0183439 10.8544034,11.8268006 C10.8544034,11.6352574 10.6862653,11.479034 10.4801136,11.479034 Z M11.602983,11.479034 C11.3968313,11.479034 11.2286932,11.6352574 11.2286932,11.8268006 C11.2286932,12.0183439 11.3968313,12.1745672 11.602983,12.1745672 C11.8091346,12.1745672 11.9772727,12.0183439 11.9772727,11.8268006 C11.9772727,11.6352574 11.8091346,11.479034 11.602983,11.479034 Z M12.7258523,11.479034 C12.5197006,11.479034 12.3515625,11.6352574 12.3515625,11.8268006 C12.3515625,12.0183439 12.5197006,12.1745672 12.7258523,12.1745672 C12.932004,12.1745672 13.100142,12.0183439 13.100142,11.8268006 C13.100142,11.6352574 12.932004,11.479034 12.7258523,11.479034 Z M10.3748446,13.2178671 C10.1686929,13.2450363 10.023948,13.4229951 10.0531894,13.6145384 C10.0824308,13.8060816 10.2739619,13.9405696 10.4801136,13.9134003 L12.7258523,13.9134003 C12.8603627,13.9147587 12.9861008,13.8495524 13.0548178,13.7408754 C13.1220732,13.6321983 13.1220732,13.4990691 13.0548178,13.390392 C12.9861008,13.2817149 12.8603627,13.2165087 12.7258523,13.2178671 L10.4801136,13.2178671 C10.4684171,13.2178671 10.4567205,13.2178671 10.445024,13.2178671 C10.4333274,13.2178671 10.4216309,13.2178671 10.4099343,13.2178671 C10.3982377,13.2178671 10.3865412,13.2178671 10.3748446,13.2178671 Z" id="Shape"></path>
            </g>
        </g>
    </g>
</svg>