<?xml version="1.0" encoding="UTF-8"?>
<svg width="116px" height="33px" viewBox="0 0 116 33" version="1.1" xmlns="http://www.w3.org/2000/svg" xmlns:xlink="http://www.w3.org/1999/xlink">
    <title>Group 33 Copy 2</title>
    <g id="Page-1" stroke="none" stroke-width="1" fill="none" fill-rule="evenodd">
        <g id="Group-33-Copy-2">
            <g id="teste-de-velocidade" transform="translate(40.052979, 5.840332)" fill="#FFFFFF" fill-rule="nonzero">
                <path d="M2.80981445,9.28662109 C3.02563477,9.28662109 3.26049805,9.26123047 3.40014648,9.2421875 L3.40014648,8.34716797 C3.30493164,8.35351562 3.17797852,8.37255859 3.04467773,8.37255859 C2.4543457,8.37255859 2.14331055,8.17578125 2.14331055,7.47119141 L2.14331055,3.47216797 L3.40014648,3.47216797 L3.40014648,2.55810547 L2.14331055,2.55810547 L2.14331055,0.774414062 L1.00073242,0.774414062 L1.00073242,2.55810547 L0.0358886719,2.55810547 L0.0358886719,3.47216797 L1.00073242,3.47216797 L1.00073242,7.47753906 C1.00073242,8.74072266 1.59741211,9.28662109 2.80981445,9.28662109 Z" id="Path"></path>
                <path d="M7.00717773,9.28662109 C8.4480957,9.28662109 9.52719727,8.42333984 9.74301758,7.33154297 L9.75571289,7.26806641 L8.67026367,7.26806641 L8.6512207,7.32519531 C8.46079102,7.89013672 7.87045898,8.30908203 7.03256836,8.30908203 C5.85825195,8.30908203 5.10922852,7.515625 5.08383789,6.15722656 L9.83823242,6.15722656 L9.83823242,5.75097656 C9.83823242,3.77050781 8.74008789,2.43115234 6.93735352,2.43115234 C5.13461914,2.43115234 3.96665039,3.83398438 3.96665039,5.87792969 L3.96665039,5.88427734 C3.96665039,7.95996094 5.10922852,9.28662109 7.00717773,9.28662109 Z M6.93100586,3.40869141 C7.89584961,3.40869141 8.60678711,4.01171875 8.71469727,5.29394531 L5.10288086,5.29394531 C5.22348633,4.0625 5.97250977,3.40869141 6.93100586,3.40869141 Z" id="Shape"></path>
                <path d="M13.1913574,9.28662109 C14.6640137,9.28662109 15.7558105,8.47412109 15.7558105,7.31884766 L15.7558105,7.3125 C15.7558105,6.37304688 15.2733887,5.84619141 13.9403809,5.52246094 L12.8930176,5.26855469 C12.1630371,5.09082031 11.8646973,4.77978516 11.8646973,4.32910156 L11.8646973,4.32275391 C11.8646973,3.73876953 12.3598145,3.3515625 13.1596191,3.3515625 C13.9784668,3.3515625 14.4672363,3.77685547 14.5561035,4.41796875 L14.5624512,4.46240234 L15.6161621,4.46240234 L15.6098145,4.37988281 C15.5272949,3.27539062 14.6068848,2.43115234 13.1596191,2.43115234 C11.7313965,2.43115234 10.7348145,3.23730469 10.7348145,4.37353516 L10.7348145,4.37988281 C10.7348145,5.33203125 11.3378418,5.90966797 12.5819824,6.20800781 L13.6293457,6.46191406 C14.3783691,6.64599609 14.6259277,6.91259766 14.6259277,7.38867188 L14.6259277,7.39501953 C14.6259277,7.99169922 14.0927246,8.36621094 13.1977051,8.36621094 C12.2963379,8.36621094 11.8075684,7.97900391 11.6742676,7.31884766 L11.6615723,7.25537109 L10.5570801,7.25537109 L10.5634277,7.3125 C10.6967285,8.49316406 11.6361816,9.28662109 13.1913574,9.28662109 Z" id="Path"></path>
                <path d="M18.9438965,9.28662109 C19.1597168,9.28662109 19.3945801,9.26123047 19.5342285,9.2421875 L19.5342285,8.34716797 C19.4390137,8.35351562 19.3120605,8.37255859 19.1787598,8.37255859 C18.5884277,8.37255859 18.2773926,8.17578125 18.2773926,7.47119141 L18.2773926,3.47216797 L19.5342285,3.47216797 L19.5342285,2.55810547 L18.2773926,2.55810547 L18.2773926,0.774414062 L17.1348145,0.774414062 L17.1348145,2.55810547 L16.1699707,2.55810547 L16.1699707,3.47216797 L17.1348145,3.47216797 L17.1348145,7.47753906 C17.1348145,8.74072266 17.7314941,9.28662109 18.9438965,9.28662109 Z" id="Path"></path>
                <path d="M23.1412598,9.28662109 C24.5821777,9.28662109 25.6612793,8.42333984 25.8770996,7.33154297 L25.8897949,7.26806641 L24.8043457,7.26806641 L24.7853027,7.32519531 C24.594873,7.89013672 24.004541,8.30908203 23.1666504,8.30908203 C21.992334,8.30908203 21.2433105,7.515625 21.2179199,6.15722656 L25.9723145,6.15722656 L25.9723145,5.75097656 C25.9723145,3.77050781 24.8741699,2.43115234 23.0714355,2.43115234 C21.2687012,2.43115234 20.1007324,3.83398438 20.1007324,5.87792969 L20.1007324,5.88427734 C20.1007324,7.95996094 21.2433105,9.28662109 23.1412598,9.28662109 Z M23.0650879,3.40869141 C24.0299316,3.40869141 24.7408691,4.01171875 24.8487793,5.29394531 L21.2369629,5.29394531 C21.3575684,4.0625 22.1065918,3.40869141 23.0650879,3.40869141 Z" id="Shape"></path>
                <path d="M32.0311035,9.28662109 C32.9769043,9.28662109 33.7132324,8.81054688 34.1258301,8.04248047 L34.1512207,8.04248047 L34.1512207,9.15966797 L35.2557129,9.15966797 L35.2557129,0 L34.1512207,0 L34.1512207,3.66259766 L34.1258301,3.66259766 C33.7132324,2.90087891 32.945166,2.43115234 32.0120605,2.43115234 C30.3553223,2.43115234 29.2254395,3.77050781 29.2254395,5.85253906 L29.2254395,5.85888672 C29.2254395,7.94091797 30.342627,9.28662109 32.0311035,9.28662109 Z M32.2469238,8.30908203 C31.0789551,8.30908203 30.3553223,7.37597656 30.3553223,5.85888672 L30.3553223,5.85253906 C30.3553223,4.34814453 31.0789551,3.40869141 32.2469238,3.40869141 C33.3577637,3.40869141 34.1575684,4.37988281 34.1575684,5.85253906 L34.1575684,5.85888672 C34.1575684,7.33789062 33.3641113,8.30908203 32.2469238,8.30908203 Z" id="Shape"></path>
                <path d="M39.364209,9.28662109 C40.805127,9.28662109 41.8842285,8.42333984 42.1000488,7.33154297 L42.1127441,7.26806641 L41.0272949,7.26806641 L41.008252,7.32519531 C40.8178223,7.89013672 40.2274902,8.30908203 39.3895996,8.30908203 C38.2152832,8.30908203 37.4662598,7.515625 37.4408691,6.15722656 L42.1952637,6.15722656 L42.1952637,5.75097656 C42.1952637,3.77050781 41.0971191,2.43115234 39.2943848,2.43115234 C37.4916504,2.43115234 36.3236816,3.83398438 36.3236816,5.87792969 L36.3236816,5.88427734 C36.3236816,7.95996094 37.4662598,9.28662109 39.364209,9.28662109 Z M39.2880371,3.40869141 C40.2528809,3.40869141 40.9638184,4.01171875 41.0717285,5.29394531 L37.4599121,5.29394531 C37.5805176,4.0625 38.329541,3.40869141 39.2880371,3.40869141 Z" id="Shape"></path>
                <polygon id="Path" points="2.80786133 22.159668 5.29785156 22.159668 8.08300781 14.0463867 5.7746582 14.0463867 4.10205078 20.2070312 4.05664062 20.2070312 2.36132812 14.0463867 0 14.0463867"></polygon>
                <path d="M12.1367455,22.3261719 C14.4526634,22.3261719 15.5727806,20.9562988 15.8225365,19.760498 L15.8452416,19.6772461 L13.8169213,19.6772461 L13.8017845,19.7226562 C13.642849,20.1767578 13.0903588,20.6762695 12.1821556,20.6762695 C11.0544701,20.6762695 10.3506127,19.9194336 10.3279076,18.6252441 L15.9133568,18.6252441 L15.9133568,17.9440918 C15.9133568,15.4919434 14.42239,13.8798828 12.0459252,13.8798828 C9.66946032,13.8798828 8.14822009,15.5297852 8.14822009,18.1105957 L8.14822009,18.1181641 C8.14822009,20.7141113 9.6543236,22.3261719 12.1367455,22.3261719 Z M12.083767,15.5297852 C12.9995384,15.5297852 13.6579857,16.1125488 13.7942162,17.232666 L10.3506127,17.232666 C10.4944115,16.1352539 11.1755638,15.5297852 12.083767,15.5297852 Z" id="Shape"></path>
                <polygon id="Path" points="16.9700242 22.159668 19.1799851 22.159668 19.1799851 11.2385254 16.9700242 11.2385254"></polygon>
                <path d="M24.2630196,22.3261719 C26.7151681,22.3261719 28.2818185,20.7519531 28.2818185,18.1030273 L28.2818185,18.0878906 C28.2818185,15.4616699 26.6848946,13.8798828 24.2554513,13.8798828 C21.8335763,13.8798828 20.2442208,15.4768066 20.2442208,18.0878906 L20.2442208,18.1030273 C20.2442208,20.7443848 21.7957345,22.3261719 24.2630196,22.3261719 Z M24.270588,20.5930176 C23.1807442,20.5930176 22.4920235,19.6923828 22.4920235,18.1030273 L22.4920235,18.0878906 C22.4920235,16.5212402 23.1883126,15.6130371 24.2554513,15.6130371 C25.3301583,15.6130371 26.0340157,16.5212402 26.0340157,18.0878906 L26.0340157,18.1030273 C26.0340157,19.6848145 25.345295,20.5930176 24.270588,20.5930176 Z" id="Shape"></path>
                <path d="M32.9940034,22.3261719 C35.1585542,22.3261719 36.5587007,20.9790039 36.6646577,19.2080078 L36.6646577,19.1625977 L34.6060639,19.1625977 L34.5984956,19.2307129 C34.4471284,20.0480957 33.8946382,20.5930176 33.0091401,20.5930176 C31.9192964,20.5930176 31.238144,19.6923828 31.238144,18.1030273 L31.238144,18.095459 C31.238144,16.5439453 31.9192964,15.6130371 33.0015718,15.6130371 C33.9173432,15.6130371 34.4546968,16.2033691 34.5909272,16.9753418 L34.6060639,17.043457 L36.6570893,17.043457 L36.6570893,16.9904785 C36.5738374,15.2346191 35.1736909,13.8798828 32.9712983,13.8798828 C30.541855,13.8798828 28.9903413,15.4919434 28.9903413,18.0878906 L28.9903413,18.095459 C28.9903413,20.7141113 30.5191499,22.3261719 32.9940034,22.3261719 Z" id="Path"></path>
                <path d="M38.7506219,13.0019531 C39.4166375,13.0019531 39.931286,12.4797363 39.931286,11.8515625 C39.931286,11.2233887 39.4166375,10.7011719 38.7506219,10.7011719 C38.0846063,10.7011719 37.5699579,11.2233887 37.5699579,11.8515625 C37.5699579,12.4797363 38.0846063,13.0019531 38.7506219,13.0019531 Z M37.6456415,22.159668 L39.8556024,22.159668 L39.8556024,14.0463867 L37.6456415,14.0463867 L37.6456415,22.159668 Z" id="Shape"></path>
                <path d="M44.2045061,22.3261719 C45.3776018,22.3261719 46.2706682,21.7358398 46.7020647,20.7746582 L46.7474748,20.7746582 L46.7474748,22.159668 L48.9574358,22.159668 L48.9574358,11.2385254 L46.7474748,11.2385254 L46.7474748,15.4541016 L46.7020647,15.4541016 C46.2630998,14.4702148 45.3548967,13.8798828 44.2045061,13.8798828 C42.161049,13.8798828 40.9047014,15.4541016 40.9047014,18.095459 L40.9047014,18.1030273 C40.9047014,20.7368164 42.161049,22.3261719 44.2045061,22.3261719 Z M44.9462053,20.4946289 C43.8412248,20.4946289 43.1525041,19.5788574 43.1525041,18.1030273 L43.1525041,18.095459 C43.1525041,16.6120605 43.8487932,15.7114258 44.9462053,15.7114258 C46.013344,15.7114258 46.7550432,16.6347656 46.7550432,18.095459 L46.7550432,18.1030273 C46.7550432,19.5712891 46.0209123,20.4946289 44.9462053,20.4946289 Z" id="Shape"></path>
                <path d="M52.7160074,22.2883301 C53.7831461,22.2883301 54.645939,21.78125 55.107609,20.9487305 L55.1530191,20.9487305 L55.1530191,22.159668 L57.3629801,22.159668 L57.3629801,16.5969238 C57.3629801,14.9621582 56.0082437,13.8798828 53.9118082,13.8798828 C51.7699625,13.8798828 50.4833414,14.9545898 50.3622476,16.453125 L50.3546793,16.5439453 L52.3754312,16.5439453 L52.390568,16.4758301 C52.496525,15.9536133 52.9960367,15.567627 53.8209879,15.567627 C54.6837808,15.567627 55.1530191,16.0141602 55.1530191,16.7331543 L55.1530191,17.232666 L53.1474039,17.3537598 C51.1342203,17.4824219 49.991398,18.3452148 49.991398,19.8210449 L49.991398,19.8361816 C49.991398,21.2666016 51.0888101,22.2883301 52.7160074,22.2883301 Z M52.1786539,19.7226562 L52.1786539,19.7075195 C52.1786539,19.1323242 52.6251871,18.769043 53.4804117,18.7160645 L55.1530191,18.6101074 L55.1530191,19.1928711 C55.1530191,20.0405273 54.4264566,20.6762695 53.4350015,20.6762695 C52.6705973,20.6762695 52.1786539,20.3205566 52.1786539,19.7226562 Z" id="Shape"></path>
                <path d="M61.6589052,22.3261719 C62.8320009,22.3261719 63.7250673,21.7358398 64.1564638,20.7746582 L64.201874,20.7746582 L64.201874,22.159668 L66.4118349,22.159668 L66.4118349,11.2385254 L64.201874,11.2385254 L64.201874,15.4541016 L64.1564638,15.4541016 C63.717499,14.4702148 62.8092959,13.8798828 61.6589052,13.8798828 C59.6154482,13.8798828 58.3591005,15.4541016 58.3591005,18.095459 L58.3591005,18.1030273 C58.3591005,20.7368164 59.6154482,22.3261719 61.6589052,22.3261719 Z M62.4006044,20.4946289 C61.295624,20.4946289 60.6069033,19.5788574 60.6069033,18.1030273 L60.6069033,18.095459 C60.6069033,16.6120605 61.3031923,15.7114258 62.4006044,15.7114258 C63.4677431,15.7114258 64.2094423,16.6347656 64.2094423,18.095459 L64.2094423,18.1030273 C64.2094423,19.5712891 63.4753115,20.4946289 62.4006044,20.4946289 Z" id="Shape"></path>
                <path d="M71.4494593,22.3261719 C73.7653773,22.3261719 74.8854945,20.9562988 75.1352503,19.760498 L75.1579554,19.6772461 L73.1296351,19.6772461 L73.1144984,19.7226562 C72.9555628,20.1767578 72.4030726,20.6762695 71.4948695,20.6762695 C70.3671839,20.6762695 69.6633265,19.9194336 69.6406214,18.6252441 L75.2260706,18.6252441 L75.2260706,17.9440918 C75.2260706,15.4919434 73.7351038,13.8798828 71.358639,13.8798828 C68.9821741,13.8798828 67.4609339,15.5297852 67.4609339,18.1105957 L67.4609339,18.1181641 C67.4609339,20.7141113 68.9670374,22.3261719 71.4494593,22.3261719 Z M71.3964808,15.5297852 C72.3122523,15.5297852 72.9706995,16.1125488 73.10693,17.232666 L69.6633265,17.232666 C69.8071253,16.1352539 70.4882777,15.5297852 71.3964808,15.5297852 Z" id="Shape"></path>
            </g>
            <circle id="Oval" stroke="#FFFFFF" cx="16.5" cy="16.5" r="16"></circle>
            <path d="M16.5214893,7.00095339 C14.075312,6.96647507 11.7620102,7.86801722 9.96882179,9.56511246 C8.0819875,11.3515959 7,13.8723378 7,16.4811909 C7,18.4822056 7.61249346,20.3976631 8.76914451,22.0168631 C8.77420644,22.0245248 8.78179917,22.0309099 8.7868611,22.0385715 L8.61981743,22.0385715 C8.08451831,22.0385715 7.64792697,22.4791267 7.64792697,23.0192858 C7.64792697,23.5594449 8.08451831,24 8.61981743,24 L24.1700647,24 C24.7053638,24 25.1419552,23.5594449 25.1419552,23.0192858 C25.1419552,22.4791267 24.7053638,22.0385715 24.1700647,22.0385715 L24.003021,22.0385715 C24.0093484,22.0321868 24.0144103,22.025802 24.0194722,22.01814 C25.3039369,20.2201639 25.9252888,18.004618 25.7645725,15.7775795 C25.4292197,11.0872627 21.6669408,7.32147335 17.0124965,7.02138493 C16.8492493,7.00989227 16.6847365,7.00350749 16.5214893,7.00095339 Z M16.3886137,7.65476287 C16.5822325,7.65476287 16.7771169,7.66114765 16.972001,7.67391753 C21.3037472,7.9535744 24.805337,11.4575846 25.1179109,15.8261045 C25.2697688,17.9292769 24.7066292,19.9379533 23.4930316,21.6363254 C23.3133332,21.8878891 23.0197413,22.0385715 22.7059017,22.0385715 L21.4113132,22.0385715 C22.9653255,20.6160253 23.8461012,18.6277802 23.8461012,16.4811909 C23.8461012,16.301138 23.7018364,16.1542862 23.5221377,16.1542862 C23.3424394,16.1542862 23.1981743,16.301138 23.1981743,16.4811909 C23.1981743,18.6609816 22.2060361,20.6632732 20.4761216,21.9734459 C20.4533431,21.9926006 20.4368919,22.0155862 20.419175,22.0385715 L12.4036099,22.0385715 C10.6420584,20.7475531 9.59170788,18.678859 9.59170788,16.4811909 C9.59170788,16.301138 9.44744305,16.1542862 9.2677444,16.1542862 C9.08804606,16.1542862 8.94378091,16.301138 8.94378091,16.4811909 C8.94378091,18.6073486 9.83974242,20.6224101 11.378569,22.0385715 L10.0839804,22.0385715 C9.77014081,22.0385715 9.4752835,21.8878891 9.29558517,21.6350485 C8.2173942,20.1269451 7.64792697,18.3442926 7.64792697,16.4811909 C7.64792697,14.0166358 8.62867588,11.7295795 10.4117405,10.0414228 C12.0518056,8.48990249 14.1550374,7.65476287 16.3886137,7.65476287 Z M16.3949411,9.28928658 C16.2152427,9.28928658 16.0709776,9.43613841 16.0709776,9.61619133 L16.0709776,10.2700008 C16.0709776,10.4500537 16.2152427,10.5969056 16.3949411,10.5969056 C16.5746397,10.5969056 16.7189046,10.4500537 16.7189046,10.2700008 L16.7189046,9.61619133 C16.7189046,9.43613841 16.5746397,9.28928658 16.3949411,9.28928658 Z M14.6371861,9.53063414 C14.5954253,9.52552626 14.5511333,9.52808036 14.5081068,9.53957303 C14.3360012,9.5868209 14.2322318,9.76559693 14.2790546,9.93926507 L14.4460982,10.5713661 C14.4853283,10.7182179 14.615673,10.8139909 14.7599379,10.8139909 C14.7877786,10.8139909 14.8156191,10.8114368 14.8447253,10.8024979 C15.0168309,10.7565269 15.1193348,10.576474 15.0737775,10.4028059 L14.9054684,9.77070481 C14.8700349,9.63917698 14.762469,9.54851191 14.6371861,9.53063414 Z M18.1539617,9.53191136 C18.0286789,9.5497888 17.9198472,9.64045387 17.8844137,9.77070481 L17.7161047,10.4028059 C17.6705473,10.576474 17.7730513,10.7565269 17.9451569,10.8024979 C17.9742631,10.8101599 18.0021038,10.8139909 18.0299443,10.8139909 C18.1729437,10.8139909 18.3045539,10.7182179 18.3437839,10.5713661 L18.5108276,9.93926507 C18.5576503,9.76559693 18.453881,9.5868209 18.2817754,9.53957303 C18.2387488,9.52808036 18.1957226,9.52552626 18.1539617,9.53191136 Z M12.8718382,10.2329687 C12.8300773,10.2380766 12.7883165,10.2521234 12.7503519,10.2751087 C12.5946975,10.3644969 12.5428128,10.5649813 12.6326621,10.7207717 L12.9566256,11.2864702 C13.0161033,11.392459 13.1249346,11.4499226 13.2362971,11.4499226 C13.2919783,11.4499226 13.3476595,11.4371531 13.3982788,11.4077826 C13.5539332,11.3171176 13.6058179,11.1166331 13.5159686,10.9595655 L13.1920051,10.393867 C13.1249346,10.2776628 12.997121,10.2176451 12.8718382,10.2329687 Z M19.918044,10.2342456 C19.7914957,10.2176451 19.6636821,10.2776628 19.597877,10.393867 L19.2739135,10.9608424 C19.1840642,11.1166331 19.2359489,11.3171176 19.3916033,11.4077826 C19.4422226,11.4371531 19.4979038,11.4511995 19.5535851,11.4511995 C19.6649475,11.4511995 19.7737791,11.392459 19.8332566,11.2877471 L20.1572201,10.7207717 C20.2470694,10.5649813 20.1939193,10.3657738 20.0395303,10.2751087 C20.0003002,10.2521234 19.9585394,10.2393535 19.918044,10.2342456 Z M11.4696837,11.3477649 C11.3874274,11.3477649 11.3039054,11.3796891 11.2406315,11.4435378 C11.1140832,11.571235 11.1140832,11.7781042 11.2406315,11.9058014 L11.6987359,12.3680653 C11.7620102,12.4319137 11.8442665,12.4638383 11.9277885,12.4638383 C12.0113102,12.4638383 12.0935664,12.4319137 12.1568407,12.3680653 C12.283389,12.2403682 12.283389,12.0334986 12.1568407,11.9058014 L11.6987359,11.4435378 C11.635462,11.3796891 11.55194,11.3477649 11.4696837,11.3477649 Z M21.3201984,11.3477649 C21.2379422,11.3477649 21.1544202,11.3796891 21.0911462,11.4435378 L20.6330414,11.9058014 C20.5064932,12.0334986 20.5064932,12.2403682 20.6330414,12.3680653 C20.6963157,12.4319137 20.778572,12.4638383 20.862094,12.4638383 C20.9456157,12.4638383 21.0278719,12.4319137 21.0911462,12.3680653 L21.5492507,11.9058014 C21.6757989,11.7781042 21.6757989,11.571235 21.5492507,11.4435378 C21.4859767,11.3796891 21.4024547,11.3477649 21.3201984,11.3477649 Z M10.402882,12.8060667 C10.2775995,12.790743 10.1497855,12.8494835 10.082715,12.9669649 C9.99286571,13.1227556 10.0460161,13.3232401 10.2004048,13.412628 L10.7610136,13.7395327 C10.8128983,13.77018 10.8685795,13.7842268 10.9229953,13.7842268 C11.0356232,13.7842268 11.1444548,13.7254863 11.205198,13.6207744 C11.2937816,13.464984 11.2406315,13.2644993 11.0849771,13.1751114 L10.5243683,12.8482067 C10.486404,12.825221 10.4446432,12.8111746 10.402882,12.8060667 Z M22.3857347,12.8060667 C22.3439736,12.8111746 22.3022127,12.825221 22.2642484,12.8482067 L21.7036397,13.1751114 C21.5492507,13.2644993 21.4961006,13.464984 21.5846842,13.6207744 C21.6454273,13.7254863 21.754259,13.7842268 21.8668868,13.7842268 C21.9213026,13.7842268 21.9769839,13.77018 22.0276032,13.7395327 L22.5882119,13.412628 C22.743866,13.3232401 22.7970164,13.1227556 22.7071671,12.9669649 C22.6400966,12.8494835 22.5110173,12.790743 22.3857347,12.8060667 Z M19.6345759,12.8852388 C19.5523197,12.8852388 19.4687977,12.917163 19.4055237,12.9810117 L16.8112847,15.5988034 C16.6847365,15.5375088 16.5442682,15.5004767 16.3949411,15.5004767 C15.8596419,15.5004767 15.4230506,15.9410318 15.4230506,16.4811909 C15.4230506,17.02135 15.8596419,17.4619051 16.3949411,17.4619051 C16.9302402,17.4619051 17.3668315,17.02135 17.3668315,16.4811909 C17.3668315,16.3305084 17.3301326,16.1887645 17.2693895,16.0610673 L19.8636281,13.4432753 C19.9901764,13.3155781 19.9901764,13.1087089 19.8636281,12.9810117 C19.8003542,12.917163 19.7168322,12.8852388 19.6345759,12.8852388 Z M9.62207946,14.5006078 C9.49806235,14.5184856 9.3892307,14.6104275 9.3537972,14.7406785 C9.30823983,14.9143466 9.41074382,15.0943999 9.58411515,15.1416477 L10.2092633,15.3114849 C10.237104,15.3178697 10.2649445,15.3217007 10.2940507,15.3217007 C10.4357847,15.3217007 10.5673949,15.2259277 10.6053592,15.0803531 C10.6521823,14.9054081 10.549678,14.7253548 10.3763069,14.6781069 L9.75115882,14.5095467 C9.70813226,14.498054 9.6638403,14.4954999 9.62207946,14.5006078 Z M23.1678027,14.5006078 C23.1260418,14.4954999 23.0830153,14.498054 23.039989,14.5095467 L22.4135752,14.6781069 C22.2402042,14.7253548 22.1377002,14.9054081 22.184523,15.0803531 C22.2224873,15.2259277 22.3540974,15.3217007 22.4970972,15.3217007 C22.5249376,15.3217007 22.5527784,15.3191469 22.5806189,15.3114849 L23.2070327,15.1416477 C23.3791383,15.0943999 23.4829077,14.9156238 23.4360849,14.7406785 C23.4019168,14.6091506 23.2930855,14.5184856 23.1678027,14.5006078 Z M13.8032332,18.7695241 C13.6235349,18.7695241 13.4792697,18.9163759 13.4792697,19.0964289 C13.4792697,19.2764818 13.6235349,19.4233336 13.8032332,19.4233336 L18.986649,19.4233336 C19.1663476,19.4233336 19.3106124,19.2764818 19.3106124,19.0964289 C19.3106124,18.9163759 19.1663476,18.7695241 18.986649,18.7695241 L13.8032332,18.7695241 Z M15.0990871,20.0771431 C14.9193888,20.0771431 14.7751236,20.2239949 14.7751236,20.4040478 C14.7751236,20.5841008 14.9193888,20.7309526 15.0990871,20.7309526 L17.690795,20.7309526 C17.8704937,20.7309526 18.0147585,20.5841008 18.0147585,20.4040478 C18.0147585,20.2239949 17.8704937,20.0771431 17.690795,20.0771431 L15.0990871,20.0771431 Z M8.61981743,22.692381 L12.2897163,22.692381 C12.2935128,22.692381 12.2947782,22.6936579 12.2985747,22.6936579 C12.2998401,22.6936579 12.3011055,22.692381 12.3023713,22.692381 L24.1700647,22.692381 C24.3484976,22.692381 24.4940282,22.8392329 24.4940282,23.0192858 C24.4940282,23.1993387 24.3484976,23.3461905 24.1700647,23.3461905 L8.61981743,23.3461905 C8.44138449,23.3461905 8.29585394,23.1993387 8.29585394,23.0192858 C8.29585394,22.8392329 8.44138449,22.692381 8.61981743,22.692381 Z" id="Shape" fill="#FFFFFF" fill-rule="nonzero"></path>
        </g>
    </g>
</svg>