<?xml version="1.0" encoding="UTF-8"?>
<svg width="240px" height="35px" viewBox="0 0 240 35" version="1.1" xmlns="http://www.w3.org/2000/svg" xmlns:xlink="http://www.w3.org/1999/xlink">
    <title>Group 65</title>
    <defs>
        <polygon id="path-1" points="0 0 14 0 14 12.25 0 12.25"></polygon>
        <linearGradient x1="0.00611845134%" y1="50.0289087%" x2="99.9938987%" y2="50.0289087%" id="linearGradient-3">
            <stop stop-color="#991EEB" offset="0%"></stop>
            <stop stop-color="#5822B4" offset="39.9%"></stop>
            <stop stop-color="#5822B4" offset="72.7%"></stop>
            <stop stop-color="#991EEB" offset="100%"></stop>
        </linearGradient>
    </defs>
    <g id="Page-1" stroke="none" stroke-width="1" fill="none" fill-rule="evenodd">
        <g id="Group-65">
            <g id="Paramount_Pictures_Corporation_logo" transform="translate(92.750000, 0.000000)" fill="#016BB1" fill-rule="nonzero">
                <path d="M1.10878325,25.0569235 L1.72428857,24.1276924 L2.79157157,24.4196651 L2.09520541,23.5713394 L2.6929249,22.6540101 L1.65920762,23.0583589 L0.941088367,22.2120391 L1.00224663,23.3108819 L0,23.6896887 L1.04566365,23.9638756 L1.10878325,25.0569235 Z M0.9627523,20.9631981 L1.74202981,20.1603398 L2.73830326,20.6495614 L2.21551601,19.6887704 L2.97504636,18.8996416 L1.88601027,19.1008576 L1.34352043,18.13026 L1.1994954,19.2212574 L0.134218315,19.4046876 L1.10878325,19.8742065 L0.9627523,20.9631981 Z M1.60589473,16.9091006 L2.52130732,16.2777708 L3.4090828,16.9406604 L3.07369303,15.8950859 L3.97920976,15.2696848 L2.86650382,15.2558662 L2.52130732,14.2023572 L2.16617039,15.2518989 L1.08698559,15.2262677 L1.95510306,15.8674488 L1.60589473,16.9091006 Z M6.19864846,9.32360388 L6.77078133,10.2725376 L6.84972541,9.18751337 L7.9209311,8.93298445 L6.9009878,8.50884388 L6.97400328,7.40603381 L6.25793453,8.24250232 L5.26357785,7.81247771 L5.82581485,8.73573568 L5.11166286,9.56632016 L6.19864846,9.32360388 Z M19.4205567,2.83293809 L20.2412007,2.10697347 L21.1822445,2.67313316 L20.7383568,1.65122851 L21.5590899,0.909439412 L20.4641252,1.01004743 L20.0498805,0.0157353256 L19.8072088,1.067283 L18.7182173,1.17578097 L19.6691124,1.74786927 L19.4205567,2.83293809 Z M3.72673133,32.7864008 L3.94764995,31.6934866 L5.04649276,31.5612742 L4.08574638,31.0365256 L4.29289102,29.9652753 L3.48593182,30.7227552 L2.50548285,30.2098638 L2.97896905,31.2043096 L2.18783432,31.9361137 L3.25712324,31.7979727 L3.72673133,32.7864008 Z M8.94680301,6.50047251 L9.32953249,7.54212431 L9.61758255,6.48464803 L10.714464,6.44715962 L9.79116147,5.83557699 L10.0772056,4.76035946 L9.21510591,5.44103488 L8.31939591,4.83930354 L8.69031275,5.85336281 L7.83605841,6.53007096 L8.94680301,6.50047251 Z M12.1901523,4.23962271 L12.3618144,5.33454283 L12.8530864,4.35208794 L13.9361493,4.52571143 L13.1430533,3.74643392 L13.6283967,2.74815455 L12.6439359,3.25324513 L11.8863669,2.49175344 L12.0639131,3.55315241 L11.091354,4.0621211 L12.1901523,4.23962271 Z M15.7629181,3.74638934 L16.4258077,2.87439377 L17.4614863,3.24923329 L16.8321625,2.3338207 L17.4970134,1.45001248 L16.4376204,1.75183653 L15.8398563,0.862099708 L15.8082519,1.94123993 L14.7547429,2.24698666 L15.800362,2.63564475 L15.7629181,3.74638934 Z M1.77358962,27.9964428 L2.04193709,29.0577527 L2.46808359,28.0221186 L3.57878361,28.103024 L2.73050246,27.4064796 L3.14082448,26.3925095 L2.20570929,26.9843003 L1.33959775,26.2898955 L1.61182334,27.3591399 L0.694493973,27.9234274 L1.77358962,27.9964428 Z M3.01253477,13.0719546 L4.03252264,12.6201769 L4.77230583,13.4467941 L4.64606661,12.3578026 L5.64626275,11.9139148 L4.56319984,11.6929071 L4.42510342,10.5901416 L3.87463448,11.5469653 L2.82313137,11.3181121 L3.54914057,12.1190981 L3.01253477,13.0719546 Z M34.7868822,6.36237608 L35.0710096,7.41976321 L35.4674684,6.38604593 L36.5722399,6.41568897 L35.714152,5.72716818 L36.1047268,4.72300478 L35.1992993,5.31684616 L34.3470063,4.63028671 L34.6270327,5.70742101 L33.6938342,6.31311961 L34.7868822,6.36237608 Z M36.5169656,8.7771022 L37.5843378,9.02766386 L37.6573087,10.122584 L38.2373761,9.1776175 L39.3204836,9.4242119 L38.6082483,8.58377612 L39.1823426,7.67233079 L38.1840632,8.08069146 L37.4717834,7.24819021 L37.5447989,8.35889024 L36.5169656,8.7771022 Z M31.5396102,4.2593253 L32.019025,5.23986342 L32.2045503,4.15283325 L33.2993367,3.97724841 L32.3267331,3.46230654 L32.5142197,2.40291349 L31.7428322,3.16043791 L30.7702286,2.65146922 L31.2496434,3.65563262 L30.4584641,4.42702018 L31.5396102,4.2593253 Z M39.8216069,12.1861404 L39.6893945,13.2692033 L40.4429962,12.4544433 L41.455005,12.9022538 L40.9125152,11.9415074 L41.6522983,11.1583072 L40.5929053,11.3733418 L40.0524214,10.4105895 L39.9142358,11.5153609 L38.8291224,11.7264728 L39.8216069,12.1861404 Z M26.9113294,3.18410777 L27.9489694,2.81524142 L28.6060641,3.6970883 L28.5764657,2.58251016 L29.6220402,2.20566472 L28.5665252,1.88605485 L28.5468672,0.806959204 L27.9333232,1.69665145 L26.8856537,1.3790475 L27.55046,2.27667427 L26.9113294,3.18410777 Z M43.5739248,23.1096659 L43.6507738,22.012829 L42.922937,22.8670833 L41.8950592,22.4468654 L42.4848442,23.3661561 L41.7805435,24.2105146 L42.8537551,23.9343217 L43.4594091,24.8635529 L43.5304187,23.7647101 L44.5760377,23.5063476 L43.5739248,23.1096659 Z M42.8380198,27.7970544 L43.91716,27.7457475 L43.0116432,27.1598852 L43.2858302,26.102498 L42.4138346,26.7987751 L41.4846035,26.1912043 L41.8910474,27.2151148 L41.0328258,27.9017189 L42.1435704,27.8365487 L42.5617823,28.8624207 L42.8380198,27.7970544 Z M40.7033646,31.5119731 L40.9125152,32.6048873 L41.3938913,31.6125811 L42.4611743,31.7664575 L41.6779295,31.0226179 L42.1573443,30.0362403 L41.1669995,30.5511376 L40.3640521,29.7778778 L40.5672741,30.8491281 L39.6044772,31.3659422 L40.7033646,31.5119731 Z M13.5889024,24.6149526 C13.5040742,24.5459044 12.4624224,25.6053866 11.781747,26.345036 C11.5411258,26.6015709 11.385199,26.8442871 11.2925255,26.9586691 C11.2925255,26.9586691 10.9926182,27.4538193 10.8328133,27.6630144 C10.671047,27.872165 10.2705763,28.4619945 10.0930301,28.7185293 C10.0318273,28.8032683 9.87402824,29.1761465 9.56431424,29.5628432 C9.41043791,29.7561247 9.25460024,30.0086923 8.95273162,30.3954336 C8.55029955,30.9122477 8.24642501,31.3363883 8.31551779,31.3936684 C8.35496755,31.4211718 8.94680301,30.7051031 9.58201091,29.9357214 C9.84639113,29.6141502 10.1324799,29.284689 10.3751516,28.9709186 C10.4934562,28.8191374 10.765771,28.5646084 10.8545664,28.4343574 C11.0103595,28.2034983 11.1801048,28.0279581 11.2471471,27.9726838 C11.6002782,27.6847229 11.7995328,27.663059 11.9139594,27.4993314 C11.9672277,27.4184705 12.6675166,26.3649169 12.9220455,25.9368091 C13.1547768,25.5323711 13.728871,24.7411918 13.5889024,24.6149526 M43.2068861,17.9388952 L42.6584231,18.9075761 L41.5713483,18.6945029 L42.326956,19.493483 L41.8003352,20.4463394 L42.7986146,19.9728532 L43.5678625,20.7678661 L43.4318166,19.6709846 L44.4103488,19.2211682 L43.344938,19.0238303 L43.2068861,17.9388952 Z M40.5337084,15.0723914 L41.4273679,15.705638 L41.0881,16.7512125 L41.9759646,16.0903288 L42.893294,16.7275426 L42.5420797,15.6780009 L43.4160367,15.0467156 L42.3408637,15.0565669 L41.9915216,14.0148706 L41.6424916,15.0703855 L40.5337084,15.0723914 Z M23.1827705,2.64754654 L24.1296983,2.08923222 L24.942497,2.81720277 L24.7038371,1.73605663 L25.6486699,1.16989694 L24.5538835,1.05547037 L24.3328311,0 L23.8988838,0.988383496 L22.8099369,0.883808216 L23.634459,1.62956458 L23.1827705,2.64754654 Z M23.3247896,21.8805274 C23.4274035,22.1824852 23.8082162,23.9619143 23.9185864,24.3308252 C24.0329238,24.6978193 24.1474396,24.7175665 24.2106483,24.8615024 C24.4314778,25.4159386 24.7490817,25.4376025 24.9128985,25.4829363 C25.3706494,25.6230832 25.4080041,26.2365381 25.6999768,26.7850011 C25.9722916,27.2980262 26.2288264,27.759566 26.4694922,28.3197971 C26.7101134,28.8801173 27.9412132,31.9144052 28.1523251,32.3759896 C28.2232455,32.5436399 28.8091969,32.5436399 28.7459882,32.3759896 C28.5981742,32.0425612 28.2607339,31.204265 28.0515833,30.3677074 C27.9195047,29.8252175 28.4265566,30.2098192 28.1028903,29.3398295 C27.9529367,28.9413202 27.668943,28.5448167 27.5092272,28.3829613 C27.3454105,28.2232455 27.1875223,27.5346801 27.0632444,27.2268383 C26.9311658,26.926931 26.9980743,26.9112403 26.7259825,26.1871924 C26.5226268,25.6584766 27.0928875,25.8360228 26.7733222,25.0212182 C26.5661775,24.4906301 25.5126685,22.5730601 25.390352,22.3757667 C25.3311551,22.2671796 25.1280223,21.9357571 24.8773714,21.5431763 C24.6406729,21.1703427 24.4454301,20.7718333 24.3328757,20.5981653 C24.1139184,20.2470847 23.7114863,19.4776139 23.4845945,19.1580486 C23.2597978,18.8364329 22.979504,18.1301708 22.8631606,18.2486092 C22.7488232,18.3531399 23.2024285,19.412533 23.3879092,20.0872352 C23.5832412,20.7600207 23.4411775,21.0342522 23.3248342,21.2255278 C23.2162471,21.4150203 23.2162471,21.5413041 23.3247896,21.8805274 M30.4722381,27.3728693 C30.7821304,27.8878557 30.8649526,27.7852418 30.9931977,27.791215 C31.2851259,27.7991495 31.9381642,28.5014888 32.0683707,28.692809 C32.1926485,28.8861351 33.2440625,29.9337155 33.5144159,30.1902058 C33.6327651,30.3025818 34.4653555,31.648019 34.571803,31.551512 C34.6843128,31.4547375 34.2523269,30.801833 34.1871568,30.6557129 C34.128049,30.5136937 33.8872941,30.3025818 33.770817,29.9968797 C33.6623636,29.6969724 33.1672135,28.9413647 33.0055363,28.7027494 C32.8455531,28.4619945 32.5851847,27.9292668 32.3010573,27.5920048 C32.0387276,27.2959757 32.2479228,27.2151594 31.9776585,26.9548356 C31.8138417,26.8009147 31.3049176,26.3490033 31.1904465,26.2543684 C31.0819931,26.1557218 30.6656979,25.7868554 30.4269934,25.5797554 C30.1901612,25.3784948 29.6220402,24.9838635 29.6417873,24.7314296 C29.6495881,24.4728443 29.5253102,23.9817952 29.3339901,23.8179784 C29.1958045,23.6996291 28.7894943,23.0446295 28.3239872,22.6658227 C28.0891609,22.4685293 27.5880376,21.947748 27.20143,21.4959703 C26.8403199,21.0658566 26.5681389,20.6732312 26.4852275,20.7285055 C26.3629556,20.8074495 26.9055791,21.564974 26.9606751,21.6558198 C27.0179106,21.7425201 27.6452732,22.8275444 27.7044255,23.1116718 C27.7696402,23.3997664 28.9394925,25.3685989 29.1900096,25.9801369 C29.3339455,26.3372352 30.1349315,26.8146441 30.4722381,27.3728693 M35.581895,29.2767991 C35.6213002,29.2294148 35.5088795,29.0833839 35.4478104,28.9729691 C35.3806344,28.8624652 34.9821696,28.4205388 34.9071482,28.296261 C34.8421118,28.1799176 34.3252532,27.4440126 34.143606,27.2033468 C33.8202072,26.7889683 34.1161026,26.6370533 33.9463572,26.3806968 C33.877309,26.268187 33.4630643,25.769025 32.9816436,25.2758808 C32.7330879,25.0291973 32.456895,24.7904928 32.2222024,24.5793809 C31.8413897,24.240113 31.5534288,23.98759 31.5061337,24.0290457 C31.4389576,24.096088 31.6638435,24.3663523 31.7605288,24.4906301 C31.8571696,24.6089348 32.0090846,24.8278921 32.2103452,25.0666857 C32.5358391,25.4554329 32.2339705,25.7492333 32.5456012,26.0589919 C32.5969082,26.1102988 33.4570911,27.072962 33.6682922,27.2506419 C33.9818843,27.5307129 35.1024802,28.8604147 35.1813797,28.9333856 C35.3136367,29.0577081 35.544362,29.3241388 35.581895,29.2767991 M17.8461772,22.9656408 C17.9093413,22.8314671 18.1046288,22.4172224 18.0947775,22.2515334 C18.0947775,22.221935 18.021762,22.170628 17.9606037,22.2316971 C17.6725537,22.5158691 17.0866914,23.5298392 16.8637668,23.6443103 C16.3626435,23.8868929 16.1436417,24.4748948 15.993688,24.7076261 C15.8871514,24.8792882 15.7490996,25.1574424 15.5103505,25.5067399 C15.3012446,25.8085194 15.0625401,26.2602525 14.9737447,26.4161347 C14.8869553,26.5798178 14.8553509,26.7297714 15.0171172,26.7297714 C15.1788835,26.7297714 15.0526888,26.9941962 14.8553509,27.284163 C14.7429302,27.4538193 14.4647761,28.2666625 14.3838706,28.4875811 C14.277334,28.7598067 14.2931139,29.1070091 14.2556255,29.223397 C14.2181371,29.3319842 13.6875045,30.4624314 13.5493635,30.7129484 C13.462574,30.8708366 13.4882052,30.9339116 13.4546395,31.0207457 C13.4053384,31.1291991 13.4665413,31.1608034 13.5493635,31.0818594 C13.650016,30.9812068 14.2181371,30.1190179 14.391716,30.0165823 C14.5614168,29.9100011 14.7172545,29.7522466 14.7428857,29.3812852 C14.7685169,29.010413 15.0092718,28.9098049 15.1887793,28.692809 C15.3762214,28.4777298 15.6227712,28.1897243 15.754939,27.8878557 C15.8792169,27.5762249 16.0390664,27.8128789 16.3271165,27.3493331 C16.6150774,26.8818201 17.2622317,25.7296644 17.4101794,25.5067399 C17.5521985,25.2836816 17.4476678,24.962155 17.429882,24.695858 C17.421992,24.5558448 17.4416946,24.2105146 17.5246059,23.8436096 C17.6075173,23.5161098 17.7593877,23.1826368 17.8461772,22.9656408 M20.324112,14.162952 C20.5627719,14.162952 20.9119802,13.7269096 21.1013391,13.348192 C21.2967156,12.9378254 21.3953623,12.7070109 21.6399508,12.1822177 C21.6498021,12.1545806 21.6261322,12.1545806 21.6004565,12.1545806 C21.3223468,12.1545806 21.0165109,12.438708 20.8212681,12.6675166 C20.590409,12.951644 20.2116468,13.4862884 20.1544112,13.8709792 C20.1130001,14.0780793 20.2037123,14.162952 20.324112,14.162952 M26.4871889,14.5318183 C26.7595036,14.6699148 27.0968547,14.0701894 27.3907888,13.5237323 C27.682717,12.9733079 27.9155374,12.2906711 27.668943,12.205843 C27.3907888,12.0934224 27.0376132,12.6300282 26.7436791,13.1784466 C26.4535786,13.7269096 26.2327937,14.4095464 26.4871889,14.5318183 M15.9582055,14.162952 C16.202794,14.162952 16.544157,13.7269096 16.7414057,13.348192 C16.9347764,12.9378254 17.0373903,12.7070109 17.2740889,12.1822177 C17.2859461,12.1545806 17.2622317,12.1545806 17.2405231,12.1545806 C16.9604076,12.1545806 16.6545717,12.438708 16.4612902,12.6675166 C16.2304311,12.951644 15.8477462,13.4862884 15.7905107,13.8709792 C15.7491441,14.0780793 15.8477462,14.162952 15.9582055,14.162952 M13.2830665,9.20516547 C15.1769667,9.29396084 16.2915894,10.2231474 16.2915894,11.2194654 C16.2896726,13.000945 13.4645799,13.3047304 13.4645799,13.3047304 C12.9733079,15.7727694 11.0162881,16.7137686 9.660955,16.6999947 C7.84198702,16.6861761 7.86957956,15.2124938 7.93082697,15.0230904 C8.00772056,14.8040439 8.12014122,14.6048338 8.34903894,14.6048338 C8.57593075,14.6048338 8.76533414,14.79027 8.76533414,15.0230904 C8.76533414,15.1631927 8.69624135,15.295316 8.57593075,15.3643642 C8.3372263,15.5123565 8.38256009,15.6977926 8.38256009,15.6977926 C8.38256009,16.4809928 9.39461344,16.5421065 9.66099957,16.5421065 C12.3696598,16.5421065 12.0579399,12.0795592 14.4470348,10.5625045 C14.5555773,10.4895336 14.6404055,10.5625045 14.5733186,10.6374813 C13.8276068,11.5725965 13.5474467,13.0798445 13.5474467,13.0798445 C14.6996024,13.0798445 15.4610941,11.9829631 15.4610941,11.2194654 C15.4610941,9.91151665 14.2833072,9.36893766 13.283111,9.36893766 C10.4935008,9.36893766 9.28219278,11.3181121 9.28219278,12.3794665 C9.28219278,13.4428268 9.95297233,13.8275177 10.4383157,13.8275177 C11.1150239,13.8275177 11.3260912,13.3757845 11.2432244,13.1548213 C11.1090507,12.8076189 11.2944868,12.5176075 11.503682,12.5176075 C11.5865042,12.5176075 11.8647029,12.503789 11.8647029,12.9930996 C11.8647029,13.4645799 11.1958847,13.9400275 10.456057,13.9400275 C9.7261251,13.9400275 8.65884209,13.5454853 8.65884209,12.3795111 C8.65875294,10.0160474 11.5667124,9.11837601 13.2830665,9.20516547 M17.9803509,12.0934224 C17.6785269,12.7760591 17.4556023,13.2652807 17.177359,13.910429 C17.1537337,13.9715873 17.1320252,14.0780793 17.1893053,14.1175291 C17.2405231,14.1411989 17.2997646,14.1411989 17.3332412,14.1175291 C17.6903395,13.9459115 18.0040208,13.5296163 18.2506597,13.0561301 L18.6905356,12.0855324 L19.3100082,12.0855324 L19.1403074,12.4524374 C19.1264443,12.4721846 19.1264443,12.4839972 19.1403074,12.4721846 C19.3336781,12.3261982 19.5368554,12.1071963 19.7854557,11.9710613 C19.8820965,11.9256829 20.1129556,11.9256829 20.0891966,12.0854878 C20.0773839,12.227507 19.968886,12.3360495 19.9077723,12.4721846 C19.8722452,12.558974 19.8347568,12.667472 19.846614,12.7266689 C19.8722452,12.7917053 19.9432548,12.8272324 20.0399401,12.7542615 C20.1366254,12.6931032 20.2116022,12.6437576 20.3003976,12.5707867 C20.4542294,12.420833 20.6495614,12.2807753 20.8685187,12.1644319 C21.3084837,11.96121 21.9062478,11.8289976 22.3442069,12.1071963 C22.038371,12.7917499 21.8076011,13.3007631 21.5155838,13.9458669 C21.4623155,14.0563262 21.5057325,14.0918533 21.541215,14.1174845 C21.5787034,14.1411543 21.6497129,14.152967 21.7483596,14.0997878 C21.9889808,13.9991798 22.4151719,13.5237323 22.5848281,13.1547768 C22.746639,12.8115416 22.8926253,12.4721846 23.0642429,12.0855324 L23.7015459,12.0855324 L23.523866,12.4603719 L23.5494972,12.4722292 C23.7192871,12.3163469 24.1631303,11.9612545 24.4905856,12.0362314 C24.6721436,12.0737198 24.7608498,12.2906711 24.7471204,12.452482 C24.9541759,12.3006116 25.1672937,12.1190981 25.4750909,12.0441213 C25.9149668,11.9356234 26.086629,12.2413701 25.9505385,12.5353933 C25.7789209,12.93787 25.4395193,13.7269542 25.2442319,14.1333981 C25.220562,14.1748538 25.220562,14.2655659 25.2442319,14.2853131 C25.2935329,14.3247629 25.3804115,14.2853131 25.4178554,14.2655659 C25.6368126,14.0781239 25.757257,13.9578133 25.9267795,13.7171029 C25.9741192,13.2909564 26.2049337,12.8984202 26.5246327,12.5709204 C26.8639006,12.1941195 27.4004618,11.9001854 27.9154483,12.0737644 C28.0949558,12.1329613 28.2172723,12.3163915 28.2666179,12.4979495 C28.2902878,12.5945903 28.3139576,12.6438913 28.3139576,12.7543952 C28.5842219,12.9517331 28.9373529,12.6301173 29.0814671,12.3894515 C29.1209168,12.2907603 29.1702179,12.1822623 29.1938432,12.1072855 C29.3477641,12.1190981 29.649499,12.1072855 29.8290511,12.1072855 L29.0339937,13.9242921 C28.982865,14.0307842 28.9709186,14.0919424 28.9709186,14.1748538 C28.9709186,14.2418961 29.0439341,14.2537533 29.1208723,14.2418961 C29.3398295,14.2024463 29.6968387,13.7723771 29.8763462,13.4113562 C30.0776068,12.9595785 30.2769506,12.5827776 30.474244,12.1329613 L31.1173418,12.1329613 C30.8608516,12.7405766 30.570751,13.3876863 30.3617342,13.8611725 C30.3124331,13.9578133 30.2552867,14.05646 30.2867574,14.1905891 C30.3123886,14.2537533 30.3972613,14.2418961 30.4504404,14.2182262 C30.7286392,14.05646 31.208054,13.5238214 31.3738321,13.1943157 C31.5473665,12.8036962 31.6756116,12.5117235 31.857125,12.1329167 L32.5180533,12.1329167 L32.3602097,12.5117235 C32.6067595,12.3163915 32.8710951,12.1072855 33.1888328,12.0559785 C33.3347746,12.0362759 33.5163326,12.0441213 33.6012053,12.194075 C33.699852,12.3637758 33.6406105,12.5432387 33.567595,12.7070109 C33.3860816,13.1213002 33.1749251,13.5711165 32.9935008,13.9716318 C32.9599351,14.0702339 32.9501284,14.1629966 33.0152093,14.2024018 C33.1158173,14.2655659 33.5773572,13.9834445 33.8121835,13.4705085 C34.01545,13.0206922 34.153591,12.7543506 34.3350153,12.3163915 L33.9957475,12.3163915 L34.0904269,12.1190981 L34.4316561,12.1190981 L34.9189163,11.0597051 L35.5761001,11.0597051 L35.1025248,12.1190981 L35.5977641,12.1190981 L35.5049569,12.3163915 L35.0176075,12.3163915 C34.7375811,12.9102329 34.5027102,13.4113116 34.2581217,13.9716318 C34.1634869,14.1629966 34.0648402,14.4845678 34.1161026,14.6798552 C34.1536802,14.7883978 34.2877648,14.8159903 34.4100367,14.7745792 C34.7848763,14.6443727 35.0413665,14.3248074 35.2603238,13.9834445 C35.2722256,13.9459561 35.4713466,13.9716318 35.4556112,13.9992244 C35.197115,14.5081931 34.6389345,15.0231349 34.1042454,15.0093164 C33.9445296,15.0093164 33.770817,14.9106697 33.6761376,14.7745346 C33.6308929,14.7034805 33.6012945,14.6443282 33.5774909,14.5595 C33.5439252,14.4214036 33.5539548,14.2655214 33.5774909,14.1175736 C33.2875241,14.3385814 33.0093699,14.6048784 32.6424203,14.6798106 C32.4825708,14.7034805 32.2774766,14.6443282 32.2399882,14.4727106 C32.2163184,14.3385814 32.2280864,14.1905445 32.2775212,14.0702339 C32.5082911,13.5711165 32.7134299,13.1213002 32.9323871,12.5945457 C32.9502175,12.5708758 32.9323871,12.4840864 32.9067559,12.4722737 C32.8711843,12.4387526 32.7627755,12.4387526 32.6661347,12.5117235 C32.2163184,12.8510359 31.9854593,13.2909564 31.7921778,13.7407282 C31.6540368,14.0425968 31.5062228,14.3483881 31.3621086,14.6443282 L30.7150435,14.6443282 C30.7900203,14.4628593 30.8985183,14.2181817 30.9833018,14.0209329 C30.9833018,14.0091202 30.9715338,14.0091202 30.9715338,14.0209329 C30.7052368,14.2853131 30.3618679,14.5890985 30.0246059,14.6798552 C29.8883817,14.7153377 29.7522466,14.6700039 29.683243,14.5417588 C29.6062603,14.4214482 29.5845963,14.2418961 29.6496327,14.0781685 C29.6496327,14.0702785 29.6437932,14.0702785 29.6300638,14.0781685 C29.3893089,14.3248074 29.1546163,14.5417588 28.83095,14.654224 C28.4620837,14.7666447 28.1307057,14.5082376 28.363437,13.9716318 C28.4266457,13.8275622 28.6100314,13.4231688 28.811292,12.93787 C28.6435971,13.0068736 28.4384138,13.0068736 28.3279991,12.9733525 C28.3140914,12.9733525 28.3140914,12.9733525 28.3140914,12.9852097 C28.1719831,13.6657959 27.7676343,14.2853131 27.1462449,14.5812085 C26.8424149,14.7291563 26.4971293,14.7666447 26.1953053,14.5595 C26.0493635,14.4628593 25.9624848,14.2261162 25.9507168,14.0208883 C25.6369909,14.3385368 25.2798481,14.738963 24.7945938,14.6699593 C24.7215783,14.6541794 24.6605092,14.5890539 24.6229762,14.5220116 C24.5124724,14.3385814 24.5774642,14.1412435 24.6466015,13.9833999 C24.8794665,13.4981011 25.0707867,13.0443175 25.3036071,12.4978604 C25.3410063,12.4208776 25.2364311,12.365648 25.1614988,12.4012196 C24.9307289,12.5117235 24.7886206,12.6221828 24.6605092,12.8194316 C24.5913719,12.9259682 24.5223237,13.0482847 24.467094,13.1646281 C24.2519703,13.6322302 24.0271735,14.1175291 23.8317969,14.5890093 L23.1709578,14.5890093 C23.4668979,13.924203 23.7450521,13.2770933 24.0369802,12.6201769 C24.0646174,12.5590186 24.0489266,12.4722292 24.013355,12.452482 C23.9561194,12.4209222 23.8516333,12.4722292 23.7844572,12.5117235 C23.6266137,12.6202215 23.4865559,12.7642465 23.3820252,12.9516885 C23.2715659,13.1331574 23.1710024,13.3146263 23.0940197,13.5119642 L22.6008755,14.5890985 L21.9556825,14.5890985 C22.0188467,14.4470794 22.1391573,14.1629966 22.2121282,14.0209329 C22.2121282,14.0091202 22.2003156,13.999269 22.2003156,14.0091202 C21.8471846,14.301093 21.3954069,14.6798552 21.0659457,14.6167356 C20.9554418,14.6048784 20.8607624,14.5082376 20.8351312,14.4096355 C20.811506,14.2853577 20.8213127,14.1748538 20.8469884,14.0702785 C20.8469884,14.05646 20.8351312,14.05646 20.8213572,14.0702785 C20.5391912,14.338626 20.2867128,14.5595446 19.9315759,14.6443727 C19.7283539,14.6897511 19.5370337,14.5595446 19.4719082,14.4096355 C19.3811515,14.2418961 19.3594876,13.9716764 19.5054294,13.6658405 C19.5922188,13.4705531 19.6869428,13.2653698 19.8072534,13.0957136 C19.7362438,13.133202 19.5922188,13.1450146 19.4935721,13.133202 C19.4107499,13.1213893 19.3219546,13.0562638 19.2785376,12.9931442 C19.2272752,12.9379146 19.2154179,12.8274107 19.2154179,12.7544398 C19.2272752,12.7406212 19.1897867,12.7406212 19.164111,12.7544398 C18.9708295,12.910322 18.88404,13.0957581 18.7873547,13.3009414 L18.2270344,14.5694405 L17.5681567,14.5694405 L17.8108284,14.0308288 C17.8226856,14.0209775 17.8108284,14.0091648 17.7989712,14.0209775 C17.4556915,14.3248074 17.0453694,14.6700485 16.7139024,14.604923 C16.6191784,14.5891431 16.5185704,14.4944637 16.4949005,14.3997843 C16.4712752,14.2853577 16.4810819,14.1630412 16.4949005,14.05646 L16.4712752,14.05646 C16.2028832,14.3248074 15.9464821,14.5417588 15.5973183,14.6167356 C15.3980636,14.6798552 15.2185115,14.5595446 15.1415288,14.3898438 C15.044888,14.1412435 15.0804151,13.8888096 15.1672046,13.6539833 C15.4197276,12.9930996 15.8872851,12.5216194 16.5185704,12.1645657 C16.9189965,11.9356234 17.5423918,11.8665306 17.9803509,12.0934224 M3.81548213,22.3007453 C3.81548213,25.0883942 4.55530989,28.2291295 5.8751159,30.8056219 C8.26024356,28.5802992 14.5180889,21.5176343 15.2362082,20.6969457 C16.3272056,19.4481492 16.7986859,20.243162 17.3845928,19.54479 C17.698274,19.1620605 17.8817042,19.0160741 18.0198007,18.9391359 C18.2447311,18.8050068 18.5012214,18.4854415 18.6294219,18.3906729 C18.7576671,18.2940322 19.0476785,17.9093413 19.2726089,17.7159707 C19.4995007,17.5246505 19.9433439,17.2346391 20.3951662,16.8518651 C20.8449825,16.4652129 21.6104415,15.5695475 22.4449041,15.5695475 C23.4372103,15.5695475 23.8515887,16.2422884 23.9402949,16.3231938 C24.0113045,16.4001765 24.6229317,16.9406604 24.7215338,17.0432744 C24.8299872,17.1655909 25.4849868,17.6824495 25.8401237,17.6824495 C26.1912934,17.6824495 26.4517955,18.0671404 26.6411098,18.2585497 C27.0613277,18.6412346 28.7973397,20.4660866 29.3675558,20.8527833 C29.6220847,21.0283236 29.8627059,20.9968084 30.0520648,21.1448007 C30.2474859,21.2887365 30.3441267,21.3815883 30.4544968,21.4150649 C30.561078,21.4446634 30.9339116,21.3498948 31.3679927,21.8925184 C31.5692533,22.0305702 31.6225216,22.0543292 31.6225216,22.0543292 C31.6225216,22.0543292 32.2123065,22.5888845 32.4235076,22.9656854 C32.6148278,23.2912239 37.0122049,29.1327741 38.5865398,31.2220509 C40.0464036,28.5745043 40.8809554,25.5324157 40.8809554,22.2969564 C40.8809554,12.0559785 32.5793007,3.76417517 22.3442961,3.76417517 C12.1092023,3.7700592 3.81548213,12.0657853 3.81548213,22.3007453" id="path2"></path>
                <path d="M37.5094055,33.6957956 L37.5094055,33.903074 L37.9098763,33.903074 L37.9098763,34.9999554 L38.1643606,34.9999554 L38.1643606,33.903074 L38.56287,33.903074 L38.56287,33.6957956 L37.5094055,33.6957956 Z M39.912319,33.6957956 L39.5591434,34.6210595 L39.1961611,33.6957956 L38.8311729,33.6957956 L38.8311729,35 L39.0679606,35 L39.0679606,33.979923 L39.0738,33.979923 L39.4683867,35 L39.643927,35 L40.0306683,33.979923 L40.0406087,33.979923 L40.0406087,35 L40.2754351,35 L40.2754351,33.6957956 L39.912319,33.6957956 Z" id="path6"></path>
            </g>
            <g id="Group-26" transform="translate(0.000000, 0.875000)">
                <path d="M8.37549271,16.6274414 C8.76038128,16.6274414 9.14539366,16.6211839 9.53013779,16.6287049 C10.389802,16.645512 11.0336423,17.0208219 11.4240817,17.7653848 C12.0603489,18.9786789 12.6802522,20.2000757 13.3072954,21.4179427 C13.3380006,21.4775895 13.3665804,21.5389011 13.4036826,21.5947373 C13.5751202,21.8527791 13.9170256,21.8504526 14.0824583,21.5907661 C14.1112858,21.5455196 14.1337575,21.4963821 14.1583341,21.4486486 C14.785336,20.2310023 15.4107077,19.0125737 16.0397525,17.7959102 C16.3744561,17.1485592 16.9096725,16.7601326 17.6495698,16.6468958 C17.7440998,16.6324153 17.841168,16.6284643 17.9370806,16.6283038 C18.7274724,16.6268598 19.5178641,16.6274615 20.3082559,16.6275417 C20.3494851,16.6275417 20.3909207,16.626218 20.4319229,16.629427 C20.8436785,16.6616571 21.1013096,17.0472959 20.9618153,17.4258951 C20.9341847,17.5009049 20.8943174,17.5719035 20.8573184,17.6433835 C19.6842667,19.9094026 18.5112563,22.1754418 17.3373585,24.4410598 C16.7689607,25.5380285 16.2042773,26.6368424 15.6274603,27.7296395 C15.2478131,28.4488514 14.635421,28.8446386 13.7980634,28.8645945 C12.9252545,28.8854127 12.2768951,28.4995132 11.8697411,27.7560132 C11.5342946,27.1434396 11.2249516,26.517308 10.9087165,25.894947 C10.8219247,25.7241291 10.7201517,25.5788026 10.5022641,25.5762955 C10.283902,25.5737885 10.1784972,25.7157858 10.0909212,25.8871652 C9.77014631,26.5149013 9.44966033,27.142878 9.11895991,27.7656803 C8.55949718,28.8192677 7.21160305,29.1896237 6.1645295,28.583107 C5.78690453,28.3643551 5.51889398,28.0511188 5.32529413,27.6705542 C5.0057161,27.0422966 4.68033958,26.4168068 4.35770754,25.7900134 C2.94439968,23.0440918 1.5309061,20.2982504 0.119104619,17.5516067 C0.0706117956,17.4572628 0.0177855711,17.3571628 0.00445520349,17.2551173 C-0.0363200386,16.9431646 0.207732992,16.6638031 0.534120645,16.6311919 C0.59540732,16.625 0.657705121,16.6276019 0.719528312,16.6275818 C1.47556238,16.6273612 2.23159645,16.6258169 2.98760988,16.6278425 C3.89267168,16.6302493 4.55163756,17.0282025 4.95825504,17.8102904 C5.52815921,18.906497 6.0900569,20.0066546 6.65550386,21.1050474 C6.73232887,21.2542849 6.80513001,21.4057085 6.88806306,21.5516969 C7.0642055,21.8617041 7.43190491,21.8699271 7.60557112,21.5607221 C7.77985639,21.250394 7.93096829,20.9278918 8.09974395,20.6145352 C8.15193048,20.5176241 8.10391226,20.4494333 8.06451958,20.3728791 C7.72364599,19.7102254 7.38287557,19.0475115 7.04194007,18.3848978 C6.88835195,18.0864229 6.72688117,17.7914376 6.5846837,17.4879286 C6.53274479,17.3770384 6.49560135,17.2437254 6.50513483,17.1246724 C6.52876219,16.829266 6.76429286,16.6328967 7.07652474,16.6291462 C7.50945216,16.6239316 7.94250339,16.6278425 8.37549271,16.6278425 L8.37549271,16.6274414 Z" id="Fill-1" fill="#1B1D36"></path>
                <path d="M52.500448,22.750019 C52.5005084,20.9496796 52.5005084,19.1493403 52.5005486,17.3490009 C52.5005486,17.2954713 52.4989398,17.2418412 52.5012323,17.188392 C52.5142034,16.8862576 52.733424,16.6430217 53.0323613,16.6380146 C53.6013778,16.6284831 54.1723249,16.6109482 54.7395315,16.6453745 C55.7570847,16.7071084 56.5587152,17.5909297 56.577297,18.6366869 C56.5850193,19.0715796 56.5787047,19.5067136 56.5788053,19.941747 C56.5788254,19.9952766 56.577297,20.0488866 56.5793483,20.1023558 C56.5931036,20.4628661 56.8319518,20.7042318 57.1947589,20.7058003 C58.1390307,20.7098824 59.0833226,20.7095204 60.0275944,20.7061623 C60.4125025,20.7047949 60.6551917,20.4607949 60.6584094,20.0774209 C60.6623509,19.6089667 60.6540656,19.1403717 60.6608025,18.6719779 C60.6738539,17.7639859 61.2121623,17.0100674 62.0522836,16.7372917 C62.240414,16.6762012 62.4447331,16.6439668 62.6427376,16.6383364 C63.1312331,16.6244613 63.6203922,16.6321228 64.1092698,16.6342141 C64.5029259,16.6359032 64.7289639,16.8561346 64.7482696,17.2520363 C64.7512057,17.3121415 64.7495164,17.372488 64.7495164,17.4327138 C64.7494762,20.9798428 64.7494561,24.5269718 64.7489936,28.0741009 C64.7489936,28.1609909 64.7502404,28.2485848 64.740306,28.3346303 C64.7041077,28.6478648 64.4810862,28.8549048 64.1649749,28.8723593 C64.0981891,28.8760392 64.0310816,28.8739277 63.9640947,28.8739478 C63.5555772,28.8740283 63.1469994,28.8694234 62.7385423,28.8748125 C61.5747884,28.8901756 60.6471678,27.9593401 60.6587512,26.8060812 C60.6631956,26.3644119 60.6602595,25.9226421 60.6592138,25.4809325 C60.6581479,25.0320643 60.4298777,24.7935942 59.9836537,24.7915431 C59.0728653,24.7873605 58.1620367,24.7871594 57.2512684,24.7915632 C56.8036769,24.793735 56.5800521,25.0299126 56.5790064,25.4834461 C56.578021,25.9184795 56.5796901,26.353513 56.5783629,26.7885263 C56.5747028,27.9854212 55.6940193,28.8676538 54.4959374,28.873606 C54.0405432,28.8758582 53.5851289,28.8728419 53.1297347,28.8743902 C52.9473356,28.875 52.7860322,28.8268732 52.6578099,28.691159 C52.5624476,28.5902129 52.5048924,28.4724358 52.5013128,28.3317145 C52.4997844,28.2715289 52.5004279,28.2112629 52.5004279,28.1510371 C52.5003877,26.3506977 52.5003877,24.5503584 52.500448,22.750019" id="Fill-3" fill="#1B1D36"></path>
                <g id="Group-7" transform="translate(16.625000, 16.625000)">
                    <mask id="mask-2" fill="white">
                        <use xlink:href="#path-1"></use>
                    </mask>
                    <g id="Clip-6"></g>
                    <path d="M12.1794629,12.2453179 C11.8202132,12.245418 11.4609036,12.2493231 11.1017138,12.244637 C10.2246467,12.2331421 9.5866798,11.8293577 9.21492369,11.0372489 C8.69159226,9.92216068 8.18745997,8.79806074 7.67503668,7.67786587 C7.56977105,7.447747 7.45979053,7.21969081 7.36009884,6.98718884 C7.29111379,6.82627986 7.18724663,6.71347335 7.00624328,6.71020911 C6.81323298,6.70672459 6.71284204,6.83266816 6.63830303,6.99644086 C6.10839873,8.16041259 5.57541778,9.32296246 5.04339579,10.4859729 C4.95195513,10.6858726 4.8675868,10.8893969 4.76761541,11.0849108 C4.38856722,11.8264339 3.78222597,12.2259327 2.94909112,12.2422339 C2.18432199,12.2571933 1.41903343,12.2463793 0.654004582,12.2439762 C0.56873722,12.2436958 0.479494176,12.2369671 0.399001626,12.2113939 C0.087100487,12.1123452 -0.0739045913,11.7846596 0.0329792863,11.474677 C0.0588911347,11.3995194 0.0965502205,11.3281467 0.132151542,11.2566939 C1.33490483,8.84255853 2.53827744,6.42874355 3.74103073,4.01462818 C4.21915128,3.05498183 4.69163795,2.09249178 5.17503278,1.13552891 C5.47942208,0.532966322 5.96817108,0.158900498 6.63376795,0.0353600481 C7.50851759,-0.126970782 8.36250979,0.278816241 8.78950588,1.06351538 C8.98353508,1.4200985 9.15390998,1.78961842 9.33529292,2.15313054 C9.99253886,3.47036131 10.6503842,4.78731172 11.3071107,6.10480283 C12.0471067,7.58927081 12.7863036,9.07415933 13.5254406,10.5590679 C13.6589955,10.8273964 13.7953673,11.0945033 13.9203715,11.366837 C13.9637444,11.4613197 13.9965687,11.5692399 13.9997053,11.6720734 C14.0096146,11.996715 13.7685365,12.2396506 13.4368169,12.2439161 C13.0177721,12.2493031 12.5985876,12.2452178 12.1794629,12.2453179" id="Fill-5" fill="#1B1D36" mask="url(#mask-2)"></path>
                </g>
                <path d="M22.7006844,5.25415993 C23.0300435,5.25409881 23.3594818,5.25945687 23.6887026,5.25244861 C23.9659536,5.24656086 24.1596338,5.36028206 24.3041721,5.60893258 C24.9298656,6.68525013 25.7297012,7.60518576 26.6834289,8.38542482 C26.7936569,8.47561539 26.8803127,8.500511 27.0164663,8.4314267 C28.6579228,7.59860534 30.3950527,7.14066462 32.2229517,7.06066047 C34.4509266,6.96313568 36.5725495,7.40805816 38.5765483,8.42093469 C38.7234597,8.49519369 38.8181443,8.48366266 38.9435203,8.38075944 C39.8801818,7.61205141 40.671692,6.71106252 41.2873988,5.65297866 C41.4514555,5.37105929 41.6602441,5.24413649 41.9792608,5.2502076 C42.6509122,5.26298137 43.3229592,5.25140959 43.9948084,5.25542304 C44.3453866,5.25750107 44.6000541,5.50513295 44.6236659,5.85434382 C44.6331186,5.99393853 44.5913332,6.12002604 44.5301877,6.24360769 C44.0039447,7.30721259 43.3536704,8.28292906 42.5769127,9.16878093 C41.5015268,10.3952056 40.2409641,11.3729186 38.8218621,12.1405876 C38.552363,12.2863757 38.319666,12.2704645 38.0631791,12.1063816 C36.3846239,11.0325088 34.554609,10.5066043 32.5784737,10.5635871 C30.7764014,10.6155379 29.0979055,11.1214566 27.5670132,12.1113118 C27.2959717,12.286559 27.0551667,12.2947693 26.7731894,12.1413618 C24.3250352,10.8094873 22.4503674,8.8885525 21.1535169,6.37004154 C21.0799722,6.22720755 21,6.08767397 21,5.91468817 C20.9995852,5.55139968 21.2569224,5.26970441 21.6138287,5.25458776 C21.6269794,5.25401732 21.6401695,5.25422105 21.6533597,5.25422105 C22.0024548,5.25422105 22.3515696,5.25422105 22.7006844,5.25415993" id="Fill-8" fill="#1B1D36"></path>
                <path d="M48.2627435,28.8584588 C47.6762416,28.8584588 47.0878262,28.8910464 46.5035218,28.85287 C43.8579543,28.680041 41.655948,26.5910754 41.2183924,23.8203025 C40.8898467,21.7397803 41.428626,19.9181901 42.8271332,18.4166461 C43.9286952,17.2339021 45.2926467,16.6525516 46.8595568,16.6322472 C47.9381574,16.6182753 49.0170611,16.6281461 50.0958132,16.6318652 C50.2009016,16.6322271 50.3133596,16.6447314 50.4093354,16.6858831 C50.6132603,16.7732726 50.7348499,16.9478506 50.737919,17.1818744 C50.7451749,17.7369699 50.7641579,18.2939952 50.7313829,18.8471004 C50.6721795,19.846441 49.9164411,20.6371484 48.9739799,20.7019819 C48.5466925,20.7313731 48.1166201,20.7163156 47.6877981,20.7195121 C47.422851,20.7214822 47.1578093,20.7158733 46.8929191,20.7206579 C46.1145982,20.7346901 45.5331924,21.1142828 45.1851144,21.8417649 C44.8353123,22.5728858 44.9027758,23.3000664 45.3581209,23.9631976 C45.7349576,24.5119805 46.2627866,24.7828137 46.9037557,24.7885834 C47.5282615,24.7941922 48.1528431,24.7890457 48.7773868,24.7900509 C49.9043731,24.7918803 50.7408744,25.6776165 50.7420111,26.8694875 C50.7424279,27.3043645 50.7285032,27.7398647 50.7459327,28.1739376 C50.7631159,28.6013764 50.50641,28.8843721 50.0795583,28.8747627 C49.4742249,28.8611325 48.86838,28.8713049 48.2627625,28.8713049 C48.2627625,28.8670228 48.2627435,28.8627408 48.2627435,28.8584588" id="Fill-10" fill="#1B1D36"></path>
                <path d="M35.4355626,16.6259441 C37.3346337,16.6259441 39.2337263,16.6259441 41.1327975,16.6259641 C41.1970503,16.6259641 41.261346,16.6247012 41.325556,16.6264452 C41.7034193,16.6366688 41.9733583,16.8576979 41.9854928,17.2067218 C42.0005002,17.6397191 42.012356,18.0757033 41.9758667,18.506716 C41.8995437,19.4088539 41.1728242,20.0624594 40.2054727,20.1031531 C39.6140765,20.1280304 39.0206865,20.1115525 38.4281968,20.1136974 C38.3568048,20.113958 38.2851555,20.1110313 38.214085,20.1157622 C37.8999601,20.1366503 37.6526177,20.3629114 37.6248756,20.6558261 C37.6179722,20.7286939 37.6212095,20.8024839 37.6212095,20.8758529 C37.6210166,23.2909957 37.6209951,25.7061384 37.6208665,28.1212612 C37.6208665,28.1812995 37.623675,28.2416384 37.6185511,28.3013159 C37.5897156,28.6373499 37.3324255,28.8708076 36.9713919,28.8721307 C35.9433465,28.8758592 34.9152582,28.8760797 33.8871914,28.8720505 C33.5248929,28.8706272 33.2714404,28.6336614 33.2508804,28.295282 C33.2468498,28.2287688 33.2487793,28.1618948 33.2487793,28.0952012 C33.2486936,25.7000644 33.248715,23.3049478 33.2486936,20.9098311 C33.2486936,20.8431175 33.2515664,20.7762234 33.247493,20.7097102 C33.2257538,20.3541312 32.9631683,20.1167645 32.5805456,20.1146396 C31.9951308,20.1114121 31.4096947,20.1123944 30.8242585,20.113938 C30.3748745,20.1151207 29.9615511,20.0112615 29.6042693,19.7489172 C29.165219,19.4265146 28.9116593,19.0051441 28.8888267,18.4817185 C28.8705392,18.062112 28.8725116,17.6411825 28.8825236,17.2212152 C28.8910992,16.860785 29.1539634,16.6344637 29.5455692,16.6267459 C29.7168457,16.6233581 29.888251,16.6259441 30.0595918,16.6259441 C31.8515749,16.6259441 33.6435795,16.6259441 35.4355626,16.6259441" id="Fill-12" fill="#1B1D36"></path>
                <path d="M31.3747649,2.63301921 C31.3747649,2.95769565 31.3740871,3.28235215 31.375323,3.60702859 C31.3755622,3.6729972 31.3747649,3.74074119 31.3886186,3.80459528 C31.4279075,3.98544541 31.5995943,4.0728583 31.7698061,4.00244125 C31.8124239,3.98480707 31.8522509,3.96013118 31.8925165,3.93721073 C32.479816,3.60311875 33.0670157,3.26882729 33.6541358,2.93443608 C33.6944213,2.91149569 33.7361022,2.89027083 33.7736169,2.86336075 C33.9623071,2.72803235 33.9633436,2.52220711 33.77569,2.38697846 C33.7328929,2.35613858 33.6853317,2.33172202 33.6393053,2.30551012 C33.0808695,1.98769585 32.522334,1.67002121 31.9637188,1.35254606 C31.9003902,1.31655956 31.8386364,1.27648368 31.7720786,1.24775831 C31.602704,1.17470811 31.4291434,1.26198136 31.3891967,1.44163459 C31.375024,1.50538895 31.3755822,1.57317284 31.375323,1.63914144 C31.3740473,1.97044068 31.3747449,2.30171997 31.3747649,2.63301921 M29.7507064,2.60812389 C29.7533376,1.15571745 30.9178502,-0.000358899892 32.3778165,8.35805167e-08 C33.8263409,0.000359234292 34.996993,1.17037935 34.9999887,2.62075108 C35.0029731,4.07646892 33.8239489,5.25011961 32.3651188,5.24999992 C30.8660033,5.24986028 29.7173976,4.00204229 29.7507064,2.60812389" id="Fill-14" fill="#1B1D36"></path>
            </g>
            <g id="+" transform="translate(75.250000, 14.000000)" fill="#FF4900" fill-rule="nonzero">
                <polygon id="Path" points="9.5795 5.8765 6.07775 5.8765 6.07775 9.29775 3.481625 9.29775 3.481625 5.8765 0 5.8765 0 3.42125 3.481625 3.42125 3.481625 3.97903932e-13 6.07775 3.97903932e-13 6.07775 3.42125 9.5795 3.42125"></polygon>
            </g>
            <g id="+-copy-2" transform="translate(145.250000, 14.000000)" fill="#FF4900" fill-rule="nonzero">
                <polygon id="Path" points="9.5795 5.8765 6.07775 5.8765 6.07775 9.29775 3.481625 9.29775 3.481625 5.8765 0 5.8765 0 3.42125 3.481625 3.42125 3.481625 3.97903932e-13 6.07775 3.97903932e-13 6.07775 3.42125 9.5795 3.42125"></polygon>
            </g>
            <g id="HBO_Max_Logo" transform="translate(163.625000, 12.250000)" fill-rule="nonzero">
                <path d="M9.33073291,13.0699108 L5.83945732,13.0699108 L5.83945732,8.09122512 L3.58079723,8.09122512 L3.58079723,13.0699108 L0,13.0699108 L0,0.227243149 L3.57391153,0.227243149 L3.57391153,5.02000257 L5.83257162,5.02000257 L5.83257162,0.227243149 L9.32384721,0.227243149 L9.32384721,13.0699108 L9.33073291,13.0699108 Z M25.3341455,13.125 C28.908057,13.125 31.8277819,10.1501836 31.8277819,6.52806943 C31.8277819,2.85086563 28.908057,0.00688645443 25.3341455,0.00688645443 C21.7120265,0.00688645443 19.8803099,2.63739539 19.439595,3.71163456 C19.439595,2.12093403 17.8489006,0.220356694 16.0034126,0.220356694 L10.0400051,0.220356694 L10.0400051,13.0699108 L15.5902405,13.0699108 C17.8489006,13.0699108 19.439595,11.1417891 19.439595,9.4477965 C19.9422888,10.4944911 21.7189122,13.125 25.3341455,13.125 Z M15.1495256,7.90529911 C15.6659907,7.90529911 16.0791552,8.40798794 16.0791552,8.97953836 C16.0791552,9.5786333 15.6659907,10.0813222 15.1495256,10.0813222 L13.3729021,10.0813222 L13.3729021,7.90529911 L15.1495256,7.90529911 Z M15.1495256,3.08499448 C15.6659907,3.08499448 16.0791552,3.58768368 16.0791552,4.15923364 C16.0791552,4.73078436 15.6659907,5.23347357 15.1495256,5.23347357 L13.3729021,5.23347357 L13.3729021,3.08499448 L15.1495256,3.08499448 Z M17.4977073,6.52806943 C17.9108718,6.50052437 18.5857156,6.02538023 18.8405015,5.74304847 C18.7440942,6.08735604 18.7440942,7.17536736 18.8405015,7.51967493 C18.5581728,7.09961939 17.9108718,6.60381664 17.4977073,6.52806943 Z M22.0769912,6.52806943 C22.0769912,4.71701221 23.5506288,3.25714826 25.3616883,3.26401045 C27.1796335,3.27780687 28.6257207,4.75832867 28.6050636,6.57627234 C28.5775208,8.36667111 27.131426,9.80587622 25.3410312,9.80587622 C23.5368574,9.80587622 22.0769912,8.34601265 22.0769912,6.52806943 Z M25.3341455,9.10348901 C26.7251472,9.10348901 27.8957914,7.96038832 27.8957914,6.52806943 C27.8957914,5.09575054 26.7251472,3.96642201 25.3341455,3.96642201 C23.9018221,3.96642201 22.7587206,5.09575054 22.7587206,6.52806943 C22.7587206,7.96038832 23.9018221,9.10348901 25.3341455,9.10348901 L25.3341455,9.10348901 Z" id="path3441" fill="#000000"></path>
                <path d="M50.4892451,4.77210126 C50.4203836,1.65956191 48.2168159,0.013772298 45.5174455,0.013772298 C44.0369235,0.013772298 42.7010106,0.509575026 41.7920389,1.47363589 C40.8830672,0.509575026 39.5471543,0.013772298 38.0666323,0.013772298 C35.3672619,0.013772298 33.1636942,1.66644806 33.0948327,4.77898741 C33.0948327,4.78587356 33.0948327,4.79275971 33.0948327,4.79964586 L33.0948327,11.8992655 C33.0948327,12.5534496 33.6250662,13.076797 34.2723642,13.076797 L35.3879203,13.076797 C35.4980987,13.076797 35.5876187,12.987277 35.5876187,12.8770986 L35.5876187,4.79275971 L35.5876187,4.79275971 C35.6358217,3.25714848 36.7238332,2.4445829 38.0666323,2.4445829 C39.4094314,2.4445829 40.4974429,3.25714848 40.5456459,4.79275971 L40.5456459,4.79275971 L40.5456459,11.8923793 C40.5456459,12.5465635 41.0758794,13.0699108 41.7231774,13.0699108 L42.8387336,13.0699108 C42.9489119,13.0699108 43.0384319,12.9803909 43.0384319,12.8702125 L43.0384319,4.78587356 L43.0384319,4.78587356 C43.0866349,3.25026233 44.1746465,2.43769675 45.5174455,2.43769675 C46.8602446,2.43769675 47.9482561,3.25026233 47.9964592,4.78587356 L47.9964592,4.78587356 L47.9964592,11.8854932 C47.9964592,12.5396773 48.5266926,13.0630247 49.1739906,13.0630247 L50.2895468,13.0630247 C50.3997252,13.0630247 50.4892451,12.9735047 50.4892451,12.8633263 L50.4892451,4.77898741 C50.4961312,4.78587356 50.4892451,4.77898741 50.4892451,4.77210126 Z M75.6030305,0.213470619 L73.7093395,0.213470619 C73.1859922,0.213470619 72.6970756,0.475144281 72.4009712,0.908971668 L70.3075819,4.00773872 C70.032136,4.41402151 69.4399272,4.41402151 69.1644812,4.00773872 L67.0710919,0.908971668 C66.7818736,0.475144281 66.2860709,0.213470619 65.7627236,0.213470619 L63.8690326,0.213470619 C63.7519681,0.213470619 63.6831066,0.34430745 63.7450819,0.440713536 L67.4773747,5.97717733 C67.7459345,6.37657398 67.7459345,6.8999213 67.4773747,7.29931794 L63.7450819,12.8357817 C63.6762204,12.9321878 63.7519681,13.0630247 63.8690326,13.0630247 L65.7627236,13.0630247 C66.2860709,13.0630247 66.7749875,12.801351 67.0710919,12.3675236 L69.1644812,9.26875656 C69.4399272,8.86247377 70.032136,8.86247377 70.3075819,9.26875656 L72.4009712,12.3675236 C72.6901895,12.801351 73.1859922,13.0630247 73.7093395,13.0630247 L75.6030305,13.0630247 C75.720095,13.0630247 75.7889565,12.9321878 75.7269812,12.8357817 L71.9878023,7.30620409 C71.7192425,6.90680745 71.7192425,6.38346013 71.9878023,5.98406348 L75.720095,0.447599685 C75.7889565,0.351193599 75.720095,0.213470619 75.6030305,0.213470619 Z M62.8911995,0.213470619 L61.7756433,0.213470619 C61.2109791,0.213470619 60.7358348,0.612867261 60.6187703,1.14310073 C59.6271648,0.385624344 58.3807719,0 57.0379728,0 C53.7739382,0 51.1227708,2.27242917 51.1227708,6.5625 C51.1227708,10.8525708 53.767052,13.125 57.0379728,13.125 C58.3738857,13.125 59.6065064,12.7462618 60.5981118,12.0025577 C60.653201,12.6016527 61.1558899,13.076797 61.7756433,13.076797 L62.8911995,13.076797 C63.0013778,13.076797 63.0908978,12.987277 63.0908978,12.8770986 L63.0908978,0.41316894 C63.0840116,0.302990556 63.0013778,0.213470619 62.8911995,0.213470619 L62.8911995,0.213470619 Z M57.0379728,10.6873033 C55.0891926,10.6873033 53.5053784,9.26187041 53.5053784,6.56938615 C53.5053784,3.87690189 55.0891926,2.45146905 57.0379728,2.45146905 C58.986753,2.45146905 60.5705672,3.87690189 60.5705672,6.56938615 C60.5705672,9.26187041 58.986753,10.6873033 57.0379728,10.6873033 Z" id="XMLID_1_" fill="url(#linearGradient-3)"></path>
            </g>
        </g>
    </g>
</svg>