<?xml version="1.0" encoding="UTF-8"?>
<svg width="157px" height="40px" viewBox="0 0 157 40" version="1.1" xmlns="http://www.w3.org/2000/svg" xmlns:xlink="http://www.w3.org/1999/xlink">
    <title>Group 64</title>
    <defs>
        <polygon id="path-1" points="0 0 16 0 16 14 0 14"></polygon>
    </defs>
    <g id="Page-1" stroke="none" stroke-width="1" fill="none" fill-rule="evenodd">
        <g id="Group-64">
            <g id="Paramount_Pictures_Corporation_logo-Copy" transform="translate(106.000000, 0.000000)" fill="#016BB1" fill-rule="nonzero">
                <path d="M1.26718086,28.636484 L1.97061551,27.5745056 L3.19036751,27.9081887 L2.39452046,26.9386736 L3.07762846,25.8902972 L1.89623728,26.3524102 L1.07552956,25.3851875 L1.14542472,26.6410079 L0,27.0739299 L1.19504417,27.3872864 L1.26718086,28.636484 Z M1.10028834,23.9579406 L1.99089121,23.0403884 L3.12948944,23.5994987 L2.5320183,22.5014519 L3.40005298,21.5995904 L2.15544031,21.8295516 L1.53545192,20.7202971 L1.37085189,21.9671513 L0.15339236,22.1767858 L1.26718086,22.7133789 L1.10028834,23.9579406 Z M1.83530826,19.3246864 L2.88149409,18.6031667 L3.89609463,19.3607548 L3.51279204,18.1658125 L4.54766829,17.4510683 L3.27600436,17.4352757 L2.88149409,16.2312653 L2.4756233,17.4307416 L1.24226925,17.4014488 L2.2344035,18.1342272 L1.83530826,19.3246864 Z M7.08416966,10.6555473 L7.7380358,11.740043 L7.82825761,10.5000153 L9.05249269,10.2091251 L7.8868432,9.724393 L7.97028946,8.46403864 L7.15192517,9.42000265 L6.01551754,8.92854596 L6.65807411,9.98369792 L5.84190041,10.9329373 L7.08416966,10.6555473 Z M22.1949219,3.23764353 L23.1328008,2.40796968 L24.2082794,3.05500932 L23.7009791,1.8871183 L24.6389599,1.03935933 L23.3875717,1.15433992 L22.9141492,0.0179832292 L22.6368101,1.219752 L21.3922484,1.34374968 L22.4789856,1.99756488 L22.1949219,3.23764353 Z M4.25912152,37.4701723 L4.51159995,36.2211275 L5.7674203,36.0700276 L4.66942443,35.4703149 L4.90616117,34.2460289 L3.98392208,35.1117202 L2.86340897,34.5255586 L3.40453605,35.6620681 L2.50038208,36.4984156 L3.72242656,36.3405402 L4.25912152,37.4701723 Z M10.2249177,7.42911143 L10.6623228,8.61957064 L10.9915229,7.41102632 L12.2451017,7.36818242 L11.1898988,6.66923085 L11.5168064,5.44041081 L10.5315496,6.21832557 L9.50788104,5.53063262 L9.93178599,6.6895575 L8.95549533,7.46293825 L10.2249177,7.42911143 Z M13.9316026,4.8452831 L14.1277879,6.09662038 L14.6892416,4.97381479 L15.9270278,5.17224164 L15.0206323,4.28163877 L15.5753105,3.14074806 L14.4502124,3.71799444 L13.5844193,2.84771822 L13.7873292,4.06074562 L12.6758332,4.64242412 L13.9316026,4.8452831 Z M18.0147636,4.28158782 L18.7723517,3.28502145 L19.9559844,3.71340948 L19.2367571,2.66722365 L19.9965868,1.65715712 L18.7858518,2.00209889 L18.1026929,0.985256809 L18.0665736,2.21855992 L16.8625633,2.56798476 L18.0575565,3.01216543 L18.0147636,4.28158782 Z M2.02695956,31.9959347 L2.33364239,33.2088602 L2.82066696,32.0252784 L4.09003841,32.1177418 L3.12057424,31.3216909 L3.58951369,30.1628679 L2.52081062,30.8392004 L1.53096885,30.0455949 L1.84208381,31.2675884 L0.793707398,31.9124884 L2.02695956,31.9959347 Z M3.44289688,14.9393766 L4.60859731,14.4230593 L5.4540638,15.3677647 L5.30979042,14.123203 L6.45287171,13.6159027 L5.21508553,13.3633224 L5.05726105,12.1030189 L4.42815369,13.1965317 L3.22643586,12.9349853 L4.05616066,13.8503979 L3.44289688,14.9393766 Z M39.7564368,7.27128695 L40.0811538,8.47972939 L40.5342496,7.29833821 L41.7968455,7.33221596 L40.8161737,6.54533506 L41.262545,5.39771975 L40.2277706,6.07639561 L39.2537215,5.29175624 L39.5737516,6.52276687 L38.5072391,7.21499384 L39.7564368,7.27128695 Z M41.733675,10.0309739 L42.9535289,10.3173301 L43.0369242,11.5686674 L43.6998584,10.4887057 L44.9376955,10.7705279 L44.1237124,9.81002985 L44.7798201,8.76837805 L43.6389294,9.23507596 L42.8248953,8.28364596 L42.9083416,9.55301741 L41.733675,10.0309739 Z M36.0452688,4.86780034 L36.5931715,5.98841534 L36.8052004,4.74609514 L38.0563848,4.54542676 L36.9448378,3.95692176 L37.1591083,2.74618684 L36.2775225,3.61192905 L35.1659755,3.03025054 L35.7138782,4.17786585 L34.8096732,5.05945164 L36.0452688,4.86780034 Z M45.5104079,13.9270176 L45.359308,15.1648038 L46.2205671,14.2336495 L47.3771486,14.7454329 L46.7571602,13.647437 L47.6026267,12.7523511 L46.3918918,12.9981049 L45.7741958,11.8978165 L45.6162695,13.1604124 L44.3761399,13.4016832 L45.5104079,13.9270176 Z M30.7558051,3.63898031 L31.9416793,3.21741877 L32.6926447,4.22524377 L32.6588179,2.95144019 L33.8537602,2.52075968 L32.6474574,2.15549125 L32.6249911,0.92223909 L31.923798,1.93903023 L30.7264613,1.57605429 L31.48624,2.60191346 L30.7558051,3.63898031 Z M49.7987712,26.4110467 L49.8865987,25.1575188 L49.0547852,26.1338095 L47.8800677,25.6535605 L48.5541076,26.7041784 L47.7491925,27.6691595 L48.9757201,27.3535106 L49.6678961,28.415489 L49.7490499,27.1596687 L50.9440431,26.8643973 L49.7987712,26.4110467 Z M48.9577369,31.7680622 L50.19104,31.7094257 L49.1561637,31.0398688 L49.4695202,29.8314263 L48.4729538,30.6271715 L47.4109754,29.9328049 L47.8754827,31.1029884 L46.894658,31.8876787 L48.1640804,31.8131986 L48.6420369,32.9856236 L48.9577369,31.7680622 Z M46.518131,36.0136836 L46.7571602,37.2627284 L47.3073043,36.1286641 L48.5270564,36.3045228 L47.6319195,35.4544204 L48.1798221,34.3271318 L47.0479994,34.9155858 L46.1303453,34.0318604 L46.362599,35.2561464 L45.2622597,35.846791 L46.518131,36.0136836 Z M15.5301741,28.1313744 C15.4332277,28.0524621 14.2427685,29.2632989 13.4648537,30.1086126 C13.1898581,30.4017953 13.011656,30.6791853 12.9057434,30.8099076 C12.9057434,30.8099076 12.5629922,31.3757935 12.380358,31.6148736 C12.1954823,31.8539028 11.7378015,32.5279937 11.5348915,32.8211764 C11.4649454,32.9180209 11.2846037,33.3441674 10.9306448,33.7861066 C10.7547862,34.0069997 10.576686,34.2956484 10.2316933,34.7376384 C9.77177092,35.3282831 9.42448572,35.8130152 9.50344891,35.8784782 C9.54853434,35.9099106 10.2249177,35.0915464 10.9508696,34.212253 C11.2530184,33.8447431 11.579977,33.468216 11.8573161,33.1096213 C11.9925214,32.936157 12.3037383,32.6452668 12.4052187,32.4964084 C12.583268,32.2325695 12.7772627,32.0319521 12.8538824,31.9687815 C13.2574607,31.6396833 13.4851804,31.6149246 13.6159536,31.4278073 C13.6768317,31.3353949 14.4771618,30.1313336 14.768052,29.6420675 C15.0340306,29.1798527 15.6901383,28.2756478 15.5301741,28.1313744 M49.3792984,20.5015945 L48.7524835,21.6086584 L47.5101124,21.3651462 L48.373664,22.2782663 L47.7718117,23.3672451 L48.9127024,22.826118 L49.7918428,23.7347041 L49.6363618,22.4811253 L50.7546843,21.9670494 L49.5370719,21.7415204 L49.3792984,20.5015945 Z M46.3242381,17.2255902 L47.3455633,17.9493005 L46.9578286,19.1442428 L47.972531,18.3889472 L49.0209074,19.1171916 L48.6195197,17.9177153 L49.6183276,17.1962464 L48.3895585,17.2075051 L47.9903105,16.0169949 L47.591419,17.2232977 L46.3242381,17.2255902 Z M26.4945948,3.02576747 L27.5767981,2.38769397 L28.5057108,3.21966031 L28.2329567,1.98406472 L29.3127655,1.33702507 L28.0615811,1.20625185 L27.8089498,0 L27.3130101,1.12958114 L26.0684993,1.01006653 L27.0108103,1.86235952 L26.4945948,3.02576747 Z M26.6569024,25.0063171 C26.7741755,25.3514117 27.20939,27.3850449 27.3355273,27.8066574 C27.4661987,28.2260792 27.5970738,28.2486474 27.6693124,28.4131456 C27.9216889,29.046787 28.2846648,29.0715457 28.471884,29.1233558 C28.9950279,29.2835237 29.0377189,29.9846149 29.3714021,30.6114298 C29.6826189,31.1977442 29.9758016,31.7252183 30.2508482,32.3654824 C30.5258439,33.0058484 31.9328151,36.4736059 32.1740858,37.001131 C32.2551377,37.1927313 32.9247965,37.1927313 32.8525579,37.001131 C32.6836276,36.6200699 32.2979816,35.6620172 32.0589524,34.7059513 C31.9080053,34.0859629 32.4874932,34.5255077 32.1175889,33.5312338 C31.9462133,33.0757945 31.6216492,32.6226477 31.4391168,32.43767 C31.2518977,32.2551377 31.071454,31.4682059 30.9294222,31.1163866 C30.7784751,30.7736355 30.8549421,30.7557032 30.5439799,29.9282199 C30.3115735,29.3239732 30.9632999,29.5268831 30.5980825,28.5956779 C30.3613457,27.9892916 29.1573354,25.7977829 29.0175451,25.5723048 C28.9498915,25.4482052 28.7177397,25.0694367 28.4312816,24.6207729 C28.1607691,24.1946774 27.9376344,23.7392381 27.8090008,23.5407603 C27.5587639,23.1395254 27.0988415,22.2601302 26.8395366,21.8949127 C26.5826261,21.5273518 26.2622902,20.7201952 26.1293264,20.8555534 C25.9986551,20.9750171 26.5170611,22.185752 26.7290391,22.9568402 C26.9522757,23.7257379 26.7899172,24.0391454 26.6569533,24.257746 C26.5328538,24.4743089 26.5328538,24.6186333 26.6569024,25.0063171 M34.8254149,31.2832792 C35.1795776,31.8718351 35.2742315,31.754562 35.4207974,31.7613885 C35.7544296,31.7704566 36.5007591,32.5731301 36.6495665,32.7917817 C36.7915983,33.0127258 37.9932143,34.2099606 38.3021896,34.5030923 C38.4374459,34.6315221 39.3889778,36.1691646 39.510632,36.0588709 C39.6392146,35.9482715 39.1455164,35.2020948 39.0710363,35.0351004 C39.0034846,34.8727929 38.7283361,34.6315221 38.5952194,34.2821482 C38.4712727,33.939397 37.9053868,33.0758454 37.720613,32.8031422 C37.537775,32.5279937 37.2402111,31.9191621 36.9154941,31.5337198 C36.6156887,31.1954008 36.8547689,31.1030393 36.5458954,30.8055264 C36.3586763,30.6296168 35.7770487,30.1131466 35.6462245,30.0049925 C35.5222778,29.8922535 35.0465119,29.4706919 34.7737068,29.2340061 C34.5030414,29.003994 33.8537602,28.5529868 33.8763284,28.264491 C33.8852436,27.9689649 33.7432117,27.4077659 33.5245601,27.2205467 C33.3666337,27.0852904 32.9022792,26.3367194 32.3702711,25.9037974 C32.1018982,25.6783193 31.5291858,25.0831406 31.0873486,24.5668232 C30.6746513,24.0752647 30.3635873,23.62655 30.2688314,23.6897205 C30.1290921,23.7799423 30.7492333,24.6456845 30.8122001,24.7495084 C30.8776122,24.8485945 31.5945979,26.0886222 31.6622006,26.4133392 C31.7367316,26.7425902 33.0737058,28.9926844 33.360011,29.6915851 C33.5245092,30.0996974 34.4399218,30.6453075 34.8254149,31.2832792 M40.6650229,33.459199 C40.7100574,33.4050455 40.5815766,33.238153 40.5117833,33.1119647 C40.4350107,32.9856745 39.9796224,32.4806158 39.8938837,32.338584 C39.8195564,32.2056201 39.2288608,31.3645858 39.021264,31.0895392 C38.6516654,30.6159638 38.9898316,30.4423467 38.7958369,30.1493678 C38.7169246,30.0207851 38.2435021,29.4503143 37.693307,28.8867209 C37.4092433,28.6047969 37.0935943,28.3319918 36.8253742,28.0907211 C36.3901597,27.7029863 36.0610615,27.4143886 36.0070099,27.4617665 C35.9302373,27.5383863 36.1872497,27.8472597 36.2977473,27.9892916 C36.4081938,28.1244969 36.581811,28.3747338 36.8118231,28.6476408 C37.1838161,29.0919233 36.8388234,29.4276952 37.1949728,29.781705 C37.2536094,29.8403415 38.2366756,30.940528 38.4780482,31.1435907 C38.8364392,31.4636718 40.1171202,32.9833311 40.2072911,33.0667264 C40.3584419,33.2088092 40.622128,33.5133015 40.6650229,33.459199 M20.395631,26.2464467 C20.4678187,26.0931052 20.6910043,25.6196827 20.6797457,25.4303239 C20.6797457,25.3964971 20.5962994,25.3378606 20.5264043,25.4076538 C20.1972042,25.7324218 19.5276473,26.8912448 19.2728764,27.0220689 C18.700164,27.2993061 18.4498762,27.9713083 18.2785006,28.2372869 C18.1567445,28.4334722 17.9989709,28.7513628 17.7261149,29.1505599 C17.4871366,29.4954507 17.2143316,30.0117171 17.1128511,30.1898683 C17.0136632,30.3769346 16.9775439,30.5483102 17.1624196,30.5483102 C17.3472954,30.5483102 17.2030729,30.8505099 16.9775439,31.1819006 C16.8490631,31.3757935 16.5311726,32.3047571 16.4387093,32.5572356 C16.3169531,32.8683505 16.3349873,33.2651533 16.2921434,33.3981681 C16.2492995,33.5222676 15.6428622,34.8142073 15.4849868,35.1005125 C15.3857989,35.2809561 15.4150916,35.3530419 15.3767308,35.4522808 C15.3203868,35.5762275 15.3903329,35.6123468 15.4849868,35.522125 C15.6000183,35.4070934 16.2492995,34.4217347 16.4476754,34.3046655 C16.6416192,34.1828584 16.8197194,34.0025676 16.8490122,33.5786117 C16.878305,33.1547577 17.1534535,33.0397771 17.3586049,32.7917817 C17.5728244,32.545977 17.8545957,32.2168278 18.0056446,31.8718351 C18.1476764,31.5156857 18.3303616,31.7861473 18.6595617,31.2563807 C18.9886599,30.7220801 19.7282647,29.4053308 19.8973479,29.1505599 C20.0596554,28.8956361 19.9401918,28.5281771 19.9198651,28.2238377 C19.910848,28.0638226 19.9333653,27.6691595 20.0281211,27.2498395 C20.1228769,26.875554 20.2964431,26.494442 20.395631,26.2464467 M23.2275566,16.1862309 C23.5003108,16.1862309 23.899406,15.6878967 24.1158161,15.2550766 C24.3391036,14.7860862 24.4518426,14.5222982 24.7313723,13.9225346 C24.742631,13.8909493 24.7155797,13.8909493 24.686236,13.8909493 C24.3683964,13.8909493 24.0188697,14.2156663 23.795735,14.4771618 C23.531896,14.8018788 23.0990249,15.4129011 23.0336128,15.8525477 C22.9862859,16.0892335 23.0899569,16.1862309 23.2275566,16.1862309 M30.271073,16.6077924 C30.5822898,16.7656169 30.967834,16.0802164 31.3037586,15.455694 C31.6373909,14.8266376 31.9034713,14.0464813 31.6216492,13.9495349 C31.3037586,13.8210541 30.9001294,14.4343179 30.5642047,15.0610818 C30.2326612,15.6878967 29.9803356,16.468053 30.271073,16.6077924 M18.2379492,16.1862309 C18.5174789,16.1862309 18.907608,15.6878967 19.1330351,15.2550766 C19.3540302,14.7860862 19.4713032,14.5222982 19.7418158,13.9225346 C19.7553669,13.8909493 19.7282647,13.8909493 19.703455,13.8909493 C19.383323,13.8909493 19.0337962,14.2156663 18.8129031,14.4771618 C18.5490642,14.8018788 18.11171,15.4129011 18.0462979,15.8525477 C17.9990219,16.0892335 18.11171,16.1862309 18.2379492,16.1862309 M15.1806474,10.5201891 C17.3451048,10.6216695 18.6189593,11.6835971 18.6189593,12.8222462 C18.6167687,14.8582229 15.3880913,15.2054062 15.3880913,15.2054062 C14.8266376,18.0260222 12.5900435,19.1014499 11.0410914,19.0857082 C8.96227088,19.0699155 8.99380521,17.3857072 9.06380226,17.1692461 C9.15168064,16.9189074 9.28016139,16.6912387 9.54175879,16.6912387 C9.80106371,16.6912387 10.0175247,16.9031657 10.0175247,17.1692461 C10.0175247,17.3293631 9.93856155,17.4803611 9.80106371,17.5592733 C9.52825863,17.7284074 9.58006867,17.9403344 9.58006867,17.9403344 C9.58006867,18.8354203 10.7367011,18.9052646 11.0411424,18.9052646 C14.1367541,18.9052646 13.7805027,13.8052106 16.5108969,12.0714337 C16.6349455,11.9880384 16.731892,12.0714337 16.6552212,12.1571215 C15.8029792,13.2258245 15.4827962,14.9483937 15.4827962,14.9483937 C16.7995456,14.9483937 17.6698218,13.6948149 17.6698218,12.8222462 C17.6698218,11.3274476 16.3237796,10.7073573 15.1806983,10.7073573 C11.9925724,10.7073573 10.6082203,12.9349853 10.6082203,14.1479617 C10.6082203,15.3632307 11.3748255,15.8028773 11.9295037,15.8028773 C12.7028844,15.8028773 12.9441043,15.2866109 12.8493994,15.0340815 C12.696058,14.6372788 12.907985,14.3058372 13.1470651,14.3058372 C13.2417191,14.3058372 13.5596605,14.2900445 13.5596605,14.8492567 C13.5596605,15.3880913 12.7952969,15.93146 11.9497794,15.93146 C11.1155715,15.93146 9.89581954,15.4805547 9.89581954,14.1480127 C9.89571765,11.4469113 13.2190999,10.4210012 15.1806474,10.5201891 M20.5489725,13.8210541 C20.2040307,14.6012104 19.9492598,15.1603207 19.6312674,15.8976331 C19.6042671,15.9675283 19.5794573,16.0892335 19.6449204,16.1343189 C19.703455,16.1613702 19.7711596,16.1613702 19.8094185,16.1343189 C20.2175308,15.9381846 20.5760237,15.4624186 20.8578968,14.9212915 L21.3606121,13.812037 L22.0685808,13.812037 L21.874637,14.231357 C21.8587934,14.2539252 21.8587934,14.2674254 21.874637,14.2539252 C22.0956321,14.0870837 22.3278348,13.8367958 22.6119494,13.6812129 C22.722396,13.6293519 22.9862349,13.6293519 22.9590818,13.8119861 C22.9455816,13.9742937 22.821584,14.0983423 22.7517397,14.2539252 C22.7111374,14.3531132 22.6682935,14.4771109 22.6818446,14.5447645 C22.7111374,14.6190918 22.7922912,14.6596941 22.9027887,14.5762988 C23.0132862,14.5064037 23.098974,14.4500087 23.2004544,14.3666133 C23.3762621,14.1952378 23.5994987,14.0351717 23.8497356,13.9022079 C24.3525528,13.6699543 25.0357117,13.5188544 25.5362365,13.8367958 C25.1867097,14.6191427 24.9229727,15.2008722 24.5892386,15.9381336 C24.5283605,16.0643728 24.57798,16.1049752 24.6185314,16.134268 C24.6613753,16.1613192 24.7425291,16.1748194 24.8552681,16.1140432 C25.1302638,15.9990626 25.6173393,15.455694 25.8112321,15.0340306 C25.9961588,14.6417618 26.1630004,14.2539252 26.3591348,13.812037 L27.087481,13.812037 L26.8844183,14.2404251 L26.9137111,14.2539762 C27.1077567,14.075825 27.6150061,13.6700052 27.9892406,13.755693 C28.1967355,13.7985369 28.2981141,14.0464813 28.2824233,14.231408 C28.5190581,14.0578418 28.7626214,13.8503979 29.1143896,13.7647101 C29.617105,13.6407124 29.8132903,13.9901372 29.6577583,14.3261638 C29.4616239,14.7861371 29.0737363,15.6879477 28.8505507,16.152455 C28.8234994,16.1998329 28.8234994,16.3035039 28.8505507,16.3260721 C28.9068948,16.3711575 29.0061846,16.3260721 29.0489776,16.3035039 C29.2992144,16.0892844 29.4368651,15.9517866 29.6306051,15.676689 C29.6847076,15.1896645 29.9484956,14.7410517 30.3138659,14.3667662 C30.7016007,13.9361366 31.3148135,13.6002119 31.9033694,13.7985878 C32.1085209,13.8662415 32.2483112,14.075876 32.3047062,14.2833709 C32.3317575,14.3938174 32.3588087,14.4501615 32.3588087,14.5764516 C32.6676822,14.8019807 33.0712605,14.4344198 33.2359624,14.1593732 C33.2810478,14.0465832 33.3373919,13.9225855 33.3643922,13.8368977 C33.5403018,13.8503979 33.8851417,13.8368977 34.0903441,13.8368977 L33.181707,15.9134767 C33.1232743,16.0351819 33.1096213,16.1050771 33.1096213,16.1998329 C33.1096213,16.2764527 33.1930675,16.2900038 33.2809969,16.2764527 C33.5312338,16.2313672 33.9392442,15.7398596 34.1443957,15.3272642 C34.3744078,14.8109468 34.6022293,14.3803173 34.8277074,13.8662415 L35.5626764,13.8662415 C35.2695447,14.560659 34.9380012,15.3002129 34.6991248,15.84134 C34.6427807,15.9517866 34.5774705,16.0645257 34.613437,16.2178161 C34.6427298,16.2900038 34.7397271,16.2764527 34.8005033,16.2494014 C35.1184448,16.0645257 35.6663474,15.4557959 35.8558081,15.0792179 C36.0541331,14.6327957 36.200699,14.2991126 36.4081429,13.8661905 L37.1634895,13.8661905 L36.9830968,14.2991126 C37.264868,14.075876 37.5669659,13.8368977 37.9300947,13.7782612 C38.0968853,13.7557439 38.3043802,13.7647101 38.4013775,13.9360857 C38.5141166,14.1300294 38.446412,14.33513 38.3629658,14.5222982 C38.1555218,14.9957716 37.9142001,15.5098475 37.7068581,15.9675792 C37.6684973,16.0802674 37.6572896,16.1862818 37.7316678,16.2313163 C37.8466484,16.3035039 38.3741225,15.9810794 38.6424954,15.3948669 C38.8748,14.8807911 39.0326755,14.5764007 39.2400175,14.075876 L38.8522828,14.075876 L38.9604878,13.8503979 L39.3504641,13.8503979 L39.9073329,12.639663 L40.6584002,12.639663 L40.1171712,13.8503979 L40.6831589,13.8503979 L40.5770935,14.075876 L40.0201229,14.075876 C39.7000927,14.7545518 39.4316688,15.3272133 39.1521391,15.9675792 C39.043985,16.1862818 38.931246,16.5537918 38.9898316,16.7769774 C39.0327774,16.901026 39.1860169,16.9325603 39.3257563,16.8852334 C39.7541443,16.736426 40.047276,16.3712085 40.2975129,15.9810794 C40.311115,15.9382355 40.5386818,15.9675792 40.5206985,15.9991136 C40.2252743,16.5807921 39.5873537,17.1692971 38.9762805,17.1535044 C38.7937482,17.1535044 38.5952194,17.0407654 38.4870144,16.8851824 C38.4353062,16.8039777 38.4014794,16.736375 38.3742753,16.6394286 C38.3359145,16.4816041 38.3473769,16.303453 38.3742753,16.1343699 C38.0428847,16.3869502 37.7249941,16.6912896 37.3056232,16.7769264 C37.122938,16.8039777 36.8885447,16.736375 36.8457008,16.5402407 C36.8186496,16.3869502 36.8320988,16.2177652 36.8885957,16.0802674 C37.1523327,15.5098475 37.386777,14.9957716 37.6370139,14.3937665 C37.6573915,14.3667152 37.6370139,14.2675273 37.6077211,14.2540271 C37.5670678,14.2157172 37.443172,14.2157172 37.3327254,14.2991126 C36.8186496,14.6868982 36.5548106,15.1896645 36.3339175,15.7036894 C36.1760421,16.0486821 36.0071118,16.3981579 35.8424099,16.736375 L35.1029069,16.736375 C35.1885947,16.528982 35.3125923,16.2493505 35.4094878,16.0239233 C35.4094878,16.0104231 35.3960386,16.0104231 35.3960386,16.0239233 C35.0916992,16.3260721 34.6992776,16.6732554 34.3138354,16.7769774 C34.1581505,16.8175288 34.0025676,16.7657188 33.9237063,16.6191529 C33.835726,16.4816551 33.8109672,16.2764527 33.8852945,16.0893354 C33.8852945,16.0803183 33.8786208,16.0803183 33.8629301,16.0893354 C33.5877816,16.3712085 33.3195615,16.6191529 32.9496571,16.7476846 C32.5280956,16.8761653 32.149378,16.580843 32.4153566,15.9675792 C32.4875951,15.8029283 32.6971787,15.3407644 32.9271908,14.7861371 C32.7355395,14.8649984 32.5010444,14.8649984 32.3748561,14.8266885 C32.3589616,14.8266885 32.3589616,14.8266885 32.3589616,14.8402396 C32.1965521,15.6180525 31.7344392,16.3260721 31.0242799,16.6642383 C30.6770457,16.8333214 30.2824335,16.8761653 29.9374917,16.6394286 C29.7707011,16.528982 29.6714113,16.2584185 29.657962,16.0238724 C29.2994182,16.3868992 28.891255,16.8445291 28.3366787,16.7656678 C28.2532324,16.7476337 28.1834391,16.6732045 28.1405443,16.5965847 C28.0142541,16.3869502 28.0885305,16.1614211 28.1675446,15.9810285 C28.433676,15.4264012 28.6523276,14.9077914 28.9184081,14.283269 C28.9611501,14.1952887 28.8416355,14.1321691 28.7559987,14.1728224 C28.4922616,14.2991126 28.3298522,14.4253518 28.1834391,14.6507789 C28.104425,14.7725351 28.0255128,14.9123254 27.9623931,15.0452892 C27.7165374,15.5796917 27.4596269,16.1343189 27.2363394,16.6731535 L26.4810947,16.6731535 C26.8193118,15.9133748 27.1372024,15.1738209 27.4708346,14.4230593 C27.5024198,14.3531641 27.4844876,14.2539762 27.4438342,14.231408 C27.3784222,14.1953396 27.2590094,14.2539762 27.1822368,14.2991126 C27.0018442,14.4231102 26.8417781,14.5877103 26.7223145,14.8019298 C26.5960753,15.0093228 26.4811456,15.2167157 26.3931654,15.4422448 L25.829572,16.6732554 L25.0922086,16.6732554 C25.1643963,16.5109479 25.3018941,16.1862818 25.3852894,16.0239233 C25.3852894,16.0104231 25.3717893,15.9991645 25.3717893,16.0104231 C24.9682109,16.3441063 24.4518936,16.7769774 24.0753665,16.7048407 C23.9490764,16.6912896 23.8408713,16.580843 23.8115786,16.4681549 C23.7845782,16.3261231 23.7957859,16.1998329 23.8251297,16.0803183 C23.8251297,16.0645257 23.8115786,16.0645257 23.7958369,16.0803183 C23.4733614,16.3870011 23.1848146,16.6394796 22.7789438,16.736426 C22.5466902,16.788287 22.3280386,16.6394796 22.2536094,16.4681549 C22.1498874,16.2764527 22.1251286,15.9676302 22.2919193,15.6181035 C22.3911072,15.3949178 22.4993632,15.1604226 22.636861,14.9665298 C22.5557073,15.0093737 22.3911072,15.0228739 22.2783682,15.0093737 C22.1837142,14.9958735 22.0822338,14.9214444 22.0326143,14.8493077 C21.9740288,14.7861881 21.9604777,14.6598979 21.9604777,14.5765026 C21.9740288,14.56071 21.9311849,14.56071 21.9018411,14.5765026 C21.680948,14.7546537 21.58176,14.9665807 21.4712625,15.2010759 L20.8308965,16.6507891 L20.0778934,16.6507891 L20.3552325,16.0352329 C20.3687836,16.0239742 20.3552325,16.0104741 20.3416814,16.0239742 C19.9493617,16.3712085 19.4804222,16.7657697 19.1016027,16.6913405 C18.9933467,16.6733064 18.8783661,16.5651013 18.8513149,16.4568963 C18.8243145,16.3261231 18.8355222,16.1863327 18.8513149,16.0645257 L18.8243145,16.0645257 C18.5175808,16.3712085 18.2245509,16.6191529 17.8255066,16.7048407 C17.597787,16.7769774 17.3925846,16.6394796 17.3046043,16.4455358 C17.1941577,16.1614211 17.2347601,15.8729253 17.3339481,15.6045524 C17.6225458,14.8492567 18.1568973,14.3104221 18.8783661,13.9023607 C19.335996,13.6407124 20.0484477,13.5617492 20.5489725,13.8210541 M4.36055101,25.4865661 C4.36055101,28.6724505 5.20606845,32.2618623 6.71441817,35.2064251 C9.44027836,32.6631991 16.5921016,24.591582 17.4128094,23.6536522 C18.6596636,22.2264562 19.1984982,23.1350423 19.868106,22.3369028 C20.2265989,21.8994977 20.4362334,21.7326561 20.5940579,21.6447268 C20.8511213,21.4914363 21.144253,21.1262188 21.2907679,21.0179119 C21.4373338,20.9074653 21.7687754,20.4678187 22.0258388,20.2468236 C22.2851437,20.028172 22.792393,19.6967304 23.3087613,19.2592744 C23.8228372,18.8173862 24.6976474,17.7937685 25.6513189,17.7937685 C26.7853831,17.7937685 27.2589585,18.5626153 27.360337,18.6550786 C27.4414908,18.7430589 28.1404933,19.3607548 28.2531815,19.4780279 C28.3771282,19.6178182 29.1256992,20.2085138 29.53157,20.2085138 C29.9329068,20.2085138 30.2306235,20.6481604 30.4469826,20.8669139 C30.9272316,21.3042681 32.9112454,23.3898132 33.5629209,23.8317524 C33.8538111,24.0323698 34.1288068,23.9963524 34.3452169,24.1654865 C34.5685553,24.3299846 34.6790019,24.436101 34.8051392,24.4743599 C34.9269463,24.5081867 35.3530419,24.3998798 35.8491345,25.020021 C36.0791466,25.1777945 36.1400247,25.2049477 36.1400247,25.2049477 C36.1400247,25.2049477 36.8140646,25.815868 37.0554373,26.2464976 C37.2740889,26.6185416 42.2996628,33.2945989 44.0989027,35.6823438 C45.7673184,32.6565764 46.7210918,29.1799036 46.7210918,25.4822358 C46.7210918,13.7782612 37.2334865,4.30191448 25.5363383,4.30191448 C13.8390883,4.30863908 4.36055101,13.7894689 4.36055101,25.4865661" id="path2"></path>
                <path d="M42.867892,38.5094807 L42.867892,38.7463702 L43.3255729,38.7463702 L43.3255729,39.9999491 L43.6164121,39.9999491 L43.6164121,38.7463702 L44.0718514,38.7463702 L44.0718514,38.5094807 L42.867892,38.5094807 Z M45.6140789,38.5094807 L45.2104496,39.5669251 L44.7956127,38.5094807 L44.3784833,38.5094807 L44.3784833,40 L44.6490978,40 L44.6490978,38.8341977 L44.6557714,38.8341977 L45.1067277,40 L45.3073451,40 L45.7493352,38.8341977 L45.7606957,38.8341977 L45.7606957,40 L46.0290686,40 L46.0290686,38.5094807 L45.6140789,38.5094807 Z" id="path6"></path>
            </g>
            <g id="Group-26" transform="translate(0.000000, 1.000000)">
                <path d="M9.57199167,19.0027902 C10.0118643,19.0027902 10.4518785,18.9956387 10.891586,19.0042342 C11.8740595,19.0234422 12.6098769,19.4523679 13.0560934,20.3032969 C13.7832558,21.6899188 14.4917168,23.0858008 15.2083376,24.4776488 C15.2434293,24.5458166 15.2760919,24.6158869 15.3184944,24.6796997 C15.5144231,24.9746047 15.9051721,24.9719458 16.0942381,24.6751613 C16.1271837,24.6234509 16.1528658,24.5672938 16.1809533,24.5127412 C16.8975269,23.1211454 17.6122374,21.7286557 18.3311457,20.338183 C18.7136642,19.5983534 19.3253399,19.1544373 20.1709369,19.0250238 C20.2789712,19.0084746 20.3899063,19.0039592 20.4995207,19.0037758 C21.4028256,19.0021255 22.3061304,19.0028131 23.2094353,19.0029048 C23.2565544,19.0029048 23.3039093,19.001392 23.350769,19.0050594 C23.8213469,19.0418939 24.1157824,19.4826239 23.9563604,19.9153086 C23.9247825,20.0010342 23.8792199,20.0821754 23.8369354,20.1638668 C22.4963048,22.753603 21.1557215,25.343362 19.814124,27.9326397 C19.1645265,29.1863183 18.519174,30.4421056 17.8599546,31.6910165 C17.4260721,32.5129731 16.7261954,32.9653013 15.7692153,32.988108 C14.7717194,33.0119002 14.0307373,32.5708722 13.5654184,31.721158 C13.182051,31.0210738 12.8285162,30.3054949 12.4671046,29.5942251 C12.3679139,29.3990047 12.2516019,29.2329172 12.0025876,29.230052 C11.7530308,29.2271869 11.6325682,29.3894694 11.5324813,29.5853316 C11.1658815,30.3027443 10.7996118,31.020432 10.4216685,31.732206 C9.78228249,32.9363059 8.24183205,33.35957 7.04517657,32.666408 C6.61360518,32.4164058 6.30730741,32.0584215 6.08605043,31.6234905 C5.7208184,30.9054819 5.34895952,30.1906364 4.98023719,29.474301 C3.36502821,26.3361049 1.74960698,23.1980004 0.136119564,20.0589791 C0.080699195,19.9511575 0.0203263669,19.8367575 0.00509166113,19.7201341 C-0.0415086155,19.3636167 0.237409133,19.0443464 0.610423594,19.0070765 C0.680465508,19 0.751662996,19.0029735 0.822318071,19.0029506 C1.68635701,19.0026985 2.55039594,19.0009336 3.41441129,19.0032486 C4.44876763,19.0059992 5.2018715,19.4608029 5.66657719,20.3546176 C6.31789624,21.6074251 6.96006503,22.8647482 7.60629012,24.1200541 C7.69409014,24.2906113 7.77729144,24.4636668 7.87207206,24.6305107 C8.07337771,24.9848047 8.49360561,24.9942024 8.69208128,24.6408253 C8.89126445,24.2861645 9.06396375,23.9175906 9.25685022,23.5594688 C9.31649197,23.4487132 9.26161402,23.3707809 9.21659381,23.2832905 C8.82702399,22.5259719 8.43757208,21.7685845 8.04793151,21.0113118 C7.87240223,20.6701976 7.68786419,20.3330716 7.5253528,19.9862041 C7.46599405,19.8594724 7.4235444,19.7071148 7.43443981,19.5710542 C7.4614425,19.2334469 7.73062041,19.0090248 8.08745684,19.0047385 C8.58223104,18.998779 9.07714673,19.0032486 9.57199167,19.0032486 L9.57199167,19.0027902 Z" id="Fill-1" fill="#1B1D36"></path>
                <path d="M60.000512,26.0000217 C60.000581,23.942491 60.000581,21.8849603 60.000627,19.8274296 C60.000627,19.7662529 59.9987883,19.7049614 60.0014084,19.6438766 C60.0162324,19.2985801 60.2667703,19.0205963 60.608413,19.0148739 C61.2587175,19.0039807 61.9112285,18.9839408 62.5594646,19.0232851 C63.7223825,19.0938382 64.6385317,20.1039196 64.659768,21.2990708 C64.6685935,21.796091 64.6613768,22.2933869 64.6614918,22.790568 C64.6615147,22.8517446 64.659768,22.9130132 64.6621123,22.9741209 C64.6778327,23.3861327 64.950802,23.6619792 65.3654387,23.6637718 C66.4446065,23.668437 67.5237972,23.6680233 68.602965,23.6641854 C69.04286,23.6626227 69.3202191,23.3837656 69.3238964,22.9456239 C69.3284011,22.4102477 69.3189321,21.8747106 69.3266314,21.3394033 C69.3415474,20.3016981 69.9567569,19.440077 70.9168956,19.1283334 C71.1319017,19.0585157 71.3654092,19.0216764 71.5917001,19.0152416 C72.1499806,18.9993844 72.7090197,19.0081403 73.2677369,19.0105304 C73.7176295,19.0124608 73.9759587,19.2641538 73.9980224,19.716613 C74.0013779,19.7853046 73.9994474,19.8542719 73.9994474,19.9231014 C73.9994014,23.9769632 73.9993784,28.030825 73.9988498,32.0846867 C73.9988498,32.1839896 74.0002747,32.2840969 73.9889211,32.3824346 C73.9475517,32.7404169 73.69267,32.9770341 73.3313999,32.996982 C73.2550733,33.0011876 73.1783789,32.9987746 73.1018225,32.9987975 C72.6349454,32.9988895 72.1679993,32.9936267 71.7011912,32.9997857 C70.3711867,33.0173436 69.3110489,31.9535315 69.3242871,30.6355214 C69.3293664,30.1307565 69.3260108,29.6258766 69.3248157,29.1210657 C69.3235976,28.6080734 69.0627174,28.3355362 68.5527471,28.3331921 C67.5118461,28.328412 66.4708991,28.3281822 65.430021,28.3332151 C64.9184879,28.3356971 64.6629167,28.6056144 64.6617216,29.1239384 C64.6605954,29.6211195 64.662503,30.1183005 64.6609861,30.6154586 C64.6568032,31.9833385 63.6503078,32.9916043 62.2810713,32.9984069 C61.7606208,33.0009808 61.2401473,32.9975336 60.7196967,32.9993031 C60.5112407,33 60.3268939,32.9449979 60.1803542,32.789896 C60.0713687,32.674529 60.0055913,32.5399266 60.0015003,32.3791023 C59.9997536,32.3103188 60.0004891,32.2414433 60.0004891,32.1726138 C60.0004431,30.1150831 60.0004431,28.0575524 60.000512,26.0000217" id="Fill-3" fill="#1B1D36"></path>
                <g id="Group-7" transform="translate(19.000000, 19.000000)">
                    <mask id="mask-2" fill="white">
                        <use xlink:href="#path-1"></use>
                    </mask>
                    <g id="Clip-6"></g>
                    <path d="M13.9193862,13.9946491 C13.5088151,13.9947635 13.0981755,13.9992264 12.6876729,13.9938709 C11.6853105,13.9807338 10.9562055,13.5192659 10.5313414,12.6139988 C9.9332483,11.3396122 9.3570971,10.0549266 8.77147049,8.77470385 C8.65116691,8.51171086 8.52547489,8.25107521 8.41154153,7.98535868 C8.33270147,7.8014627 8.21399615,7.67254097 8.00713518,7.66881041 C7.78655197,7.6648281 7.67181948,7.80876361 7.58663203,7.99593241 C6.98102712,9.32618581 6.37190604,10.6548142 5.7638809,11.9839691 C5.6593773,12.2124258 5.56295634,12.445025 5.44870332,12.6684695 C5.01550539,13.5159244 4.32254397,13.9724946 3.37038985,13.9911245 C2.49636799,14.008221 1.62175249,13.9958621 0.747433808,13.9931156 C0.649985394,13.9927952 0.547993345,13.9851052 0.456001859,13.9558787 C0.0995434138,13.8426802 -0.08446239,13.4681824 0.0376906129,13.1139166 C0.0673041539,13.0280222 0.110343109,12.9464534 0.151030334,12.8647931 C1.52560552,10.1057812 2.9008885,7.34713549 4.27546369,4.5881465 C4.82188718,3.4914078 5.36187195,2.39141918 5.91432317,1.29774733 C6.26219666,0.609104368 6.82076695,0.181600569 7.58144909,0.0404114836 C8.58116296,-0.145109465 9.55715404,0.318647132 10.0451496,1.21544615 C10.2668972,1.62296971 10.4616114,2.04527819 10.6689062,2.46072061 C11.4200444,3.96612721 12.1718676,5.47121339 12.9224122,6.97691752 C13.768122,8.67345235 14.6129184,10.3704678 15.4576464,12.0675061 C15.6102806,12.3741673 15.7661341,12.6794323 15.908996,12.9906708 C15.958565,13.0986511 15.9960786,13.2219884 15.9996632,13.3395125 C16.0109881,13.7105315 15.7354703,13.9881721 15.3563621,13.993047 C14.8774539,13.9992035 14.3983858,13.9945346 13.9193862,13.9946491" id="Fill-5" fill="#1B1D36" mask="url(#mask-2)"></path>
                </g>
                <path d="M25.9436393,6.0047542 C26.3200498,6.00468435 26.6965506,6.01080785 27.0728029,6.00279841 C27.3896612,5.99606955 27.61101,6.12603664 27.7761967,6.41020866 C28.491275,7.64028587 29.4053728,8.69164087 30.4953473,9.58334266 C30.6213222,9.68641759 30.7203573,9.71486972 30.8759614,9.63591623 C32.7519118,8.68412039 34.7372031,8.16075957 36.8262305,8.06932626 C39.3724876,7.95786935 41.7971994,8.46635218 44.0874838,9.62392536 C44.2553825,9.70879279 44.3635935,9.69561447 44.5068803,9.57801079 C45.5773507,8.69948733 46.4819337,7.66978574 47.1855987,6.46054704 C47.373092,6.13835347 47.6117075,5.99329885 47.976298,6.00023725 C48.7438997,6.01483585 49.5119534,6.00161096 50.2797811,6.00619776 C50.6804418,6.00857266 50.9714904,6.29158052 50.9984754,6.69067865 C51.0092784,6.85021546 50.9615236,6.99431547 50.891643,7.13555165 C50.2902225,8.35110011 49.5470519,9.46620464 48.6593288,10.4786068 C47.4303163,11.8802349 45.9896733,12.9976212 44.3678424,13.8749573 C44.0598434,14.0415722 43.793904,14.023388 43.5007761,13.8358647 C41.5824273,12.6085815 39.4909817,12.0075477 37.2325414,12.072671 C35.1730302,12.1320433 33.2547492,12.7102361 31.505158,13.8414992 C31.1953962,14.0417817 30.9201905,14.0511649 30.5979307,13.875842 C27.8000402,12.3536998 25.6575628,10.1583457 24.1754479,7.28004748 C24.0913968,7.11680863 24,6.95734168 24,6.75964363 C23.999526,6.34445677 24.2936256,6.02251932 24.7015185,6.00524315 C24.7165478,6.00459122 24.7316223,6.00482405 24.7466968,6.00482405 C25.1456626,6.00482405 25.5446509,6.00482405 25.9436393,6.0047542" id="Fill-8" fill="#1B1D36"></path>
                <path d="M55.1574212,32.9810958 C54.4871332,32.9810958 53.8146585,33.0183388 53.1468821,32.9747086 C50.1233763,32.7771897 47.6067978,30.3898004 47.1067341,27.2232029 C46.7312533,24.8454632 47.3470011,22.7636458 48.9452951,21.0475956 C50.2042231,19.6958881 51.7630248,19.0314876 53.5537792,19.0082825 C54.7864656,18.9923146 56.0194983,19.0035955 57.2523579,19.0078459 C57.3724589,19.0082595 57.5009824,19.0225502 57.610669,19.0695807 C57.843726,19.1694544 57.9826855,19.3689722 57.9861931,19.6364279 C57.9944856,20.2708227 58.0161805,20.9074231 57.9787233,21.5395433 C57.9110623,22.6816468 57.0473613,23.5853124 55.9702628,23.6594079 C55.4819342,23.6929978 54.9904229,23.6757893 54.5003406,23.6794423 C54.1975441,23.6816939 53.8946392,23.6752838 53.5919076,23.6807519 C52.7023979,23.6967887 52.0379342,24.1306089 51.6401307,24.9620171 C51.2403569,25.7975838 51.317458,26.6286473 51.8378524,27.3865115 C52.268523,28.013692 52.8717561,28.3232156 53.6042922,28.3298095 C54.3180131,28.3362197 55.0318207,28.330338 55.7455849,28.3314867 C57.0335692,28.3335775 57.9895707,29.3458475 57.9908698,30.7079857 C57.9913462,31.204988 57.9754323,31.7027026 57.9953517,32.1987858 C58.0149896,32.6872873 57.7216114,33.010711 57.2337809,32.9997287 C56.5419713,32.9841515 55.8495772,32.995777 55.1574428,32.995777 C55.1574428,32.9908832 55.1574212,32.9859895 55.1574212,32.9810958" id="Fill-10" fill="#1B1D36"></path>
                <path d="M40.4977858,19.0010789 C42.6681528,19.0010789 44.8385444,19.0010789 47.0089114,19.0011018 C47.0823432,19.0011018 47.155824,18.9996585 47.2292068,19.0016517 C47.6610506,19.0133357 47.9695524,19.2659404 47.9834204,19.6648249 C48.0005716,20.159679 48.0141211,20.6579466 47.9724191,21.1505326 C47.8851928,22.1815474 47.0546562,22.928525 45.9491117,22.9750321 C45.2732303,23.0034633 44.5950702,22.9846314 43.9179392,22.9870827 C43.8363483,22.9873806 43.7544634,22.9840357 43.67324,22.9894425 C43.3142401,23.0133146 43.0315631,23.2718988 42.9998578,23.6066584 C42.9919683,23.6899359 42.995668,23.7742673 42.995668,23.8581176 C42.9954475,26.6182807 42.995423,29.3784439 42.995276,32.1385842 C42.995276,32.2071994 42.9984857,32.2761582 42.9926298,32.344361 C42.9596749,32.7283999 42.6656291,32.9952087 42.2530193,32.9967207 C41.0781103,33.000982 39.9031523,33.001234 38.7282188,32.9966291 C38.3141633,32.9950025 38.0245033,32.7241844 38.0010061,32.3374651 C37.9963998,32.2614501 37.998605,32.1850226 37.998605,32.1088013 C37.998507,29.3715022 37.9985315,26.634226 37.998507,23.8969499 C37.998507,23.8207057 38.0017902,23.7442553 37.9971349,23.6682402 C37.9722901,23.2618642 37.6721924,22.990588 37.2349092,22.9881595 C36.5658638,22.984471 35.8967939,22.9855936 35.227724,22.9873577 C34.7141423,22.9887093 34.2417726,22.8700131 33.8334506,22.5701911 C33.3316788,22.201731 33.0418963,21.7201647 33.0158019,21.121964 C32.9949019,20.6424137 32.9971561,20.1613514 33.0085984,19.6813888 C33.0183991,19.2694685 33.3188154,19.0108157 33.7663648,19.0019953 C33.9621094,18.9981236 34.1580011,19.0010789 34.3538193,19.0010789 C36.4017999,19.0010789 38.4498051,19.0010789 40.4977858,19.0010789" id="Fill-12" fill="#1B1D36"></path>
                <path d="M35.8568742,3.00916481 C35.8568742,3.3802236 35.8560996,3.7512596 35.857512,4.12231839 C35.8577854,4.19771108 35.8568742,4.27513278 35.872707,4.3481089 C35.9176085,4.55479475 36.1138221,4.6546952 36.3083499,4.57421857 C36.3570559,4.55406522 36.4025725,4.52586421 36.4485903,4.49966941 C37.1197897,4.11785 37.7908751,3.73580261 38.4618695,3.35364124 C38.5079101,3.32742364 38.5555453,3.30316666 38.5984194,3.27241228 C38.8140652,3.11775126 38.8152498,2.88252241 38.6007886,2.72797538 C38.5518776,2.69272981 38.4975219,2.66482517 38.4449204,2.63486871 C37.806708,2.2716524 37.1683817,1.90859567 36.5299644,1.54576693 C36.4575888,1.50463949 36.387013,1.45883849 36.3109469,1.4260095 C36.117376,1.34252355 35.919021,1.44226441 35.8733677,1.64758239 C35.8571703,1.72044452 35.8578082,1.79791182 35.857512,1.87330451 C35.856054,2.25193221 35.8568514,2.63053711 35.8568742,3.00916481 M34.0008073,2.98071302 C34.0038144,1.32081994 35.3346859,-0.000410171305 37.0032188,9.55205905e-08 C38.6586754,0.000410553477 39.9965635,1.33757641 39.9999871,2.99514409 C40.0033978,4.65882162 38.6559416,6.00013669 36.9887073,6.0000001 C35.2754323,5.99984032 33.9627401,4.57376262 34.0008073,2.98071302" id="Fill-14" fill="#1B1D36"></path>
            </g>
            <g id="+-copy" transform="translate(86.000000, 16.000000)" fill="#FF4900" fill-rule="nonzero">
                <polygon id="Path" points="10.948 6.716 6.946 6.716 6.946 10.626 3.979 10.626 3.979 6.716 0 6.716 0 3.91 3.979 3.91 3.979 0 6.946 0 6.946 3.91 10.948 3.91"></polygon>
            </g>
        </g>
    </g>
</svg>